<?xml version="1.0" encoding="UTF-8"?>
<svg version="1.1" xmlns="http://www.w3.org/2000/svg" width="500" height="500">
<path d="M0 0 C0.79921875 -0.01611328 1.5984375 -0.03222656 2.421875 -0.04882812 C17.42003657 -0.06096256 30.25784274 8.09033795 40.625 18.3125 C41.54539062 19.12460938 41.54539062 19.12460938 42.484375 19.953125 C51.04030734 27.72410942 56.47072599 38.42794664 61.1875 48.8125 C61.53417725 49.56571533 61.88085449 50.31893066 62.23803711 51.0949707 C64.06818616 55.29189383 65.22186617 58.6473391 64.625 63.3125 C63.965 64.3025 63.305 65.2925 62.625 66.3125 C60.2421875 66.60546875 60.2421875 66.60546875 57.5 66.5 C56.58992187 66.47292969 55.67984375 66.44585937 54.7421875 66.41796875 C54.04351562 66.38316406 53.34484375 66.34835938 52.625 66.3125 C52.89054688 66.85777344 53.15609375 67.40304688 53.4296875 67.96484375 C60.01166404 82.01760389 60.82586008 97.60211751 55.625 112.3125 C54.42087175 115.09192148 53.10303097 117.66223757 51.625 120.3125 C50.965 120.3125 50.305 120.3125 49.625 120.3125 C49.33625 121.055 49.0475 121.7975 48.75 122.5625 C47.80197356 124.87989797 46.77654089 127.09167115 45.625 129.3125 C46.285 129.3125 46.945 129.3125 47.625 129.3125 C47.625 129.9725 47.625 130.6325 47.625 131.3125 C49.605 130.6525 51.585 129.9925 53.625 129.3125 C53.625 128.6525 53.625 127.9925 53.625 127.3125 C57.27414648 123.6552443 60.73757494 120.41735695 66 120.125 C69.04478706 121.50240367 69.86489184 122.50971907 71.625 125.3125 C79.12441613 148.03508989 75.76579497 170.63873074 65.44140625 191.73046875 C65.03728516 192.51357422 65.03728516 192.51357422 64.625 193.3125 C63.965 193.3125 63.305 193.3125 62.625 193.3125 C62.480625 193.93125 62.33625 194.55 62.1875 195.1875 C61.625 197.3125 61.625 197.3125 60.625 199.3125 C59.965 199.3125 59.305 199.3125 58.625 199.3125 C58.36332031 199.88613281 58.10164062 200.45976562 57.83203125 201.05078125 C50.45410764 214.87543423 33.97050361 223.4291397 19.71484375 228.30859375 C13.73298434 230.06697436 7.84537565 230.99452553 1.625 231.3125 C0.85929688 231.35375 0.09359375 231.395 -0.6953125 231.4375 C-20.5120198 231.96071339 -40.62501007 225.99126161 -55.375 212.3125 C-55.375 211.6525 -55.375 210.9925 -55.375 210.3125 C-56.035 210.3125 -56.695 210.3125 -57.375 210.3125 C-57.375 209.6525 -57.375 208.9925 -57.375 208.3125 C-58.035 208.3125 -58.695 208.3125 -59.375 208.3125 C-59.375 207.6525 -59.375 206.9925 -59.375 206.3125 C-60.035 206.3125 -60.695 206.3125 -61.375 206.3125 C-61.375 205.6525 -61.375 204.9925 -61.375 204.3125 C-62.035 204.3125 -62.695 204.3125 -63.375 204.3125 C-63.375 203.6525 -63.375 202.9925 -63.375 202.3125 C-64.035 202.3125 -64.695 202.3125 -65.375 202.3125 C-66.76438077 200.35102126 -68.1010411 198.35083424 -69.375 196.3125 C-69.83648437 196.67601562 -70.29796875 197.03953125 -70.7734375 197.4140625 C-79.89788499 204.44673942 -87.97508909 209.07121624 -99.375 211.3125 C-100.22835937 211.49554688 -101.08171875 211.67859375 -101.9609375 211.8671875 C-116.74881778 214.59504891 -130.97851543 208.86926114 -143.375 201.3125 C-143.375 200.6525 -143.375 199.9925 -143.375 199.3125 C-143.94734375 199.06757813 -144.5196875 198.82265625 -145.109375 198.5703125 C-155.86800063 192.59742034 -161.51045241 179.16597443 -165.5390625 168.12109375 C-173.90461445 136.8870937 -163.89272464 103.87655826 -149.375 76.3125 C-148.70409045 74.98129656 -148.03492424 73.64918329 -147.375 72.3125 C-146.715 72.3125 -146.055 72.3125 -145.375 72.3125 C-145.08625 71.549375 -144.7975 70.78625 -144.5 70 C-143.375 67.3125 -143.375 67.3125 -141.375 64.3125 C-140.715 64.3125 -140.055 64.3125 -139.375 64.3125 C-139.12492187 63.73371094 -138.87484375 63.15492188 -138.6171875 62.55859375 C-134.72882952 55.52775778 -127.14782905 50.89986143 -119.8046875 48.171875 C-107.89613557 45.18795538 -98.41385325 46.78653595 -87.83984375 52.78125 C-87.02644531 53.2865625 -86.21304688 53.791875 -85.375 54.3125 C-85.375 54.9725 -85.375 55.6325 -85.375 56.3125 C-84.83875 56.51875 -84.3025 56.725 -83.75 56.9375 C-80.45521991 58.84500426 -77.78136372 61.36069384 -75.375 64.3125 C-75.375 64.9725 -75.375 65.6325 -75.375 66.3125 C-74.715 66.3125 -74.055 66.3125 -73.375 66.3125 C-71.46374846 68.8153294 -69.97297639 71.60164719 -68.375 74.3125 C-67.9625 74.94414062 -67.55 75.57578125 -67.125 76.2265625 C-64.574465 80.24719754 -64.37800407 81.81072695 -65.375 86.3125 C-65.64620623 89.41215518 -65.78788257 92.5173725 -65.9375 95.625 C-66.00227539 96.87893555 -66.00227539 96.87893555 -66.06835938 98.15820312 C-66.17385307 100.20946935 -66.27487315 102.2609648 -66.375 104.3125 C-68.81287558 101.33675502 -70.20130427 98.52476672 -71.5625 94.9375 C-77.45467459 80.4377812 -85.44329084 65.85803221 -100.515625 59.39453125 C-108.43233244 57.07250486 -114.92939523 58.99221031 -121.92578125 62.7421875 C-139.22959873 73.8365011 -148.71775906 98.13400443 -153.0625 117.375 C-154.83394192 126.289974 -155.45542337 134.8032191 -155.5 143.875 C-155.50713013 145.06258911 -155.50713013 145.06258911 -155.5144043 146.27416992 C-155.47796021 159.29280823 -153.46243669 170.87254843 -145.546875 181.5703125 C-144.375 183.3125 -144.375 183.3125 -144.375 185.3125 C-143.715 185.3125 -143.055 185.3125 -142.375 185.3125 C-142.375 185.9725 -142.375 186.6325 -142.375 187.3125 C-141.715 187.3125 -141.055 187.3125 -140.375 187.3125 C-140.375 187.9725 -140.375 188.6325 -140.375 189.3125 C-139.52421875 189.71662109 -139.52421875 189.71662109 -138.65625 190.12890625 C-136.27920888 191.36219984 -134.11449601 192.78313011 -131.875 194.25 C-122.21182625 200.05358012 -111.14239431 201.95900155 -100.11328125 199.62109375 C-92.41585874 197.48441085 -85.3720237 194.47365269 -79.7578125 188.62890625 C-78.375 187.3125 -78.375 187.3125 -76.375 187.3125 C-77.11517812 181.26000185 -78.65444387 175.72475473 -80.4375 169.91015625 C-84.38005558 154.78059922 -84.2038063 134.76212545 -77.3125 120.4375 C-75.375 117.3125 -75.375 117.3125 -73.375 115.3125 C-66.42228474 114.62862637 -66.42228474 114.62862637 -62.8984375 116.9296875 C-60.0502271 119.6191741 -57.93286255 122.54869587 -55.8125 125.8125 C-53.28681179 129.65992141 -50.77304216 133.16873311 -47.375 136.3125 C-44.57627563 133.78461993 -42.91726981 132.10838866 -42.375 128.3125 C-43.035 128.3125 -43.695 128.3125 -44.375 128.3125 C-44.375 127.6525 -44.375 126.9925 -44.375 126.3125 C-45.035 126.3125 -45.695 126.3125 -46.375 126.3125 C-56.72889838 109.68723799 -59.15094755 94.74413283 -56.375 75.3125 C-57.2 74.85875 -58.025 74.405 -58.875 73.9375 C-59.7 73.40125 -60.525 72.865 -61.375 72.3125 C-61.375 71.6525 -61.375 70.9925 -61.375 70.3125 C-62.035 70.3125 -62.695 70.3125 -63.375 70.3125 C-65.02151454 67.79430129 -65.40464197 66.57852729 -65.06640625 63.54296875 C-61.8816016 48.66255378 -53.6055155 35.18030564 -44.375 23.3125 C-43.86453125 22.64734375 -43.3540625 21.9821875 -42.828125 21.296875 C-41.73493399 19.92074043 -40.56417023 18.60659702 -39.375 17.3125 C-38.715 17.3125 -38.055 17.3125 -37.375 17.3125 C-37.375 16.6525 -37.375 15.9925 -37.375 15.3125 C-35.40578428 13.75754003 -33.45142817 12.33609062 -31.375 10.9375 C-30.48240479 10.33023071 -30.48240479 10.33023071 -29.57177734 9.71069336 C-20.15843608 3.3938123 -11.43448182 -0.04566486 0 0 Z M-27.375 21.3125 C-27.375 21.9725 -27.375 22.6325 -27.375 23.3125 C-28.035 23.3125 -28.695 23.3125 -29.375 23.3125 C-29.375 23.9725 -29.375 24.6325 -29.375 25.3125 C-30.365 25.6425 -31.355 25.9725 -32.375 26.3125 C-40.41263506 34.49270951 -53.375 52.37298825 -53.375 64.3125 C-51.58170868 65.05798158 -51.58170868 65.05798158 -49.375 65.3125 C-47.29098499 64.35298884 -47.29098499 64.35298884 -45.29296875 62.78515625 C-44.52533203 62.24052734 -43.75769531 61.69589844 -42.96679688 61.13476562 C-41.37342193 59.96853425 -39.78224349 58.79929549 -38.19335938 57.62695312 C-34.68449648 55.14407353 -32.07923112 53.45598321 -27.828125 52.58984375 C-23.0246717 53.59509133 -19.83018794 55.9134625 -15.9375 58.8125 C-15.20595703 59.33714844 -14.47441406 59.86179688 -13.72070312 60.40234375 C-11.92766005 61.69145968 -10.14694462 62.9946142 -8.375 64.3125 C-7.67375 63.86519531 -6.9725 63.41789062 -6.25 62.95703125 C-4.28120171 61.70245734 -2.31108312 60.44995364 -0.33984375 59.19921875 C1.44396748 58.06406615 3.2239156 56.92276086 4.99609375 55.76953125 C5.67800781 55.32996094 6.35992187 54.89039063 7.0625 54.4375 C7.65933594 54.04820312 8.25617188 53.65890625 8.87109375 53.2578125 C10.92223715 52.15229646 12.28387334 51.49823514 14.625 51.3125 C17.24609375 52.60546875 17.24609375 52.60546875 20.0625 54.5 C20.98933594 55.11230469 21.91617188 55.72460938 22.87109375 56.35546875 C25.625 58.3125 25.625 58.3125 28.3125 60.52734375 C30.48490636 62.50575404 30.48490636 62.50575404 33.1875 62.6875 C35.70444056 62.30027838 37.44388472 61.60501276 39.625 60.3125 C39.625 59.6525 39.625 58.9925 39.625 58.3125 C40.49125 58.168125 41.3575 58.02375 42.25 57.875 C43.36375 57.689375 44.4775 57.50375 45.625 57.3125 C47.625 56.97916667 49.625 56.64583333 51.625 56.3125 C48.5280913 48.13494846 45.04581573 40.24895943 39.625 33.3125 C38.965 33.3125 38.305 33.3125 37.625 33.3125 C37.21507812 32.43851563 37.21507812 32.43851563 36.796875 31.546875 C31.57782431 21.59588502 21.57819913 15.70216269 11.2265625 12.14453125 C-3.55244678 8.25819918 -14.96729485 13.04069656 -27.375 21.3125 Z M13.625 62.3125 C13.07561768 62.70630859 12.52623535 63.10011719 11.96020508 63.50585938 C9.46110335 65.28697985 6.94962346 67.04979922 4.4375 68.8125 C3.57318359 69.43253906 2.70886719 70.05257812 1.81835938 70.69140625 C0.97724609 71.27792969 0.13613281 71.86445313 -0.73046875 72.46875 C-1.50028076 73.01337891 -2.27009277 73.55800781 -3.06323242 74.11914062 C-5.75248489 75.50736178 -7.38766704 75.65813669 -10.375 75.3125 C-12.5625 73.8125 -12.5625 73.8125 -14.375 72.3125 C-15.035 72.3125 -15.695 72.3125 -16.375 72.3125 C-16.375 71.6525 -16.375 70.9925 -16.375 70.3125 C-18.355 69.6525 -20.335 68.9925 -22.375 68.3125 C-22.375 67.6525 -22.375 66.9925 -22.375 66.3125 C-24.95486998 64.42130782 -24.95486998 64.42130782 -28.375 63.3125 C-31.22612776 64.36024183 -33.05898208 65.26138673 -35.5 66.9375 C-36.1202002 67.35845947 -36.74040039 67.77941895 -37.37939453 68.21313477 C-41.89794496 71.50798673 -44.55618964 74.49403106 -45.953125 80.04296875 C-47.70168095 93.59427734 -46.46413884 104.0254877 -40.375 116.3125 C-39.715 116.3125 -39.055 116.3125 -38.375 116.3125 C-37.715 117.9625 -37.055 119.6125 -36.375 121.3125 C-35.715 121.3125 -35.055 121.3125 -34.375 121.3125 C-34.375 121.9725 -34.375 122.6325 -34.375 123.3125 C-33.694375 123.869375 -33.01375 124.42625 -32.3125 125 C-30.375 127.3125 -30.375 127.3125 -30.4375 130.8125 C-31.32786284 134.13652127 -32.19162137 135.74940334 -34.375 138.3125 C-34.375 138.9725 -34.375 139.6325 -34.375 140.3125 C-35.035 140.3125 -35.695 140.3125 -36.375 140.3125 C-37.365 142.2925 -38.355 144.2725 -39.375 146.3125 C-37.70011472 148.04897948 -37.70011472 148.04897948 -35.375 149.3125 C-32.69214509 148.71631002 -30.76501614 147.58485304 -28.5234375 146.01953125 C-27.85570312 145.55933594 -27.18796875 145.09914063 -26.5 144.625 C-25.88382813 144.16738281 -25.26765625 143.70976562 -24.6328125 143.23828125 C-21.20799455 141.83398739 -18.93507419 142.4395607 -15.375 143.3125 C-12.42715892 144.90419958 -9.69847161 146.6564864 -6.91796875 148.51757812 C-3.45490574 150.81983519 -3.45490574 150.81983519 0.625 151.3125 C0.625 150.6525 0.625 149.9925 0.625 149.3125 C1.48351562 148.92578125 1.48351562 148.92578125 2.359375 148.53125 C4.83628995 147.19884058 6.7591166 145.66193882 8.875 143.8125 C9.58140625 143.2040625 10.2878125 142.595625 11.015625 141.96875 C12.85729504 140.45833632 12.85729504 140.45833632 12.625 138.3125 C13.285 138.3125 13.945 138.3125 14.625 138.3125 C14.625 137.6525 14.625 136.9925 14.625 136.3125 C20.77912845 135.79965596 24.29897153 137.37477482 29.625 140.3125 C32.68040002 141.67045557 34.27250331 142.3125 37.625 142.3125 C37.625 141.6525 37.625 140.9925 37.625 140.3125 C38.615 139.9825 39.605 139.6525 40.625 139.3125 C39.2696674 136.77576712 39.2696674 136.77576712 37.625 134.3125 C36.965 134.3125 36.305 134.3125 35.625 134.3125 C35.625 133.6525 35.625 132.9925 35.625 132.3125 C34.965 132.3125 34.305 132.3125 33.625 132.3125 C32.40878378 126.96114865 32.40878378 126.96114865 33.375 124.0625 C34.625 122.3125 34.625 122.3125 37.625 120.3125 C37.625 119.6525 37.625 118.9925 37.625 118.3125 C38.285 118.3125 38.945 118.3125 39.625 118.3125 C46.27025806 106.46119753 50.19733028 95.88545855 47.40625 82.05859375 C46.28696391 78.12430313 44.66684056 74.8516903 42.625 71.3125 C38.57877498 70.94269987 38.57877498 70.94269987 35.625 73.3125 C29.48546512 73.87063953 29.48546512 73.87063953 26.3125 71.8125 C25.755625 71.3175 25.19875 70.8225 24.625 70.3125 C23.965 70.3125 23.305 70.3125 22.625 70.3125 C22.625 69.6525 22.625 68.9925 22.625 68.3125 C20.60708664 66.72280753 20.60708664 66.72280753 18.125 65.1875 C17.2896875 64.64867187 16.454375 64.10984375 15.59375 63.5546875 C14.61921875 62.93980469 14.61921875 62.93980469 13.625 62.3125 Z M-68.375 130.3125 C-74.29253824 148.27645538 -72.11870369 166.517754 -64.3125 183.5 C-55.48060282 199.94753733 -41.37833778 212.70834816 -23.375 218.3125 C-16.8851874 220.12185339 -10.72331381 220.6667216 -4 220.625 C-2.61192139 220.61871582 -2.61192139 220.61871582 -1.19580078 220.61230469 C5.49083776 220.50166501 11.34871866 219.71254999 17.625 217.3125 C18.64722656 216.95285156 19.66945313 216.59320313 20.72265625 216.22265625 C23.36929839 215.28244583 26.00051425 214.31254583 28.625 213.3125 C28.625 212.6525 28.625 211.9925 28.625 211.3125 C29.181875 211.209375 29.73875 211.10625 30.3125 211 C33.1019101 210.17071592 35.2389064 208.96950944 37.625 207.3125 C37.625 206.6525 37.625 205.9925 37.625 205.3125 C38.20507812 205.05726563 38.78515625 204.80203125 39.3828125 204.5390625 C51.43391344 197.9466484 58.06762759 183.62519278 62.71875 171.44921875 C65.83413866 160.66621402 67.81948998 145.70147996 62.625 135.3125 C61.305 135.6425 59.985 135.9725 58.625 136.3125 C58.625 136.9725 58.625 137.6325 58.625 138.3125 C58.068125 138.56 57.51125 138.8075 56.9375 139.0625 C54.20089087 140.54174818 51.94849131 142.24717439 49.625 144.3125 C49.625 144.9725 49.625 145.6325 49.625 146.3125 C49.08875 146.539375 48.5525 146.76625 48 147 C45.38756091 148.32872666 45.38756091 148.32872666 42.6875 150.9375 C39.625 153.3125 39.625 153.3125 37.390625 153.6796875 C33.62939654 153.18031536 30.6152174 151.57440279 27.3125 149.8125 C26.34473633 149.31169922 26.34473633 149.31169922 25.35742188 148.80078125 C23.77523174 147.98038637 22.19944646 147.14765969 20.625 146.3125 C20.295 146.9725 19.965 147.6325 19.625 148.3125 C18.965 148.3125 18.305 148.3125 17.625 148.3125 C17.625 148.9725 17.625 149.6325 17.625 150.3125 C16.965 150.3125 16.305 150.3125 15.625 150.3125 C15.625 150.9725 15.625 151.6325 15.625 152.3125 C14.77035156 152.67988281 14.77035156 152.67988281 13.8984375 153.0546875 C10.40853335 154.98552794 7.85458923 157.83718348 5.0390625 160.6328125 C1.94594317 162.78498291 0.32822485 162.82031609 -3.375 162.3125 C-5.90234375 161.140625 -5.90234375 161.140625 -8.3125 159.5625 C-9.16457031 159.01851562 -10.01664063 158.47453125 -10.89453125 157.9140625 C-11.71308594 157.38554687 -12.53164062 156.85703125 -13.375 156.3125 C-14.74380991 155.51017803 -16.11796565 154.7168216 -17.5 153.9375 C-18.923125 153.133125 -18.923125 153.133125 -20.375 152.3125 C-21.365 152.9725 -22.355 153.6325 -23.375 154.3125 C-23.375 154.9725 -23.375 155.6325 -23.375 156.3125 C-24.138125 156.60125 -24.90125 156.89 -25.6875 157.1875 C-28.52529308 158.27519013 -28.52529308 158.27519013 -31.375 160.3125 C-35.6225253 160.62141093 -38.7336453 160.64296701 -42.375 158.3125 C-42.375 157.6525 -42.375 156.9925 -42.375 156.3125 C-43.035 156.3125 -43.695 156.3125 -44.375 156.3125 C-44.375 155.6525 -44.375 154.9925 -44.375 154.3125 C-45.035 154.3125 -45.695 154.3125 -46.375 154.3125 C-46.375 153.6525 -46.375 152.9925 -46.375 152.3125 C-47.035 152.3125 -47.695 152.3125 -48.375 152.3125 C-48.375 151.6525 -48.375 150.9925 -48.375 150.3125 C-49.035 150.3125 -49.695 150.3125 -50.375 150.3125 C-50.375 149.6525 -50.375 148.9925 -50.375 148.3125 C-51.035 148.3125 -51.695 148.3125 -52.375 148.3125 C-52.375 147.6525 -52.375 146.9925 -52.375 146.3125 C-53.035 146.3125 -53.695 146.3125 -54.375 146.3125 C-54.601875 145.77625 -54.82875 145.24 -55.0625 144.6875 C-56.83070089 141.48789839 -58.91170203 139.02212777 -61.375 136.3125 C-62.035 136.3125 -62.695 136.3125 -63.375 136.3125 C-63.643125 135.69375 -63.91125 135.075 -64.1875 134.4375 C-65.33056848 132.0129767 -65.33056848 132.0129767 -68.375 130.3125 Z " fill="#444645" transform="translate(249.375,103.6875)"/>
<path d="M0 0 C6.33470283 3.46754526 12.14007921 7.97790161 16.9375 13.375 C16.9375 14.035 16.9375 14.695 16.9375 15.375 C17.5975 15.375 18.2575 15.375 18.9375 15.375 C30.10650348 27.29396054 36.62147615 44.90395862 40.9375 60.375 C41.13214844 61.02710449 41.32679688 61.67920898 41.52734375 62.35107422 C44.75474946 73.42814236 45.33090373 84.40685423 45.375 95.875 C45.3811734 96.56109344 45.3873468 97.24718689 45.39370728 97.95407104 C45.47884129 112.65805787 42.43400478 128.58623545 32.9375 140.375 C32.2775 140.375 31.6175 140.375 30.9375 140.375 C30.73125 140.91125 30.525 141.4475 30.3125 142 C28.40499574 145.29478009 25.88930616 147.96863628 22.9375 150.375 C22.2775 150.375 21.6175 150.375 20.9375 150.375 C20.9375 151.035 20.9375 151.695 20.9375 152.375 C18.89918152 153.50605506 16.85668624 154.62958472 14.8125 155.75 C13.67554688 156.37648438 12.53859375 157.00296875 11.3671875 157.6484375 C-3.40144281 165.08321494 -18.66157417 163.98645201 -34.0625 159.375 C-35.73772914 158.73015152 -37.40749147 158.07010358 -39.0625 157.375 C-39.0625 156.715 -39.0625 156.055 -39.0625 155.375 C-39.59875 155.2925 -40.135 155.21 -40.6875 155.125 C-43.93590691 154.09918729 -46.35001859 152.40936106 -49.0625 150.375 C-49.0625 149.715 -49.0625 149.055 -49.0625 148.375 C-49.7225 148.375 -50.3825 148.375 -51.0625 148.375 C-52.00971072 145.77017051 -52.36472393 144.06825299 -51.23828125 141.484375 C-50.23313275 139.74917127 -49.1518855 138.05859577 -48.0625 136.375 C-45.23767292 137.66512666 -43.1799188 139.05213134 -40.9375 141.1875 C-32.6976478 148.37321332 -22.19291463 151.99553229 -11.24609375 151.62109375 C-1.77281496 150.55344337 5.80793223 147.17518887 13.9375 142.375 C15.2644979 141.6958102 16.59558253 141.0242147 17.9375 140.375 C17.9375 139.715 17.9375 139.055 17.9375 138.375 C18.5975 138.375 19.2575 138.375 19.9375 138.375 C19.9375 137.715 19.9375 137.055 19.9375 136.375 C20.5975 136.375 21.2575 136.375 21.9375 136.375 C22.20691406 135.64152344 22.47632813 134.90804687 22.75390625 134.15234375 C23.89752655 131.46879908 25.23777452 129.34126362 26.875 126.9375 C30.65508647 120.79716441 31.74481755 114.40238797 32.9375 107.375 C33.123125 106.53324219 33.30875 105.69148438 33.5 104.82421875 C37.98786572 79.70018475 27.29505096 48.40341326 13.3125 27.9375 C11.57089306 25.45591453 9.89837429 23.33677294 7.7265625 21.21484375 C5.9375 19.375 5.9375 19.375 5.9375 17.375 C5.36386719 17.09785156 4.79023438 16.82070312 4.19921875 16.53515625 C1.9375 15.375 1.9375 15.375 -0.10546875 14.12109375 C-6.08966389 10.4695357 -11.38003733 8.4198708 -18.41796875 9.85546875 C-33.26456546 14.35669824 -40.28443559 26.20163416 -47.69140625 38.86328125 C-48.14539795 39.63881348 -48.59938965 40.4143457 -49.06713867 41.21337891 C-49.97450695 42.76882119 -50.87708935 44.32706603 -51.7746582 45.88818359 C-52.84376459 47.73294078 -53.94956285 49.55634983 -55.0625 51.375 C-55.3925 51.375 -55.7225 51.375 -56.0625 51.375 C-56.12308594 50.51777344 -56.18367188 49.66054687 -56.24609375 48.77734375 C-56.67393536 42.93895127 -57.121663 37.15442728 -58.0625 31.375 C-57.4025 31.375 -56.7425 31.375 -56.0625 31.375 C-55.95808594 30.82328125 -55.85367187 30.2715625 -55.74609375 29.703125 C-54.91689616 26.87911491 -53.6345035 24.64945084 -52.125 22.125 C-51.60035156 21.23296875 -51.07570313 20.3409375 -50.53515625 19.421875 C-50.04917969 18.74640625 -49.56320312 18.0709375 -49.0625 17.375 C-48.4025 17.375 -47.7425 17.375 -47.0625 17.375 C-46.80210937 16.79492188 -46.54171875 16.21484375 -46.2734375 15.6171875 C-38.1843109 0.63925631 -15.62354367 -6.61735329 0 0 Z " fill="#3D403F" transform="translate(373.0625,152.625)"/>
<path d="M0 0 C1.22009766 0.75796875 1.22009766 0.75796875 2.46484375 1.53125 C2.46484375 2.19125 2.46484375 2.85125 2.46484375 3.53125 C3.00109375 3.7375 3.53734375 3.94375 4.08984375 4.15625 C7.38462384 6.06375426 10.05848003 8.57944384 12.46484375 11.53125 C12.46484375 12.19125 12.46484375 12.85125 12.46484375 13.53125 C13.12484375 13.53125 13.78484375 13.53125 14.46484375 13.53125 C16.37609529 16.0340794 17.86686736 18.82039719 19.46484375 21.53125 C19.87734375 22.16289062 20.28984375 22.79453125 20.71484375 23.4453125 C23.26537875 27.46594754 23.46183968 29.02947695 22.46484375 33.53125 C22.19363752 36.63090518 22.05196118 39.7361225 21.90234375 42.84375 C21.85916016 43.67970703 21.81597656 44.51566406 21.77148438 45.37695312 C21.66599068 47.42821935 21.5649706 49.4797148 21.46484375 51.53125 C19.02696817 48.55550502 17.63853948 45.74351672 16.27734375 42.15625 C10.38516916 27.6565312 2.39655291 13.07678221 -12.67578125 6.61328125 C-20.59248869 4.29125486 -27.08955148 6.21096031 -34.0859375 9.9609375 C-50.34850759 20.38765708 -60.09887537 43.13159677 -64.4375 61.3125 C-65.17530649 64.7125299 -65.87684985 68.11503873 -66.53515625 71.53125 C-67.51107208 68.14807513 -67.3937228 65.9655162 -66.53515625 62.53125 C-67.52515625 62.53125 -68.51515625 62.53125 -69.53515625 62.53125 C-70.19515625 61.21125 -70.85515625 59.89125 -71.53515625 58.53125 C-72.52515625 58.53125 -73.51515625 58.53125 -74.53515625 58.53125 C-74.86515625 60.84125 -75.19515625 63.15125 -75.53515625 65.53125 C-75.86515625 65.53125 -76.19515625 65.53125 -76.53515625 65.53125 C-75.98984175 50.53510135 -68.39068107 36.54748293 -61.53515625 23.53125 C-60.8642467 22.20004656 -60.19508049 20.86793329 -59.53515625 19.53125 C-58.87515625 19.53125 -58.21515625 19.53125 -57.53515625 19.53125 C-57.24640625 18.768125 -56.95765625 18.005 -56.66015625 17.21875 C-55.53515625 14.53125 -55.53515625 14.53125 -53.53515625 11.53125 C-52.87515625 11.53125 -52.21515625 11.53125 -51.53515625 11.53125 C-51.28507812 10.95246094 -51.035 10.37367188 -50.77734375 9.77734375 C-46.88898577 2.74650778 -39.3079853 -1.88138857 -31.96484375 -4.609375 C-20.05629182 -7.59329462 -10.5740095 -5.99471405 0 0 Z " fill="#4C4E4D" transform="translate(161.53515625,156.46875)"/>
<path d="M0 0 C3.10039543 1.75494081 5.48825667 3.48825667 8 6 C8.56776399 9.71138358 8.54645757 13.28730301 8 17 C5.5625 20.125 5.5625 20.125 3 22 C2.505 22.495 2.505 22.495 2 23 C0.33333333 23 -1.33333333 23 -3 23 C-9.37455897 23.47434708 -12.15642026 26.25524879 -16.3203125 30.87109375 C-18.02871879 32.8883333 -18.02871879 32.8883333 -19 35 C-14.69373609 35.0301966 -10.39074493 35.01443607 -6.08496094 34.95727539 C-4.62245424 34.94418844 -3.1597819 34.94335324 -1.69726562 34.95532227 C6.67557403 35.33986613 6.67557403 35.33986613 14.17285156 32.41894531 C15.72768092 30.56026714 15.72768092 30.56026714 16.94091797 28.60083008 C18 27 18 27 20.34375 25.9921875 C25.35930272 25.71960311 28.75144236 25.96531597 33 29 C35.9022314 32.38593663 36.59079252 35.53603789 36.421875 40.00390625 C35.51398999 44.29954734 32.53259329 46.82501181 29.125 49.4375 C24.87190161 50.56332016 21.1382608 49.54326084 17.25 47.6875 C15 46 15 46 13.82885742 43.93261719 C11.54116393 41.51513198 9.87542527 41.49128117 6.6287384 41.39434814 C5.56921211 41.39250519 5.56921211 41.39250519 4.48828125 41.390625 C3.76005661 41.37408875 3.03183197 41.35755249 2.28153992 41.34051514 C-0.04155865 41.29197803 -2.3640025 41.27065331 -4.6875 41.25 C-6.26370492 41.22184482 -7.83987926 41.19191801 -9.41601562 41.16015625 C-13.27728983 41.08621856 -17.13819939 41.03667968 -21 41 C-21.40992188 42.16595703 -21.40992188 42.16595703 -21.828125 43.35546875 C-23.46111313 47.04057862 -25.46239417 48.1631662 -29 50 C-33.82245126 50.70327414 -36.89865809 49.55194607 -41 47 C-44.44353128 43.23822768 -44.51476881 40.34360965 -44.34765625 35.41015625 C-43.84058037 31.89480999 -42.6998923 30.27359352 -40 28 C-36.13376829 26.02192796 -33.68385879 25.99243371 -29.5625 26.8125 C-26.6317986 27.24319429 -25.46891456 27.29751208 -22.9375 25.69140625 C-19.7100679 22.5648314 -17.0287696 19.4580016 -16 15 C-16.04125 14.030625 -16.0825 13.06125 -16.125 12.0625 C-15.9577525 7.96493615 -14.57996341 6.13779333 -12 3 C-8.07324125 -0.18385844 -4.98824428 -0.6125914 0 0 Z M-6 9 C-6 10.65 -6 12.3 -6 14 C-4.35 14 -2.7 14 -1 14 C-1 12.35 -1 10.7 -1 9 C-2.65 9 -4.3 9 -6 9 Z M-34 35 C-34.33 36.32 -34.66 37.64 -35 39 C-33.02 39.99 -33.02 39.99 -31 41 C-30.34 39.68 -29.68 38.36 -29 37 C-29.66 36.34 -30.32 35.68 -31 35 C-31.99 35 -32.98 35 -34 35 Z M22 35 C21.67 36.32 21.34 37.64 21 39 C22.98 39.99 22.98 39.99 25 41 C26.10836423 39.11683841 26.10836423 39.11683841 27 37 C26.67 36.34 26.34 35.68 26 35 C24.68 35 23.36 35 22 35 Z " fill="#555756" transform="translate(254,342)"/>
<path d="M0 0 C6.33470283 3.46754526 12.14007921 7.97790161 16.9375 13.375 C16.9375 14.035 16.9375 14.695 16.9375 15.375 C17.5975 15.375 18.2575 15.375 18.9375 15.375 C26.87599884 23.84653953 31.31819283 34.89606341 35.9375 45.375 C36.59105469 46.80199219 36.59105469 46.80199219 37.2578125 48.2578125 C37.9375 50.375 37.9375 50.375 36.9375 53.375 C35.31417033 54.76076923 33.65025535 56.10141268 31.9375 57.375 C32.4015625 56.2303125 32.4015625 56.2303125 32.875 55.0625 C33.61643593 53.18710323 34.29978217 51.28815348 34.9375 49.375 C34.2775 48.715 33.6175 48.055 32.9375 47.375 C31.9475 48.035 30.9575 48.695 29.9375 49.375 C29.9375 50.035 29.9375 50.695 29.9375 51.375 C28.4375 53 28.4375 53 26.9375 54.375 C26.48310547 53.35792969 26.48310547 53.35792969 26.01953125 52.3203125 C24.6740803 49.33134146 23.31038243 46.35146963 21.9375 43.375 C21.54175781 42.51519531 21.14601563 41.65539062 20.73828125 40.76953125 C17.35311082 33.69553723 13.36850656 26.72734151 7.72265625 21.2109375 C5.9375 19.375 5.9375 19.375 5.9375 17.375 C5.36386719 17.09785156 4.79023438 16.82070312 4.19921875 16.53515625 C1.9375 15.375 1.9375 15.375 -0.10546875 14.12109375 C-6.08966389 10.4695357 -11.38003733 8.4198708 -18.41796875 9.85546875 C-33.26456546 14.35669824 -40.28443559 26.20163416 -47.69140625 38.86328125 C-48.14539795 39.63881348 -48.59938965 40.4143457 -49.06713867 41.21337891 C-49.97450695 42.76882119 -50.87708935 44.32706603 -51.7746582 45.88818359 C-52.84376459 47.73294078 -53.94956285 49.55634983 -55.0625 51.375 C-55.3925 51.375 -55.7225 51.375 -56.0625 51.375 C-56.12308594 50.51777344 -56.18367188 49.66054687 -56.24609375 48.77734375 C-56.67393536 42.93895127 -57.121663 37.15442728 -58.0625 31.375 C-57.4025 31.375 -56.7425 31.375 -56.0625 31.375 C-55.95808594 30.82328125 -55.85367187 30.2715625 -55.74609375 29.703125 C-54.91689616 26.87911491 -53.6345035 24.64945084 -52.125 22.125 C-51.60035156 21.23296875 -51.07570313 20.3409375 -50.53515625 19.421875 C-50.04917969 18.74640625 -49.56320312 18.0709375 -49.0625 17.375 C-48.4025 17.375 -47.7425 17.375 -47.0625 17.375 C-46.80210937 16.79492188 -46.54171875 16.21484375 -46.2734375 15.6171875 C-38.1843109 0.63925631 -15.62354367 -6.61735329 0 0 Z " fill="#4B4C4C" transform="translate(373.0625,152.625)"/>
<path d="M0 0 C0.99 0 1.98 0 3 0 C3.80967438 2.91482778 4.21845993 4.46113217 3.0625 7.3125 C2.5365625 8.1478125 2.5365625 8.1478125 2 9 C2.99 8.01 3.98 7.02 5 6 C14.11731833 17.16946305 13.49138376 35.93275284 13.5 49.75 C13.50421967 50.42800659 13.50843933 51.10601318 13.51278687 51.80456543 C13.53857031 61.20911355 13.36992653 70.9451102 8 79 C7.01 78.67 6.02 78.34 5 78 C3.7922442 74.37673261 4.45688872 73.35853631 6 70 C4.68 69.67 3.36 69.34 2 69 C2.01571045 67.93640259 2.01571045 67.93640259 2.03173828 66.85131836 C2.25008672 49.80493853 1.92148917 33.95704537 -2.67871094 17.45068359 C-3.75205456 13.51948649 -4.17506423 10.06732559 -4 6 C-4 5.01 -4 4.02 -4 3 C-3.34 2.34 -2.68 1.68 -2 1 C-1.67 1.33 -1.34 1.66 -1 2 C-0.67 1.34 -0.34 0.68 0 0 Z " fill="#3F4140" transform="translate(405,199)"/>
<path d="M0 0 C2.27057377 -0.05398987 4.54151288 -0.09278742 6.8125 -0.125 C8.07707031 -0.14820313 9.34164062 -0.17140625 10.64453125 -0.1953125 C14 0 14 0 17 2 C18.11375 2.144375 19.2275 2.28875 20.375 2.4375 C24.02556924 3.00396764 26.07729925 3.78583276 29 6 C29 6.66 29 7.32 29 8 C29.53625 8.20625 30.0725 8.4125 30.625 8.625 C33.91978009 10.53250426 36.59363628 13.04819384 39 16 C39 16.66 39 17.32 39 18 C39.66 18 40.32 18 41 18 C42.91125154 20.5028294 44.40202361 23.28914719 46 26 C46.4125 26.63164062 46.825 27.26328125 47.25 27.9140625 C49.800535 31.93469754 49.99699593 33.49822695 49 38 C48.72879377 41.09965518 48.58711743 44.2048725 48.4375 47.3125 C48.39431641 48.14845703 48.35113281 48.98441406 48.30664062 49.84570312 C48.20114693 51.89696935 48.10012685 53.9484648 48 56 C45.56212442 53.02425502 44.17369573 50.21226672 42.8125 46.625 C36.92099839 32.12693729 29.58890565 20.27964303 16 12 C15.01 11.67 14.02 11.34 13 11 C13 10.34 13 9.68 13 9 C12.24074219 8.98582031 11.48148438 8.97164062 10.69921875 8.95703125 C2.5355074 8.56525781 2.5355074 8.56525781 -0.25 5.625 C-1 3 -1 3 0 0 Z " fill="#484A49" transform="translate(135,152)"/>
<path d="M0 0 C4.120882 3.41945527 5.84257891 5.42578907 6.375 10.75 C6.33925671 14.02646841 5.80558697 15.81497451 3.75 18.375 C-0.36434109 22.30232558 -0.36434109 22.30232558 -3 23 C-7.7844782 22.73902846 -11.15537957 21.88346532 -15 19 C-15.39243896 18.31631348 -15.78487793 17.63262695 -16.18920898 16.92822266 C-17.93956614 14.66964302 -17.93956614 14.66964302 -21.24633789 14.48583984 C-22.55852295 14.47762207 -23.87070801 14.4694043 -25.22265625 14.4609375 C-25.9239415 14.44914459 -26.62522675 14.43735168 -27.34776306 14.42520142 C-29.58623476 14.38991212 -31.82377273 14.38076806 -34.0625 14.375 C-36.30451787 14.35867171 -38.546117 14.33667402 -40.78794861 14.30337524 C-42.81951216 14.27471621 -44.85131196 14.26461027 -46.88305664 14.25537109 C-50 14 -50 14 -52 12 C-51.34 11.34 -50.68 10.68 -50 10 C-50 9.67 -50 9.34 -50 9 C-39.11 8.67 -28.22 8.34 -17 8 C-16.34 6.35 -15.68 4.7 -15 3 C-13.54314079 1.14581555 -12.46083473 0.20481544 -10.3125 -0.75 C-6.75325027 -1.13478375 -3.4262825 -1.01292876 0 0 Z M-8 8 C-8.33 9.32 -8.66 10.64 -9 12 C-7.02 12.99 -7.02 12.99 -5 14 C-3.89163577 12.11683841 -3.89163577 12.11683841 -3 10 C-3.33 9.34 -3.66 8.68 -4 8 C-5.32 8 -6.64 8 -8 8 Z " fill="#353736" transform="translate(284,369)"/>
<path d="M0 0 C3 1.5625 3 1.5625 5 3 C4.67 5.31 4.34 7.62 4 10 C4.598125 10.061875 5.19625 10.12375 5.8125 10.1875 C8.86363184 11.32077754 9.3879001 13.24599601 11 16 C13.06700655 17.32793606 13.06700655 17.32793606 15 18 C10.21116567 18.51894212 6.9420033 16.68505446 2.875 14.4375 C0.60161485 13.18264811 -1.62531508 12.07065033 -4 11 C-4.99 11.33 -5.98 11.66 -7 12 C-7 12.66 -7 13.32 -7 14 C-7.66 14 -8.32 14 -9 14 C-9 14.66 -9 15.32 -9 16 C-10.74001935 17.55961601 -12.54303197 19.04949575 -14.375 20.5 C-18.31482541 23.60759138 -18.31482541 23.60759138 -22 27 C-26.65620796 27.51735644 -29.19819614 26.68362626 -33 24 C-31.68 23.67 -30.36 23.34 -29 23 C-29.99 22.34 -30.98 21.68 -32 21 C-31.34 21 -30.68 21 -30 21 C-30 20.34 -30 19.68 -30 19 C-28.68 18.67 -27.36 18.34 -26 18 C-27.65 16.35 -29.3 14.7 -31 13 C-28.69 13.66 -26.38 14.32 -24 15 C-24 14.34 -24 13.68 -24 13 C-22.390625 11.34375 -22.390625 11.34375 -20.25 9.5 C-19.55390625 8.8915625 -18.8578125 8.283125 -18.140625 7.65625 C-16.15539208 6.12023037 -14.28127955 5.0276034 -12 4 C-12 3.34 -12 2.68 -12 2 C-11.34 2 -10.68 2 -10 2 C-10 1.34 -10 0.68 -10 0 C-6.7564763 -1.62176185 -3.42296437 -0.7657492 0 0 Z " fill="#3B3D3C" transform="translate(274,240)"/>
<path d="M0 0 C0.66 0.33 1.32 0.66 2 1 C1.01 1.99 0.02 2.98 -1 4 C0.32 4.66 1.64 5.32 3 6 C3.66 5.34 4.32 4.68 5 4 C5.33 4.99 5.66 5.98 6 7 C6.99 7 7.98 7 9 7 C9 6.34 9 5.68 9 5 C9.99 5.33 10.98 5.66 12 6 C11.34 6.495 10.68 6.99 10 7.5 C0.94381451 15.04682124 -4.70909263 23.37308919 -10.625 33.484375 C-11.07955566 34.26047119 -11.53411133 35.03656738 -12.00244141 35.83618164 C-12.91082206 37.39232076 -13.8142268 38.95137618 -14.71240234 40.51342773 C-15.78138696 42.35812646 -16.88712112 44.18144505 -18 46 C-18.33 46 -18.66 46 -19 46 C-19.06058594 45.14277344 -19.12117188 44.28554687 -19.18359375 43.40234375 C-19.61143536 37.56395127 -20.059163 31.77942728 -21 26 C-20.34 26 -19.68 26 -19 26 C-18.89558594 25.44828125 -18.79117187 24.8965625 -18.68359375 24.328125 C-17.85439616 21.50411491 -16.5720035 19.27445084 -15.0625 16.75 C-14.53785156 15.85796875 -14.01320313 14.9659375 -13.47265625 14.046875 C-12.98667969 13.37140625 -12.50070312 12.6959375 -12 12 C-11.34 12 -10.68 12 -10 12 C-9.75507813 11.42765625 -9.51015625 10.8553125 -9.2578125 10.265625 C-7.78889901 7.61975598 -6.04651756 5.85146861 -3.875 3.75 C-3.15054687 3.04359375 -2.42609375 2.3371875 -1.6796875 1.609375 C-1.12539063 1.07828125 -0.57109375 0.5471875 0 0 Z " fill="#454646" transform="translate(336,158)"/>
<path d="M0 0 C6.75 2.75 6.75 2.75 9 5 C11.32622311 5.37979153 13.66175408 5.70307988 16 6 C17.258125 6.350625 18.51625 6.70125 19.8125 7.0625 C27.32759711 8.83616803 35.3326071 8.14888142 43 8 C42.82597656 8.76699219 42.65195313 9.53398437 42.47265625 10.32421875 C41.96216721 13.21417737 42.2751504 15.18114044 43 18 C33.68270641 20.76067958 25.94286833 20.44628259 16.5625 18.1875 C15.86382812 18.02233887 15.16515625 17.85717773 14.4453125 17.68701172 C10.89569048 16.76760426 8.18446022 16.06143331 6 13 C5.3125 10.8125 5.3125 10.8125 5 9 C3.68 9.33 2.36 9.66 1 10 C1 9.01 1 8.02 1 7 C-0.32 6.67 -1.64 6.34 -3 6 C-1.125 1.125 -1.125 1.125 0 0 Z " fill="#3C3E3D" transform="translate(110,296)"/>
<path d="M0 0 C6.50137303 -0.6763457 9.75048225 1.23317651 14.9375 5 C15.62134766 5.47695312 16.30519531 5.95390625 17.00976562 6.4453125 C18.6834179 7.61569871 20.34318442 8.80589868 22 10 C23.15048828 9.27876953 23.15048828 9.27876953 24.32421875 8.54296875 C26.97202082 7.01613398 29.00037252 6.42851821 32 6 C34.125 8.6875 34.125 8.6875 36 12 C34.97431555 16.18113407 33.2405113 18.00154979 29.6875 20.3125 C28.92824219 20.82425781 28.16898438 21.33601563 27.38671875 21.86328125 C24.64493161 23.16910786 23.0019609 23.35460056 20 23 C16.6875 21.125 16.6875 21.125 14 19 C14 18.34 14 17.68 14 17 C12.02 16.34 10.04 15.68 8 15 C8 14.34 8 13.68 8 13 C7.278125 12.773125 6.55625 12.54625 5.8125 12.3125 C2.46790687 10.75168987 0.48396041 8.6968713 -2 6 C-1.34 4.02 -0.68 2.04 0 0 Z " fill="#373938" transform="translate(219,157)"/>
<path d="M0 0 C0.33 0 0.66 0 1 0 C0.98839844 0.84304687 0.97679687 1.68609375 0.96484375 2.5546875 C0.95582031 3.65039062 0.94679688 4.74609375 0.9375 5.875 C0.92589844 6.96554687 0.91429687 8.05609375 0.90234375 9.1796875 C0.80255697 11.95177546 0.80255697 11.95177546 2 14 C2.66 14 3.32 14 4 14 C3.67 16.64 3.34 19.28 3 22 C3.99 22 4.98 22 6 22 C5.67698799 28.13722814 2.6043679 33.16230728 -1 38 C-1.66 38 -2.32 38 -3 38 C-3.20625 38.53625 -3.4125 39.0725 -3.625 39.625 C-5.53250426 42.91978009 -8.04819384 45.59363628 -11 48 C-11.66 48 -12.32 48 -13 48 C-13 48.66 -13 49.32 -13 50 C-14.98 50.495 -14.98 50.495 -17 51 C-17.99 47.535 -17.99 47.535 -19 44 C-18.34 44 -17.68 44 -17 44 C-17 42.68 -17 41.36 -17 40 C-17.99 40 -18.98 40 -20 40 C-18.68 39.34 -17.36 38.68 -16 38 C-16 37.34 -16 36.68 -16 36 C-15.34 36 -14.68 36 -14 36 C-14 35.34 -14 34.68 -14 34 C-13.34 34 -12.68 34 -12 34 C-11.73058594 33.26652344 -11.46117187 32.53304687 -11.18359375 31.77734375 C-10.03997345 29.09379908 -8.69972548 26.96626362 -7.0625 24.5625 C-3.28241353 18.42216441 -2.19268245 12.02738797 -1 5 C-0.67182022 3.3323109 -0.34053995 1.66520912 0 0 Z " fill="#4E4F4F" transform="translate(407,255)"/>
<path d="M0 0 C0.41894531 0.49113281 0.83789062 0.98226562 1.26953125 1.48828125 C3.96397985 3.84212235 6.5667097 3.19433719 10 3 C9.55643705 9.20988129 8.08467498 13.60540561 5 19 C4.34 19 3.68 19 3 19 C2.566875 20.11375 2.566875 20.11375 2.125 21.25 C1.17697356 23.56739797 0.15154089 25.77917115 -1 28 C-0.34 28 0.32 28 1 28 C1 28.66 1 29.32 1 30 C-4.75 31 -4.75 31 -7 31 C-6.7834375 31.8353125 -6.7834375 31.8353125 -6.5625 32.6875 C-6 35 -6 35 -5.5625 37.6875 C-5.376875 38.450625 -5.19125 39.21375 -5 40 C-4.34 40.33 -3.68 40.66 -3 41 C-3.66 41 -4.32 41 -5 41 C-5.33 41.66 -5.66 42.32 -6 43 C-8 41 -8 41 -9 39 C-8.34 38.34 -7.68 37.68 -7 37 C-7.66 35.68 -8.32 34.36 -9 33 C-9.66 33 -10.32 33 -11 33 C-11 32.34 -11 31.68 -11 31 C-11.66 31 -12.32 31 -13 31 C-14.1875 28.3125 -14.1875 28.3125 -15 25 C-13.57866378 21.7832917 -11.71688606 19.24438414 -9 17 C-8.34 17 -7.68 17 -7 17 C-6.72414063 16.30519531 -6.44828125 15.61039063 -6.1640625 14.89453125 C-4.92556397 11.81490906 -3.65405114 8.75049088 -2.375 5.6875 C-1.92898438 4.61886719 -1.48296875 3.55023438 -1.0234375 2.44921875 C-0.68570312 1.64097656 -0.34796875 0.83273438 0 0 Z " fill="#4E4F4E" transform="translate(296,205)"/>
<path d="M0 0 C5.68421053 3.05263158 5.68421053 3.05263158 7 7 C7.12781786 9.67394964 7.04391871 12.32095857 7 15 C6.525625 14.360625 6.05125 13.72125 5.5625 13.0625 C4.16261274 11.11706694 4.16261274 11.11706694 3 10 C2.34 10.66 1.68 11.32 1 12 C0.67 11.01 0.34 10.02 0 9 C-1.98 9 -3.96 9 -6 9 C-6 10.65 -6 12.3 -6 14 C-4.02 14 -2.04 14 0 14 C1.00516936 16.55861291 1.16192618 17.62217225 0.0625 20.1875 C-2.5548953 22.48763526 -4.68761895 22.40860102 -8.07421875 22.65625 C-10.92966805 23.1659448 -12.14012158 24.87442466 -14 27 C-16.109375 27.625 -16.109375 27.625 -18 28 C-17.85851011 26.3954444 -17.71164314 24.79136233 -17.5625 23.1875 C-17.48128906 22.29417969 -17.40007812 21.40085937 -17.31640625 20.48046875 C-17 18 -17 18 -16 15 C-16.0928125 13.6078125 -16.0928125 13.6078125 -16.1875 12.1875 C-15.94322893 8.0348918 -14.6212238 6.18797489 -12 3 C-8.07324125 -0.18385844 -4.98824428 -0.6125914 0 0 Z " fill="#262827" transform="translate(254,342)"/>
<path d="M0 0 C-1.98 0.99 -1.98 0.99 -4 2 C-4 1.34 -4 0.68 -4 0 C-9.28 -0.33 -14.56 -0.66 -20 -1 C-19.34 1.31 -18.68 3.62 -18 6 C-14.37 6.66 -10.74 7.32 -7 8 C-7 8.33 -7 8.66 -7 9 C-8.299375 8.938125 -9.59875 8.87625 -10.9375 8.8125 C-19.9802638 8.85502083 -26.20341401 12.30055682 -33 18 C-33.60457031 18.495 -34.20914063 18.99 -34.83203125 19.5 C-36.23190074 20.65399077 -37.61768809 21.82503487 -39 23 C-39.33 22.01 -39.66 21.02 -40 20 C-38.35 19.01 -36.7 18.02 -35 17 C-35.99 16.67 -36.98 16.34 -38 16 C-38.66 15.01 -39.32 14.02 -40 13 C-41.65 13.66 -43.3 14.32 -45 15 C-41.94351534 7.92597106 -35.26922485 3.27272441 -28.5 0 C-20.02330598 -3.24012629 -8.30180793 -4.04530367 0 0 Z M-6 2 C-4 3 -4 3 -4 3 Z " fill="#535454" transform="translate(155,153)"/>
<path d="M0 0 C0.99 0 1.98 0 3 0 C3 0.66 3 1.32 3 2 C3.87398438 1.68095703 3.87398438 1.68095703 4.765625 1.35546875 C7 1 7 1 8.921875 1.92578125 C9.52515625 2.38339844 10.1284375 2.84101563 10.75 3.3125 C11.36359375 3.76238281 11.9771875 4.21226562 12.609375 4.67578125 C13.06828125 5.11277344 13.5271875 5.54976563 14 6 C14 6.66 14 7.32 14 8 C14.66 8 15.32 8 16 8 C16 8.66 16 9.32 16 10 C16.66 10 17.32 10 18 10 C18 10.66 18 11.32 18 12 C18.57234375 12.27585937 19.1446875 12.55171875 19.734375 12.8359375 C21.98964267 13.99467848 24.10856378 15.26875706 26.25 16.625 C26.95640625 17.07101562 27.6628125 17.51703125 28.390625 17.9765625 C28.92171875 18.31429688 29.4528125 18.65203125 30 19 C29.01 19.66 28.02 20.32 27 21 C26.4225 20.360625 25.845 19.72125 25.25 19.0625 C23.01937599 17.01776132 21.92563609 16.41794801 19 16 C18.34 16.99 17.68 17.98 17 19 C17.66 19.33 18.32 19.66 19 20 C18.34 20.33 17.68 20.66 17 21 C19.97411124 22.23921302 22.85262818 23.30058404 26 24 C26 25.65 26 27.3 26 29 C21.96678237 27.78065514 18.45730521 26.44045073 15 24 C15 23.34 15 22.68 15 22 C14.43410156 21.76925781 13.86820313 21.53851563 13.28515625 21.30078125 C10.41034158 19.66434829 8.62898122 17.66079606 6.4375 15.1875 C5.67308594 14.33542969 4.90867187 13.48335938 4.12109375 12.60546875 C2.11968113 10.14701162 0.44347376 7.82133507 -1 5 C-0.6875 2.1875 -0.6875 2.1875 0 0 Z " fill="#414242" transform="translate(91,281)"/>
<path d="M0 0 C3.03792821 1.49321895 5.07102738 3.21927323 7 6 C7.9375 9.375 7.9375 9.375 8 12 C-0.97016685 13.63093943 -10.01202562 13.38276529 -19 12 C-19.75 10.375 -19.75 10.375 -20 8 C-15.38632581 -0.54384109 -9.19916762 -1.36906672 0 0 Z " fill="#363837" transform="translate(256,199)"/>
<path d="M0 0 C3.09941521 0.01324536 5.99544386 0.20850514 9 1 C11.3125 3.625 11.3125 3.625 13 7 C13.3815625 7.58652344 13.763125 8.17304688 14.15625 8.77734375 C17.11126755 13.33965126 17.11126755 13.33965126 16.640625 16.1328125 C16.42921875 17.07898438 16.2178125 18.02515625 16 19 C15.72837133 22.09961317 15.58711714 25.20487842 15.4375 28.3125 C15.39431641 29.14845703 15.35113281 29.98441406 15.30664062 30.84570312 C15.20114693 32.89696935 15.10012685 34.9484648 15 37 C12.49113101 33.94730103 11.05586134 30.98568432 9.625 27.3125 C7.74414829 22.63886847 5.63395407 18.33551317 3.015625 14.03515625 C1.55582693 11.1099455 1 8.26005305 1 5 C0.01 4.34 -0.98 3.68 -2 3 C-1.34 2.01 -0.68 1.02 0 0 Z " fill="#444545" transform="translate(168,171)"/>
<path d="M0 0 C3.87456278 0.52865364 5.94721732 1.41437559 8.8125 4.0625 C9.48925781 4.68382813 10.16601562 5.30515625 10.86328125 5.9453125 C14.29518508 9.24546134 17.67339412 12.59376791 21 16 C20.67 16.66 20.34 17.32 20 18 C19.01 17.34 18.02 16.68 17 16 C15.68 17.32 14.36 18.64 13 20 C13.33 20.99 13.66 21.98 14 23 C13.01 23.33 12.02 23.66 11 24 C9.86966702 22.75482035 8.74594964 21.50363348 7.625 20.25 C6.99851562 19.55390625 6.37203125 18.8578125 5.7265625 18.140625 C4 16 4 16 2.91015625 13.796875 C1.56372361 11.1386818 -0.23237728 10.98404363 -3 10 C-5.37374253 8.72940753 -7.6785324 7.36556918 -10 6 C-9.67 5.34 -9.34 4.68 -9 4 C-6.69 4 -4.38 4 -2 4 C-1.34 2.68 -0.68 1.36 0 0 Z " fill="#474948" transform="translate(276,113)"/>
<path d="M0 0 C0.556875 0.391875 1.11375 0.78375 1.6875 1.1875 C1.6875 1.8475 1.6875 2.5075 1.6875 3.1875 C2.6775 2.8575 3.6675 2.5275 4.6875 2.1875 C4.6875 3.1775 4.6875 4.1675 4.6875 5.1875 C4.048125 5.64125 3.40875 6.095 2.75 6.5625 C0.47095298 7.9943452 0.47095298 7.9943452 0.25 10.4375 C-0.45233584 13.87114189 -2.02262455 15.79674442 -4.12109375 18.546875 C-5.42510968 20.21709847 -5.42510968 20.21709847 -6.3125 22.5 C-7.77124854 24.96163816 -9.66346478 25.35096256 -12.3125 26.1875 C-12.9725 24.2075 -13.6325 22.2275 -14.3125 20.1875 C-15.3025 20.5175 -16.2925 20.8475 -17.3125 21.1875 C-16.70551257 17.05998551 -15.27439209 13.8553852 -13.3125 10.1875 C-12.6525 10.1875 -11.9925 10.1875 -11.3125 10.1875 C-10.879375 9.0428125 -10.879375 9.0428125 -10.4375 7.875 C-8.5706643 3.41533694 -5.45687391 -1.91728002 0 0 Z " fill="#414241" transform="translate(115.3125,165.8125)"/>
<path d="M0 0 C2.82482708 1.29012666 4.8825812 2.67713134 7.125 4.8125 C11.27693706 8.49406511 15.97960145 10.71708235 21 13 C16.86577181 19.79194631 16.86577181 19.79194631 13 21 C11.68 21 10.36 21 9 21 C9 20.34 9 19.68 9 19 C8.46375 18.9175 7.9275 18.835 7.375 18.75 C4.12659309 17.72418729 1.71248141 16.03436106 -1 14 C-1 13.34 -1 12.68 -1 12 C-1.66 12 -2.32 12 -3 12 C-3.94721072 9.39517051 -4.30222393 7.69325299 -3.17578125 5.109375 C-2.17063275 3.37417127 -1.0893855 1.68359577 0 0 Z " fill="#545555" transform="translate(325,289)"/>
<path d="M0 0 C1.299375 0.165 2.59875 0.33 3.9375 0.5 C11.77328714 1.35838044 19.1922458 0.99146085 27 0 C26.75445442 5.15645711 25.14177128 7.38187221 21.5703125 10.80078125 C18.00071 13.52682097 14.30229416 13.35852451 10 13 C5.2479332 11.17457142 1.64348167 8.40580278 -1 4 C-0.59375 1.84375 -0.59375 1.84375 0 0 Z " fill="#424342" transform="translate(237,214)"/>
<path d="M0 0 C4.57696219 2.36521517 8.33576481 4.94945396 12.16796875 8.3984375 C11.17796875 8.8934375 11.17796875 8.8934375 10.16796875 9.3984375 C9.83796875 10.0584375 9.50796875 10.7184375 9.16796875 11.3984375 C6.60546875 12.0234375 6.60546875 12.0234375 4.16796875 12.3984375 C4.16796875 13.3884375 4.16796875 14.3784375 4.16796875 15.3984375 C3.56984375 15.0684375 2.97171875 14.7384375 2.35546875 14.3984375 C0.11410404 13.19055762 0.11410404 13.19055762 -2.83203125 13.3984375 C-4.86811945 14.67598304 -6.87312244 16.00543568 -8.83203125 17.3984375 C-9.49203125 17.0684375 -10.15203125 16.7384375 -10.83203125 16.3984375 C-11.12078125 15.4290625 -11.40953125 14.4596875 -11.70703125 13.4609375 C-12.49800784 10.29596413 -12.49800784 10.29596413 -14.90234375 9.20703125 C-15.53914062 8.94019531 -16.1759375 8.67335937 -16.83203125 8.3984375 C-14.89741123 7.08169612 -12.95923428 5.77017952 -11.01953125 4.4609375 C-9.94058594 3.73003906 -8.86164063 2.99914062 -7.75 2.24609375 C-2.76759489 -0.9087625 -2.76759489 -0.9087625 0 0 Z " fill="#575857" transform="translate(264.83203125,154.6015625)"/>
<path d="M0 0 C1.77007714 -0.08114106 3.54122098 -0.13925505 5.3125 -0.1875 C6.29863281 -0.22230469 7.28476562 -0.25710937 8.30078125 -0.29296875 C11 0 11 0 12.85546875 1.32421875 C14.76103134 4.11427456 14 7.68763202 14 11 C12.68 10.67 11.36 10.34 10 10 C9.9071875 11.85625 9.9071875 11.85625 9.8125 13.75 C9.39113175 17.09720697 9.11468905 17.87256772 6.75 20.5 C3.70440223 22.16123515 2.37673923 22.86583057 -1 22 C-2.38123963 20.03277992 -3.71488126 18.03131672 -5 16 C-7.12119128 15.04768403 -7.12119128 15.04768403 -9 15 C-8.67 13.02 -8.34 11.04 -8 9 C-3.74527368 8.87843639 0.14497757 9.07248878 4 11 C4.33 10.67 4.66 10.34 5 10 C4.505 8.8553125 4.505 8.8553125 4 7.6875 C3 5 3 5 3 2 C2.01 2 1.02 2 0 2 C0 1.34 0 0.68 0 0 Z " fill="#2F302F" transform="translate(286,235)"/>
<path d="M0 0 C3.56703705 0.43444682 5.28813991 1.90725491 7.75 4.4375 C8.67039062 5.36369141 8.67039062 5.36369141 9.609375 6.30859375 C11 8 11 8 11 10 C11.66 10 12.32 10 13 10 C14.5078125 11.75 14.5078125 11.75 16.125 14 C16.66382813 14.7425 17.20265625 15.485 17.7578125 16.25 C18.16773438 16.8275 18.57765625 17.405 19 18 C17.74458443 20.51083114 16.49936512 20.87125446 14 22 C14 21.34 14 20.68 14 20 C11.52733235 20.34444881 11.52733235 20.34444881 9 21 C8.67 21.66 8.34 22.32 8 23 C6.66072279 21.54712339 5.32873153 20.08752741 4 18.625 C3.2575 17.81289062 2.515 17.00078125 1.75 16.1640625 C0 14 0 14 0 12 C-0.639375 11.71125 -1.27875 11.4225 -1.9375 11.125 C-4 10 -4 10 -5 8 C-3.35 7.01 -1.7 6.02 0 5 C-0.2784375 4.0409375 -0.2784375 4.0409375 -0.5625 3.0625 C-0.706875 2.381875 -0.85125 1.70125 -1 1 C-0.67 0.67 -0.34 0.34 0 0 Z M2 2 C1.67 2.99 1.34 3.98 1 5 C1.66 5 2.32 5 3 5 C2.67 4.01 2.34 3.02 2 2 Z " fill="#4B4D4C" transform="translate(379,158)"/>
<path d="M0 0 C0 3.51716303 -0.82445585 4.37121748 -3 7 C-1.68 6.34 -0.36 5.68 1 5 C5 9.75 5 9.75 5 12 C3.25998065 13.55961601 1.45696803 15.04949575 -0.375 16.5 C-4.31482541 19.60759138 -4.31482541 19.60759138 -8 23 C-12.65620796 23.51735644 -15.19819614 22.68362626 -19 20 C-17.68 19.67 -16.36 19.34 -15 19 C-15.99 18.34 -16.98 17.68 -18 17 C-17.34 17 -16.68 17 -16 17 C-16 16.34 -16 15.68 -16 15 C-14.68 14.67 -13.36 14.34 -12 14 C-13.65 12.35 -15.3 10.7 -17 9 C-14.69 9.66 -12.38 10.32 -10 11 C-10 10.34 -10 9.68 -10 9 C-8.3203125 7.34375 -8.3203125 7.34375 -6.125 5.5 C-4.00964496 3.71066742 -1.95980876 1.95980876 0 0 Z " fill="#575857" transform="translate(260,244)"/>
<path d="M0 0 C0.33 0.99 0.66 1.98 1 3 C1.99 4.485 1.99 4.485 3 6 C3 6.99 3 7.98 3 9 C2.67 9 2.34 9 2 9 C1.7834375 10.2684375 1.7834375 10.2684375 1.5625 11.5625 C-0.72900108 16.60380237 -4.27769204 19.22217179 -9 22 C-11.97226009 23.08584115 -14.83286941 23.83929993 -18 24 C-18.66 23.67 -19.32 23.34 -20 23 C-19.625 20.5625 -19.625 20.5625 -19 18 C-18.34 17.67 -17.68 17.34 -17 17 C-15.95191959 15.02477154 -14.9479589 13.02518491 -14 11 C-13.34 11 -12.68 11 -12 11 C-12 10.34 -12 9.68 -12 9 C-10 10 -10 10 -9 12 C-8.43410156 11.21753906 -7.86820312 10.43507813 -7.28515625 9.62890625 C-6.55167969 8.61699219 -5.81820313 7.60507812 -5.0625 6.5625 C-4.33160156 5.55316406 -3.60070312 4.54382813 -2.84765625 3.50390625 C-1 1 -1 1 0 0 Z " fill="#3D3F3E" transform="translate(299,300)"/>
<path d="M0 0 C0.66 0 1.32 0 2 0 C4.79495672 3.43994673 5.58964785 6.5663143 5.421875 11.00390625 C4.51398999 15.29954734 1.53259329 17.82501181 -1.875 20.4375 C-5.90461243 21.50416211 -9.68245074 20.57431635 -13.4375 18.9375 C-13.953125 18.628125 -14.46875 18.31875 -15 18 C-14.34 17.67 -13.68 17.34 -13 17 C-13 16.34 -13 15.68 -13 15 C-12.34 15 -11.68 15 -11 15 C-10.67 13.35 -10.34 11.7 -10 10 C-8.68 10.33 -7.36 10.66 -6 11 C-5.67 9.35 -5.34 7.7 -5 6 C-6.32 5.67 -7.64 5.34 -9 5 C-6.36 4.67 -3.72 4.34 -1 4 C-0.67 2.68 -0.34 1.36 0 0 Z " fill="#535454" transform="translate(285,371)"/>
<path d="M0 0 C0.66 0.66 1.32 1.32 2 2 C2.7425 1.62875 3.485 1.2575 4.25 0.875 C7 0 7 0 9.3125 0.875 C9.869375 1.24625 10.42625 1.6175 11 2 C11 2.99 11 3.98 11 5 C10.34 5 9.68 5 9 5 C8.855625 5.61875 8.71125 6.2375 8.5625 6.875 C8 9 8 9 7 11 C6.34 11 5.68 11 5 11 C4.773125 11.53625 4.54625 12.0725 4.3125 12.625 C2.56617944 15.78500863 0.3597151 18.2676983 -2 21 C-2.625 19.125 -2.625 19.125 -3 17 C-2.34 16.34 -1.68 15.68 -1 15 C-1.66 14.67 -2.32 14.34 -3 14 C-3.625 11.4375 -3.625 11.4375 -4 9 C-7.62542917 13.12896099 -10.38888348 17.16459904 -13 22 C-13.66 20.68 -14.32 19.36 -15 18 C-14.5875 17.53851563 -14.175 17.07703125 -13.75 16.6015625 C-8.97856717 11.21239952 -4.45777351 5.65037266 0 0 Z " fill="#585958" transform="translate(303,292)"/>
<path d="M0 0 C3.58403174 1.19467725 4.02118955 2.13749606 6 5.25 C6.52464844 6.0646875 7.04929688 6.879375 7.58984375 7.71875 C8.61407527 9.37567855 9.60020031 11.05635254 10.5625 12.75 C12.36301355 15.56819511 14.57790911 17.70883295 17 20 C14.03 21.32 11.06 22.64 8 24 C8 23.34 8 22.68 8 22 C7.38125 21.9175 6.7625 21.835 6.125 21.75 C4 21 4 21 2.75 19.25 C1.90670847 16.72012542 2 14.64848889 2 12 C1.34 11.34 0.68 10.68 0 10 C-0.66 10.66 -1.32 11.32 -2 12 C-2 11.34 -2 10.68 -2 10 C-2.66 9.67 -3.32 9.34 -4 9 C-3.34 9 -2.68 9 -2 9 C-2.33 7.68 -2.66 6.36 -3 5 C-2.34 5 -1.68 5 -1 5 C-1.33 3.68 -1.66 2.36 -2 1 C-1.34 0.67 -0.68 0.34 0 0 Z " fill="#393A3A" transform="translate(188,225)"/>
<path d="M0 0 C0 0.33 0 0.66 0 1 C-1.98 1.33 -3.96 1.66 -6 2 C-6.78670551 4.25760857 -6.78670551 4.25760857 -7 7 C-6.01 8.65 -5.02 10.3 -4 12 C-7.96 14.64 -11.92 17.28 -16 20 C-16.66 19.67 -17.32 19.34 -18 19 C-18.625 16.4375 -18.625 16.4375 -19 14 C-20.65 13.67 -22.3 13.34 -24 13 C-24.33 13.66 -24.66 14.32 -25 15 C-26.32 14.34 -27.64 13.68 -29 13 C-28.42419189 12.89115479 -27.84838379 12.78230957 -27.25512695 12.67016602 C-24.70560167 11.91251235 -23.07041955 10.8324372 -20.91796875 9.27734375 C-20.15033203 8.73916016 -19.38269531 8.20097656 -18.59179688 7.64648438 C-16.99485229 6.51136942 -15.40362176 5.36817047 -13.81835938 4.21679688 C-8.93888108 0.82113654 -5.9746628 -0.75780102 0 0 Z " fill="#505151" transform="translate(225,156)"/>
<path d="M0 0 C11.22 0 22.44 0 34 0 C34 1.65 34 3.3 34 5 C29.19451403 5.04936883 24.38917506 5.08570443 19.58349609 5.10986328 C17.94805328 5.11993254 16.31262851 5.13358881 14.67724609 5.15087891 C12.3290563 5.17508705 9.98110412 5.18647357 7.6328125 5.1953125 C6.53273361 5.21079636 6.53273361 5.21079636 5.41043091 5.22659302 C3.60537303 5.22699368 1.8009217 5.12212755 0 5 C-0.66 4.34 -1.32 3.68 -2 3 C-1.34 2.34 -0.68 1.68 0 1 C0 0.67 0 0.34 0 0 Z " fill="#232524" transform="translate(234,378)"/>
<path d="M0 0 C0.33 0 0.66 0 1 0 C0.56744475 5.40694067 -0.58221513 8.75366122 -4 13 C-4.66 13 -5.32 13 -6 13 C-6.66 14.65 -7.32 16.3 -8 18 C-8.99 18 -9.98 18 -11 18 C-13.33564933 18.31669821 -15.6693782 18.64820803 -18 19 C-18 20.32 -18 21.64 -18 23 C-18.66 23 -19.32 23 -20 23 C-20 22.34 -20 21.68 -20 21 C-20.66 21 -21.32 21 -22 21 C-22 20.34 -22 19.68 -22 19 C-22.66 19 -23.32 19 -24 19 C-24.33 18.01 -24.66 17.02 -25 16 C-24.01 16.33 -23.02 16.66 -22 17 C-19.63477442 16.07796291 -17.29598193 15.08301035 -15 14 C-17.31 11.69 -19.62 9.38 -22 7 C-21.67 6.34 -21.34 5.68 -21 5 C-19.68 6.32 -18.36 7.64 -17 9 C-14.33264727 6.51047079 -12.44253657 4.36591866 -11 1 C-10.67 1.99 -10.34 2.98 -10 4 C-9.01 4.66 -8.02 5.32 -7 6 C-7.33 6.66 -7.66 7.32 -8 8 C-9.32 7.67 -10.64 7.34 -12 7 C-14.18490007 9.67642489 -14.18490007 9.67642489 -14 12 C-12.35 11.67 -10.7 11.34 -9 11 C-9 10.34 -9 9.68 -9 9 C-7.01310269 7.64721885 -5.01254782 6.31431695 -3 5 C-2.67 4.34 -2.34 3.68 -2 3 C-1.34 3 -0.68 3 0 3 C0 2.01 0 1.02 0 0 Z " fill="#606161" transform="translate(219,231)"/>
<path d="M0 0 C6.06204156 0.67356017 9.92816931 3.6473534 14 8 C14.66 8.66 15.32 9.32 16 10 C14.35 10.33 12.7 10.66 11 11 C11 11.66 11 12.32 11 13 C11.99 13.66 12.98 14.32 14 15 C13.34 15.66 12.68 16.32 12 17 C12 16.34 12 15.68 12 15 C10.700625 15.12375 10.700625 15.12375 9.375 15.25 C5.12985332 14.93554469 3.23665399 13.72173176 0 11 C-1.375 8.25 -1.375 8.25 -2 6 C-1.34 6 -0.68 6 0 6 C0 5.34 0 4.68 0 4 C-0.99 4.33 -1.98 4.66 -3 5 C-3.33 4.34 -3.66 3.68 -4 3 C-3.34 3 -2.68 3 -2 3 C-1.67 2.34 -1.34 1.68 -1 1 C-0.67 0.67 -0.34 0.34 0 0 Z " fill="#464646" transform="translate(233,248)"/>
<path d="M0 0 C0.66 0.33 1.32 0.66 2 1 C0.515 2.485 0.515 2.485 -1 4 C0.32 4.66 1.64 5.32 3 6 C3.66 5.34 4.32 4.68 5 4 C5.33 4.99 5.66 5.98 6 7 C6.99 7 7.98 7 9 7 C9 6.34 9 5.68 9 5 C9.99 5.33 10.98 5.66 12 6 C11.34 6.495 10.68 6.99 10 7.5 C4.11382464 12.40514613 -0.93658631 17.4985381 -5 24 C-5.33 24 -5.66 24 -6 24 C-6.2954439 18.97745369 -5.98514628 16.10457614 -3 12 C-3.99 12 -4.98 12 -6 12 C-7.32 12 -8.64 12 -10 12 C-8.52278578 8.54798361 -6.56205999 6.35038064 -3.875 3.75 C-3.15054687 3.04359375 -2.42609375 2.3371875 -1.6796875 1.609375 C-1.12539063 1.07828125 -0.57109375 0.5471875 0 0 Z " fill="#666767" transform="translate(336,158)"/>
<path d="M0 0 C3.40524375 0.68104875 4.52547983 1.6479153 6.5 4.5 C7 8.0625 7 8.0625 6.5 11.5 C4.9375 13.5 4.9375 13.5 2.5 14.5 C-1.125 14.375 -1.125 14.375 -4.5 13.5 C-6.82749345 10.00875983 -7.00299316 8.60777749 -6.5 4.5 C-4.51677007 1.7087875 -3.37013879 0.67402776 0 0 Z " fill="#383A39" transform="translate(227.5,185.5)"/>
<path d="M0 0 C3 2 3 2 3.8125 4.875 C4.00583978 8.09732959 3.83094313 9.39813344 2 12 C-0.77100394 13.38550197 -2.9334706 13.1877467 -6 13 C-9 11 -9 11 -9.43359375 8.94140625 C-9.44407356 2.55920374 -9.44407356 2.55920374 -7.3125 -0.125 C-4.39122509 -1.23034726 -2.94224312 -0.98074771 0 0 Z " fill="#4F4F4F" transform="translate(275,187)"/>
<path d="M0 0 C2.27057377 -0.05398987 4.54151288 -0.09278742 6.8125 -0.125 C8.07707031 -0.14820313 9.34164062 -0.17140625 10.64453125 -0.1953125 C14 0 14 0 17 2 C17.70125 2.165 18.4025 2.33 19.125 2.5 C19.74375 2.665 20.3625 2.83 21 3 C21.33 3.66 21.66 4.32 22 5 C21.071875 5.12375 21.071875 5.12375 20.125 5.25 C17.81418662 5.80115872 17.81418662 5.80115872 16.8671875 8.046875 C16.43792969 9.01367188 16.43792969 9.01367188 16 10 C13.72651983 9.79878049 11.45607561 9.56303165 9.1875 9.3125 C7.92292969 9.18488281 6.65835938 9.05726563 5.35546875 8.92578125 C2 8 2 8 -0.01171875 5.60546875 C-1 3 -1 3 0 0 Z " fill="#282A29" transform="translate(135,152)"/>
<path d="M0 0 C-0.14230808 1.41702513 -0.28900746 2.8336096 -0.4375 4.25 C-0.51871094 5.03890625 -0.59992188 5.8278125 -0.68359375 6.640625 C-0.97646296 8.8244892 -1.45789357 10.86801841 -2 13 C-2 13.66 -2 14.32 -2 15 C-2.99 15.33 -3.98 15.66 -5 16 C-5.99 15.34 -6.98 14.68 -8 14 C-8.33 14.66 -8.66 15.32 -9 16 C-9.66 16 -10.32 16 -11 16 C-11 16.99 -11 17.98 -11 19 C-12.32 18.34 -13.64 17.68 -15 17 C-14.32902328 12.80639551 -12.1441606 9.59665648 -10 6 C-9.34 6 -8.68 6 -8 6 C-8 5.34 -8 4.68 -8 4 C-3.64705882 0 -3.64705882 0 0 0 Z " fill="#404241" transform="translate(220,115)"/>
<path d="M0 0 C2.0625 1.6875 2.0625 1.6875 4 4 C3.72057545 5.67654729 3.37057911 7.34121731 3 9 C2.72750149 12.09953484 2.58711708 15.20487974 2.4375 18.3125 C2.39431641 19.14845703 2.35113281 19.98441406 2.30664062 20.84570312 C2.20114693 22.89696935 2.10012685 24.9484648 2 27 C-0.55078204 23.86983678 -2.20755571 20.70015975 -3.8125 17 C-4.27269531 15.96875 -4.73289063 14.9375 -5.20703125 13.875 C-6 11 -6 11 -5.26953125 8.859375 C-4.64111328 7.93898437 -4.64111328 7.93898437 -4 7 C-3.64679688 6.36578125 -3.29359375 5.7315625 -2.9296875 5.078125 C-1.953125 3.38541667 -0.9765625 1.69270833 0 0 Z " fill="#565756" transform="translate(181,181)"/>
<path d="M0 0 C4.63284113 2.07679085 6.45543641 3.91087283 8.75 8.5 C10 12 10 12 9 15 C7.37667033 16.38576923 5.71275535 17.72641268 4 19 C4.309375 18.236875 4.61875 17.47375 4.9375 16.6875 C5.67893593 14.81210323 6.36228217 12.91315348 7 11 C6.34 10.34 5.68 9.68 5 9 C4.01 9.66 3.02 10.32 2 11 C2 11.66 2 12.32 2 13 C0.5 14.625 0.5 14.625 -1 16 C-1.67528223 14.42032193 -2.33989694 12.83608097 -3 11.25 C-3.37125 10.36828125 -3.7425 9.4865625 -4.125 8.578125 C-5 6 -5 6 -5 2 C-3.68 2 -2.36 2 -1 2 C-0.67 1.34 -0.34 0.68 0 0 Z " fill="#434544" transform="translate(401,191)"/>
<path d="M0 0 C3.40312738 1.05875074 6.01353231 2.00902154 9 4 C9 4.66 9 5.32 9 6 C9.99 6.33 10.98 6.66 12 7 C9.36095629 8.41377341 6.92879371 9.37240135 4 10 C4.66 11.98 5.32 13.96 6 16 C2.41873228 14.34710721 -0.74410707 12.21677817 -4 10 C-4.99 9.34 -5.98 8.68 -7 8 C-6.34 7.38125 -5.68 6.7625 -5 6.125 C-2.7715451 4.24362573 -2.7715451 4.24362573 -3 2 C-1.68 2 -0.36 2 1 2 C0.67 1.34 0.34 0.68 0 0 Z " fill="#575857" transform="translate(155,154)"/>
<path d="M0 0 C1 2 1 2 0.5 4.9375 C-0.24846895 8.02952435 -0.24846895 8.02952435 1 11 C-1.26399153 13.69937452 -2.63117696 14.89462199 -6.0625 15.875 C-9 16 -9 16 -12 14 C-12.6875 10.875 -12.6875 10.875 -13 8 C-11.02253397 7.26919734 -9.01927511 6.60578253 -7 6 C-6.34 6.33 -5.68 6.66 -5 7 C-4.9175 6.401875 -4.835 5.80375 -4.75 5.1875 C-3.79544128 2.4033704 -2.42867729 1.56688858 0 0 Z " fill="#262827" transform="translate(390,294)"/>
<path d="M0 0 C0.33 0 0.66 0 1 0 C0.98839844 0.84304687 0.97679687 1.68609375 0.96484375 2.5546875 C0.95582031 3.65039062 0.94679688 4.74609375 0.9375 5.875 C0.92589844 6.96554687 0.91429687 8.05609375 0.90234375 9.1796875 C0.80255697 11.95177546 0.80255697 11.95177546 2 14 C2.66 14 3.32 14 4 14 C3.67 16.64 3.34 19.28 3 22 C3.99 22 4.98 22 6 22 C6 23.32 6 24.64 6 26 C2.2983569 26.94693195 0.60887535 27.30443767 -2.875 25.5625 C-3.57625 25.046875 -4.2775 24.53125 -5 24 C-5 24.99 -5 25.98 -5 27 C-5.99 27.33 -6.98 27.66 -8 28 C-7.71125 27.27941406 -7.4225 26.55882812 -7.125 25.81640625 C-6.75375 24.88699219 -6.3825 23.95757812 -6 23 C-5.67 22.18402344 -5.34 21.36804688 -5 20.52734375 C-2.38830777 13.76346894 -0.95230792 7.17990048 0 0 Z " fill="#5B5D5C" transform="translate(407,255)"/>
<path d="M0 0 C2.24243223 2.86103423 3 4.34076304 3 8 C1.125 9.0625 1.125 9.0625 -1 10 C-1.66 9.67 -2.32 9.34 -3 9 C-3 9.66 -3 10.32 -3 11 C-3.99 11 -4.98 11 -6 11 C-6.33 10.34 -6.66 9.68 -7 9 C-7.66 9.66 -8.32 10.32 -9 11 C-11.475 10.01 -11.475 10.01 -14 9 C-7.27629802 -1.30600221 -7.27629802 -1.30600221 0 0 Z " fill="#3D3F3E" transform="translate(348,154)"/>
<path d="M0 0 C2.0625 0.4375 2.0625 0.4375 4 1 C4 1.66 4 2.32 4 3 C4.85851562 3.41378906 4.85851562 3.41378906 5.734375 3.8359375 C7.98964267 4.99467848 10.10856378 6.26875706 12.25 7.625 C12.95640625 8.07101562 13.6628125 8.51703125 14.390625 8.9765625 C14.92171875 9.31429688 15.4528125 9.65203125 16 10 C15.01 10.66 14.02 11.32 13 12 C12.4225 11.360625 11.845 10.72125 11.25 10.0625 C9.01937599 8.01776132 7.92563609 7.41794801 5 7 C4.01 8.485 4.01 8.485 3 10 C3.66 10.33 4.32 10.66 5 11 C4.01 11.495 4.01 11.495 3 12 C5.97411124 13.23921302 8.85262818 14.30058404 12 15 C12 16.65 12 18.3 12 20 C7.96678237 18.78065514 4.45730521 17.44045073 1 15 C1 14.34 1 13.68 1 13 C0.01 12.67 -0.98 12.34 -2 12 C-1.649375 10.9275 -1.29875 9.855 -0.9375 8.75 C-0.075965 5.30385999 0.10117041 4.18115896 -1 1 C-0.67 0.67 -0.34 0.34 0 0 Z " fill="#5C5D5C" transform="translate(105,290)"/>
<path d="M0 0 C0.66 0.33 1.32 0.66 2 1 C0.25 4.875 0.25 4.875 -2 6 C-1.67 7.32 -1.34 8.64 -1 10 C2.465 9.505 2.465 9.505 6 9 C3.62999752 11.65845673 1.18015846 13.11161791 -2 14.6875 C-3.299375 15.34298828 -3.299375 15.34298828 -4.625 16.01171875 C-7 17 -7 17 -10 17 C-10 16.34 -10 15.68 -10 15 C-8.68 15 -7.36 15 -6 15 C-6 14.34 -6 13.68 -6 13 C-6.99 13 -7.98 13 -9 13 C-9 12.34 -9 11.68 -9 11 C-9.66 11 -10.32 11 -11 11 C-10.67 9.68 -10.34 8.36 -10 7 C-10.66 6.67 -11.32 6.34 -12 6 C-9.09399739 4.74335022 -7.20395416 4 -4 4 C-4 3.34 -4 2.68 -4 2 C-2.125 0.9375 -2.125 0.9375 0 0 Z " fill="#505251" transform="translate(282,313)"/>
<path d="M0 0 C4.2742558 1.5830577 6.26531794 4.50568404 9 8 C8.360625 8.598125 7.72125 9.19625 7.0625 9.8125 C4.79689611 11.90810337 4.79689611 11.90810337 4 15 C4.33 15.66 4.66 16.32 5 17 C3 16 1 15 -1 14 C-1 13.34 -1 12.68 -1 12 C-1.66 12 -2.32 12 -3 12 C-3.94721072 9.39517051 -4.30222393 7.69325299 -3.17578125 5.109375 C-2.17063275 3.37417127 -1.0893855 1.68359577 0 0 Z " fill="#5E5E5E" transform="translate(325,289)"/>
<path d="M0 0 C0.66 0.33 1.32 0.66 2 1 C2.78734859 10.99057873 2.78734859 10.99057873 -0.4375 15.125 C-1.283125 15.74375 -2.12875 16.3625 -3 17 C-3.33 17.33 -3.66 17.66 -4 18 C-5.74812173 18.13198906 -7.49881855 18.23055969 -9.25 18.3125 C-13.99833891 18.68298158 -16.63783791 19.40596467 -20 23 C-18.84826645 20.53199953 -17.95216435 18.95216435 -16 17 C-13.34462628 16.43479997 -10.70855287 16.26211802 -8 16 C-7.34 14.02 -6.68 12.04 -6 10 C-6.33 9.67 -6.66 9.34 -7 9 C-7.04063832 7.33382885 -7.042721 5.66611905 -7 4 C-6.34 4.66 -5.68 5.32 -5 6 C-4.01 5.01 -3.02 4.02 -2 3 C-1.34 3.66 -0.68 4.32 0 5 C0 3.35 0 1.7 0 0 Z " fill="#6D6E6D" transform="translate(260,347)"/>
<path d="M0 0 C2 1 2 1 3 3 C3.99 2.34 4.98 1.68 6 1 C6 2.65 6 4.3 6 6 C5.34 6 4.68 6 4 6 C3.79375 6.928125 3.5875 7.85625 3.375 8.8125 C2 12 2 12 -0.875 13.9375 C-3.94329632 14.98072075 -5.08060281 15.23512958 -8 14 C-7.625 11.5625 -7.625 11.5625 -7 9 C-6.34 8.67 -5.68 8.34 -5 8 C-3.95191959 6.02477154 -2.9479589 4.02518491 -2 2 C-1.34 2 -0.68 2 0 2 C0 1.34 0 0.68 0 0 Z " fill="#323434" transform="translate(287,309)"/>
<path d="M0 0 C0 0.66 0 1.32 0 2 C-1.32 2.33 -2.64 2.66 -4 3 C-4 3.66 -4 4.32 -4 5 C-5.4609375 6.5078125 -5.4609375 6.5078125 -7.375 8.125 C-8.31472656 8.93324219 -8.31472656 8.93324219 -9.2734375 9.7578125 C-11 11 -11 11 -13 11 C-13 11.66 -13 12.32 -13 13 C-14.98 13.99 -14.98 13.99 -17 15 C-17 12.69 -17 10.38 -17 8 C-16.34 7.67 -15.68 7.34 -15 7 C-15 7.66 -15 8.32 -15 9 C-14.34 8.67 -13.68 8.34 -13 8 C-12.34786708 5.97536745 -12.34786708 5.97536745 -12 4 C-12.66 3.67 -13.32 3.34 -14 3 C-14 2.34 -14 1.68 -14 1 C-9.23213879 -1.82539923 -5.24492202 -1.19883932 0 0 Z " fill="#4E4F4E" transform="translate(312,237)"/>
<path d="M0 0 C3.80635497 3.20760251 7.54563567 6.40746109 11 10 C10.67 10.66 10.34 11.32 10 12 C9.01 11.34 8.02 10.68 7 10 C5.68 11.32 4.36 12.64 3 14 C3.33 14.99 3.66 15.98 4 17 C3.01 17.33 2.02 17.66 1 18 C-0.94452292 15.79446729 -2.66482613 13.62829503 -4 11 C-3.5 7.625 -3.5 7.625 -2 5 C-1.01 4.67 -0.02 4.34 1 4 C0.67 2.68 0.34 1.36 0 0 Z " fill="#535454" transform="translate(286,119)"/>
<path d="M0 0 C0 0.99 0 1.98 0 3 C0.3185177 5.10820797 0.3185177 5.10820797 1 7 C1.66 7.33 2.32 7.66 3 8 C3 7.01 3 6.02 3 5 C3.66 5 4.32 5 5 5 C5.66 3.68 6.32 2.36 7 1 C8.5 2.3125 8.5 2.3125 10 4 C10 7.52599722 9.46519566 7.97292161 7.1875 10.5 C6.40439453 11.38171875 6.40439453 11.38171875 5.60546875 12.28125 C4.1027361 13.89001488 2.56826546 15.45528207 1 17 C1 16.01 1 15.02 1 14 C0.34 14 -0.32 14 -1 14 C-0.67 12.35 -0.34 10.7 0 9 C-1.65 9.33 -3.3 9.66 -5 10 C-4.49701212 5.59885603 -2.91227269 3.28804981 0 0 Z " fill="#515352" transform="translate(206,126)"/>
<path d="M0 0 C0.66 0.33 1.32 0.66 2 1 C1.01 2.32 0.02 3.64 -1 5 C-0.01 6.485 -0.01 6.485 1 8 C0.34 9.32 -0.32 10.64 -1 12 C0.65 12 2.3 12 4 12 C1.096309 14.44998929 -1.9068208 16.70084924 -5.0625 18.8125 C-5.71347656 19.25207031 -6.36445313 19.69164062 -7.03515625 20.14453125 C-9.45033111 21.19606862 -10.56932648 20.88240486 -13 20 C-12.01 19.67 -11.02 19.34 -10 19 C-10.33 18.01 -10.66 17.02 -11 16 C-10.34 15.67 -9.68 15.34 -9 15 C-7.86649466 12.98330173 -7.86649466 12.98330173 -7 11 C-6.01 11 -5.02 11 -4 11 C-3.67 9.35 -3.34 7.7 -3 6 C-3.66 5.67 -4.32 5.34 -5 5 C-3.35 3.35 -1.7 1.7 0 0 Z " fill="#5E605F" transform="translate(171,291)"/>
<path d="M0 0 C2.30948559 2.30948559 2.57160823 3.63094958 3.375 6.75 C4.6325493 11.19978982 6.20592592 14.33879948 9 18 C8.67 18.66 8.34 19.32 8 20 C7.4225 19.505 6.845 19.01 6.25 18.5 C3.89599371 16.63019987 3.89599371 16.63019987 0 17 C0 16.34 0 15.68 0 15 C-3.0745356 15.7763932 -3.0745356 15.7763932 -5 18 C-6.5625 15.1875 -6.5625 15.1875 -8 12 C-7.67 11.01 -7.34 10.02 -7 9 C-6.34 9.66 -5.68 10.32 -5 11 C-2.47411298 8.63707344 -1.11179163 7.33537489 0 4 C0 2.68 0 1.36 0 0 Z " fill="#686968" transform="translate(94,266)"/>
<path d="M0 0 C5.37722282 2.50318993 9.59391956 5.03452761 14 9 C13.01 9.495 13.01 9.495 12 10 C11.67 10.66 11.34 11.32 11 12 C8.4375 12.625 8.4375 12.625 6 13 C6 13.99 6 14.98 6 16 C5.401875 15.690625 4.80375 15.38125 4.1875 15.0625 C1.91043228 13.89790296 1.91043228 13.89790296 -1 13 C-1.33 12.01 -1.66 11.02 -2 10 C-0.35 9.67 1.3 9.34 3 9 C2.814375 8.38125 2.62875 7.7625 2.4375 7.125 C2 5 2 5 3 3 C0.03 2.505 0.03 2.505 -3 2 C-2.01 1.34 -1.02 0.68 0 0 Z " fill="#4D4E4D" transform="translate(263,154)"/>
<path d="M0 0 C6.52307692 -0.36923077 6.52307692 -0.36923077 8.9375 1.5 C9.288125 1.995 9.63875 2.49 10 3 C9.34 3.66 8.68 4.32 8 5 C8.32326553 8.59679066 8.32326553 8.59679066 9 12 C4.67409946 12 3.39415013 11.50095273 0 9 C-1.4375 7.125 -1.4375 7.125 -2 5 C-1.125 2.25 -1.125 2.25 0 0 Z " fill="#383A39" transform="translate(219,157)"/>
<path d="M0 0 C1.22589844 0.01353516 1.22589844 0.01353516 2.4765625 0.02734375 C3.41628906 0.04474609 3.41628906 0.04474609 4.375 0.0625 C4.705 1.3825 5.035 2.7025 5.375 4.0625 C4.715 4.0625 4.055 4.0625 3.375 4.0625 C3.1275 4.660625 2.88 5.25875 2.625 5.875 C1.20496735 8.36005714 -0.31496751 9.42312211 -2.625 11.0625 C-2.955 11.7225 -3.285 12.3825 -3.625 13.0625 C-4.285 12.7325 -4.945 12.4025 -5.625 12.0625 C-5.955 12.7225 -6.285 13.3825 -6.625 14.0625 C-7.615 13.0725 -8.605 12.0825 -9.625 11.0625 C-8.33534824 9.68687146 -6.99810707 8.35483607 -5.625 7.0625 C-4.965 7.0625 -4.305 7.0625 -3.625 7.0625 C-4.285 6.4025 -4.945 5.7425 -5.625 5.0625 C-6.25 2.9375 -6.25 2.9375 -6.625 1.0625 C-4.21954362 -0.14022819 -2.67503047 -0.03821472 0 0 Z " fill="#262726" transform="translate(213.625,229.9375)"/>
<path d="M0 0 C5.32227738 0.78525404 5.32227738 0.78525404 8 2 C10.06596823 5.55088289 11 7.89538592 11 12 C9 14 9 14 6.1875 14.3125 C2.67774407 13.96840628 0.85135899 13.01272399 -2 11 C-0.68 10.67 0.64 10.34 2 10 C1.01 9.34 0.02 8.68 -1 8 C-0.34 8 0.32 8 1 8 C1 7.34 1 6.68 1 6 C2.32 5.67 3.64 5.34 5 5 C3.35 3.35 1.7 1.7 0 0 Z " fill="#5A5B5A" transform="translate(243,253)"/>
<path d="M0 0 C3.9252025 3.70090521 6.94580156 7.54959656 10 12 C8.68 12.33 7.36 12.66 6 13 C6 12.34 6 11.68 6 11 C5.071875 11.680625 4.14375 12.36125 3.1875 13.0625 C2.135625 13.701875 1.08375 14.34125 0 15 C-0.99 14.67 -1.98 14.34 -3 14 C-3 13.34 -3 12.68 -3 12 C-3.66 12 -4.32 12 -5 12 C-5.66 10.68 -6.32 9.36 -7 8 C-6.01 7.34 -5.02 6.68 -4 6 C-3.01 7.485 -3.01 7.485 -2 9 C-0.68 7.68 0.64 6.36 2 5 C1.34 3.35 0.68 1.7 0 0 Z " fill="#565757" transform="translate(189,294)"/>
<path d="M0 0 C4.49797113 1.68673918 8.72886302 3.81673892 13 6 C10.14521674 7.90318884 8.58058692 8.4619099 5.3125 9.125 C4.50425781 9.29257812 3.69601563 9.46015625 2.86328125 9.6328125 C2.24839844 9.75398438 1.63351563 9.87515625 1 10 C1 10.66 1 11.32 1 12 C-1.02045442 11.39816251 -3.02111039 10.72693904 -5 10 C-5.33 9.34 -5.66 8.68 -6 8 C-4.35 7.67 -2.7 7.34 -1 7 C-0.67 5.68 -0.34 4.36 0 3 C-0.66 2.67 -1.32 2.34 -2 2 C-1.34 1.34 -0.68 0.68 0 0 Z " fill="#565656" transform="translate(208,313)"/>
<path d="M0 0 C0.66 0.33 1.32 0.66 2 1 C2 1.66 2 2.32 2 3 C2.99 3.33 3.98 3.66 5 4 C5 4.66 5 5.32 5 6 C6.65 6.33 8.3 6.66 10 7 C6.50640535 10.59634744 2.88901869 13.83451967 -1 17 C-1.33 16.01 -1.66 15.02 -2 14 C-0.35 13.01 1.3 12.02 3 11 C2.01 10.67 1.02 10.34 0 10 C-0.66 9.01 -1.32 8.02 -2 7 C-3.65 7.66 -5.3 8.32 -7 9 C-5.44499019 5.18315774 -2.96404505 2.80804268 0 0 Z " fill="#686968" transform="translate(117,159)"/>
<path d="M0 0 C4.69643868 1.1050444 6.91018543 3.67312463 9.578125 7.46875 C14.15691222 15.61999758 15.63001797 24.7689483 16 34 C15.34 34 14.68 34 14 34 C13.82984375 33.03320312 13.6596875 32.06640625 13.484375 31.0703125 C11.02605772 15.72676637 11.02605772 15.72676637 1.390625 4.25390625 C0.70226562 3.63322266 0.70226562 3.63322266 0 3 C0 2.01 0 1.02 0 0 Z " fill="#C5C5C5" transform="translate(318,214)"/>
<path d="M0 0 C3.3125 -0.3125 3.3125 -0.3125 7 0 C9.81873757 2.90966459 10.15979168 5.41255374 10.1875 9.3125 C10.125625 10.529375 10.06375 11.74625 10 13 C9.525625 12.360625 9.05125 11.72125 8.5625 11.0625 C7.16261274 9.11706694 7.16261274 9.11706694 6 8 C5.34 8.66 4.68 9.32 4 10 C3.34 9.01 2.68 8.02 2 7 C-0.56282742 6.27034634 -0.56282742 6.27034634 -3 6 C-2.34 5.67 -1.68 5.34 -1 5 C-1.33 4.01 -1.66 3.02 -2 2 C-1.34 2 -0.68 2 0 2 C0 1.34 0 0.68 0 0 Z " fill="#252726" transform="translate(251,344)"/>
<path d="M0 0 C1.07765625 0.01804688 2.1553125 0.03609375 3.265625 0.0546875 C4.49539062 0.08949219 4.49539062 0.08949219 5.75 0.125 C5.75 1.115 5.75 2.105 5.75 3.125 C5.42 2.465 5.09 1.805 4.75 1.125 C3.76 2.61 3.76 2.61 2.75 4.125 C1.08333333 4.79166667 -0.58333333 5.45833333 -2.25 6.125 C-3.24 7.61 -3.24 7.61 -4.25 9.125 C-5.57 9.125 -6.89 9.125 -8.25 9.125 C-8.394375 8.34125 -8.53875 7.5575 -8.6875 6.75 C-9.12798925 4.16078982 -9.12798925 4.16078982 -10.25 2.125 C-6.7733662 -0.01836161 -4.03770805 -0.08777626 0 0 Z " fill="#434544" transform="translate(250.25,198.875)"/>
<path d="M0 0 C0.66 0.66 1.32 1.32 2 2 C1.01 2.33 0.02 2.66 -1 3 C-1.66 2.67 -2.32 2.34 -3 2 C-3.33 3.32 -3.66 4.64 -4 6 C-5.11375 5.938125 -6.2275 5.87625 -7.375 5.8125 C-9.169375 5.9053125 -9.169375 5.9053125 -11 6 C-13.37350376 9.56025563 -13.3470011 11.78463459 -13.55859375 15.94140625 C-14 18 -14 18 -17 20 C-16.835 19.29875 -16.67 18.5975 -16.5 17.875 C-15.88496236 15.00204646 -15.88496236 15.00204646 -16.1875 12.0625 C-15.93826067 7.99159097 -14.56891656 6.12435798 -12 3 C-8.07945673 -0.17881887 -4.97906007 -0.46972265 0 0 Z " fill="#777777" transform="translate(254,342)"/>
<path d="M0 0 C2.9375 1.625 2.9375 1.625 6 4 C6.875 7.25 6.875 7.25 7 10 C8.32 9.67 9.64 9.34 11 9 C10.67 9.66 10.34 10.32 10 11 C4.32822615 11.45374191 1.4024732 10.65083143 -3 7 C-3 6.34 -3 5.68 -3 5 C-3.99 4.67 -4.98 4.34 -6 4 C-4.03617993 2.49440461 -2.21736634 1.10868317 0 0 Z " fill="#484948" transform="translate(275,167)"/>
<path d="M0 0 C6.52307692 0.61538462 6.52307692 0.61538462 8.9375 2.5625 C9.288125 3.036875 9.63875 3.51125 10 4 C8.35 4 6.7 4 5 4 C5 5.65 5 7.3 5 9 C3.576875 9.1546875 3.576875 9.1546875 2.125 9.3125 C-1.29107501 9.68539295 -1.29107501 9.68539295 -3 13 C-3.4726477 4.80743982 -3.4726477 4.80743982 -1.5 1.4375 C-0.7575 0.7259375 -0.7575 0.7259375 0 0 Z " fill="#414241" transform="translate(243,347)"/>
<path d="M0 0 C0.886875 0.165 1.77375 0.33 2.6875 0.5 C5.53596892 0.92995757 8.13004802 1.08441035 11 1 C11 1.66 11 2.32 11 3 C12.32 3.66 13.64 4.32 15 5 C14.67 5.66 14.34 6.32 14 7 C13.39671875 6.98839844 12.7934375 6.97679687 12.171875 6.96484375 C11.37265625 6.95582031 10.5734375 6.94679687 9.75 6.9375 C8.96109375 6.92589844 8.1721875 6.91429687 7.359375 6.90234375 C5.09308998 6.99614694 3.1711105 7.36758937 1 8 C0.26919734 6.02253397 -0.39421747 4.01927511 -1 2 C-0.67 1.34 -0.34 0.68 0 0 Z " fill="#3F4140" transform="translate(204,224)"/>
<path d="M0 0 C2.475 0.495 2.475 0.495 5 1 C4.67 1.66 4.34 2.32 4 3 C3.34 3 2.68 3 2 3 C2 3.99 2 4.98 2 6 C2.99 5.67 3.98 5.34 5 5 C7.1875 6.4375 7.1875 6.4375 9 8 C7.43358249 12.30764815 5.31663844 16.06171464 3 20 C2.67 20 2.34 20 2 20 C1.93941406 19.14277344 1.87882812 18.28554687 1.81640625 17.40234375 C1.38856464 11.56395127 0.940837 5.77942728 0 0 Z " fill="#616161" transform="translate(315,184)"/>
<path d="M0 0 C0.66 0.33 1.32 0.66 2 1 C2 1.99 2 2.98 2 4 C2.66 4 3.32 4 4 4 C4.66 5.65 5.32 7.3 6 9 C2.846632 9.70074844 0.27275026 10 -3 10 C-2.67 11.32 -2.34 12.64 -2 14 C-2.66 14 -3.32 14 -4 14 C-5.38938077 12.03852126 -6.7260411 10.03833424 -8 8 C-7.67 7.34 -7.34 6.68 -7 6 C-5.66923011 5.65657551 -4.33568021 5.32380126 -3 5 C-0.7763932 3.0745356 -0.7763932 3.0745356 0 0 Z " fill="#5D5E5D" transform="translate(207,216)"/>
<path d="M0 0 C4.25472632 -0.12156361 8.14497757 0.07248878 12 2 C12 2.99 12 3.98 12 5 C11.01 5 10.02 5 9 5 C8.67 5.99 8.34 6.98 8 8 C5.03 7.67 2.06 7.34 -1 7 C-0.67 4.69 -0.34 2.38 0 0 Z " fill="#393C3B" transform="translate(278,244)"/>
<path d="M0 0 C0.66 0 1.32 0 2 0 C5.4887612 4.29385993 5.26854022 7.71870895 5 13 C4.67 13 4.34 13 4 13 C3.67 11.35 3.34 9.7 3 8 C2.01 8 1.02 8 0 8 C-0.99 7.67 -1.98 7.34 -3 7 C-3.33 8.65 -3.66 10.3 -4 12 C-7.75 13.125 -7.75 13.125 -10 12 C-9.67 11.34 -9.34 10.68 -9 10 C-8.01 10.33 -7.02 10.66 -6 11 C-5.67 9.35 -5.34 7.7 -5 6 C-6.32 5.67 -7.64 5.34 -9 5 C-6.36 4.67 -3.72 4.34 -1 4 C-0.67 2.68 -0.34 1.36 0 0 Z " fill="#828383" transform="translate(285,371)"/>
<path d="M0 0 C-2.35953094 2.35953094 -3.77895617 2.49141413 -7 3 C-7 3.66 -7 4.32 -7 5 C-7.66 5 -8.32 5 -9 5 C-9 4.34 -9 3.68 -9 3 C-10.65 3.33 -12.3 3.66 -14 4 C-13.814375 3.38125 -13.62875 2.7625 -13.4375 2.125 C-12.76313824 -0.04160178 -12.76313824 -0.04160178 -14 -2 C-8.85934887 -3.71355038 -4.81414105 -2.06320331 0 0 Z " fill="#393B3A" transform="translate(230,371)"/>
<path d="M0 0 C0.99 0.33 1.98 0.66 3 1 C3.33 1.99 3.66 2.98 4 4 C7.63 4.66 11.26 5.32 15 6 C15 6.33 15 6.66 15 7 C13.700625 6.938125 12.40125 6.87625 11.0625 6.8125 C6.60562542 6.79137737 3.07871647 7.74372266 -1.0546875 9.34375 C-3 10 -3 10 -6 10 C-5.01 7.69 -4.02 5.38 -3 3 C-2.34 3 -1.68 3 -1 3 C-0.67 2.01 -0.34 1.02 0 0 Z " fill="#6B6C6B" transform="translate(133,155)"/>
<path d="M0 0 C2.00720923 0.28674418 4.0085944 0.61866701 6 1 C5.67 2.65 5.34 4.3 5 6 C5.66 6.33 6.32 6.66 7 7 C5.35 7.66 3.7 8.32 2 9 C2 9.66 2 10.32 2 11 C0.68 11 -0.64 11 -2 11 C-1.835 9.906875 -1.67 8.81375 -1.5 7.6875 C-0.93281816 4.12474127 -0.93281816 4.12474127 -1 1 C-0.67 0.67 -0.34 0.34 0 0 Z " fill="#292B2A" transform="translate(260,156)"/>
<path d="M0 0 C1.20628008 2.33214148 2.1654738 4.49642139 3 7 C2.01 8.485 2.01 8.485 1 10 C0.01 10 -0.98 10 -2 10 C-2.33 8.35 -2.66 6.7 -3 5 C-5.64 5.33 -8.28 5.66 -11 6 C-11 5.01 -11 4.02 -11 3 C-10.01 3 -9.02 3 -8 3 C-6.65812182 2.3507041 -5.32520503 1.68268138 -4 1 C-2.6757713 0.63215869 -1.34386088 0.28797019 0 0 Z " fill="#292B2A" transform="translate(205,168)"/>
<path d="M0 0 C0.495 0.391875 0.99 0.78375 1.5 1.1875 C-4.09036145 6.97063253 -4.09036145 6.97063253 -7.9375 7.5625 C-11.26607927 7.07539084 -12.37368551 5.70757643 -14.5 3.1875 C-13.9225 3.05730469 -13.345 2.92710937 -12.75 2.79296875 C-10.54912189 2.20071856 -8.58957474 1.40194535 -6.5 0.5 C-2.83621141 -0.92176871 -2.83621141 -0.92176871 0 0 Z " fill="#6A6C6B" transform="translate(249.5,172.8125)"/>
<path d="M0 0 C0.721875 0.391875 1.44375 0.78375 2.1875 1.1875 C1.5275 3.1675 0.8675 5.1475 0.1875 7.1875 C-0.4725 7.1875 -1.1325 7.1875 -1.8125 7.1875 C-2.1425 7.8475 -2.4725 8.5075 -2.8125 9.1875 C-5.2875 8.1975 -5.2875 8.1975 -7.8125 7.1875 C-8.125 4.875 -8.125 4.875 -7.8125 2.1875 C-4.92923603 -0.36624809 -3.76371099 -1.08729429 0 0 Z " fill="#262928" transform="translate(206.8125,312.8125)"/>
<path d="M0 0 C3.4375 1.25 3.4375 1.25 7 3 C7.9375 5.1875 7.9375 5.1875 8 7 C5.71546567 8.14226716 3.37491201 9.06253473 1 10 C1 9.01 1 8.02 1 7 C-0.32 6.67 -1.64 6.34 -3 6 C-1.125 1.125 -1.125 1.125 0 0 Z " fill="#262827" transform="translate(110,296)"/>
<path d="M0 0 C0.66 0.33 1.32 0.66 2 1 C2 1.66 2 2.32 2 3 C2.99 3 3.98 3 5 3 C5 2.34 5 1.68 5 1 C5.99 1.33 6.98 1.66 8 2 C4.66666667 4.66666667 1.33333333 7.33333333 -2 10 C-4.0625 7.6875 -4.0625 7.6875 -6 5 C-5.67 4.01 -5.34 3.02 -5 2 C-4.01 1.67 -3.02 1.34 -2 1 C-1.67 1.33 -1.34 1.66 -1 2 C-0.67 1.34 -0.34 0.68 0 0 Z " fill="#404241" transform="translate(340,162)"/>
<path d="M0 0 C0.33 0.66 0.66 1.32 1 2 C1.66 2 2.32 2 3 2 C3.33 2.99 3.66 3.98 4 5 C3.67 5.66 3.34 6.32 3 7 C-1.21878192 7.19622241 -4.17010894 6.80230168 -8 5 C-7.67 3.68 -7.34 2.36 -7 1 C-3.535 0.505 -3.535 0.505 0 0 Z " fill="#282A29" transform="translate(208,248)"/>
<path d="M0 0 C2.92879371 0.62759865 5.36095629 1.58622659 8 3 C7 6 7 6 4.625 7.1875 C1.62987146 8.11456359 -0.87759646 8 -4 8 C-3.34 6.35 -2.68 4.7 -2 3 C-1.34 3 -0.68 3 0 3 C0 2.01 0 1.02 0 0 Z " fill="#262827" transform="translate(402,279)"/>
<path d="M0 0 C3.40524375 0.68104875 4.52547983 1.6479153 6.5 4.5 C6.75 8.25 6.75 8.25 6.5 11.5 C4.52 12.49 4.52 12.49 2.5 13.5 C3.49 10.86 4.48 8.22 5.5 5.5 C4.51 5.5 3.52 5.5 2.5 5.5 C1.84 4.84 1.18 4.18 0.5 3.5 C-3.07104439 5.37949705 -5.04744301 6.67053157 -6.5 10.5 C-6.82523926 6.92236811 -6.92956587 5.10457419 -4.8125 2.125 C-2.5 0.5 -2.5 0.5 0 0 Z " fill="#787978" transform="translate(227.5,185.5)"/>
<path d="M0 0 C3.125 0.375 3.125 0.375 6 1 C3.53846154 7.64615385 3.53846154 7.64615385 0.8125 9.4375 C-0.0846875 9.7159375 -0.0846875 9.7159375 -1 10 C-1.99 9.34 -2.98 8.68 -4 8 C-2.25 2.25 -2.25 2.25 0 0 Z " fill="#2B2E2D" transform="translate(238,167)"/>
<path d="M0 0 C1.98 0 3.96 0 6 0 C6.6875 1.75 6.6875 1.75 7 4 C6 6.25 6 6.25 4 8 C0.3125 8.25 0.3125 8.25 -3 8 C-2.6875 6.125 -2.6875 6.125 -2 4 C-1.01 3.34 -0.02 2.68 1 2 C0.67 1.34 0.34 0.68 0 0 Z " fill="#373A39" transform="translate(248,356)"/>
<path d="M0 0 C0.99 0 1.98 0 3 0 C3.75 2.125 3.75 2.125 4 5 C2.25 8.3125 2.25 8.3125 0 11 C-0.99 11 -1.98 11 -3 11 C-3.59732819 8.23735711 -4 5.83967231 -4 3 C-3.34 2.34 -2.68 1.68 -2 1 C-1.67 1.33 -1.34 1.66 -1 2 C-0.67 1.34 -0.34 0.68 0 0 Z " fill="#252726" transform="translate(405,199)"/>
<path d="M0 0 C0.33 0.66 0.66 1.32 1 2 C0.34 2 -0.32 2 -1 2 C-1 4.97 -1 7.94 -1 11 C-2.32 11.33 -3.64 11.66 -5 12 C-7.125 6.375 -7.125 6.375 -6 3 C-6.33 2.34 -6.66 1.68 -7 1 C-3.535 0.505 -3.535 0.505 0 0 Z " fill="#474847" transform="translate(287,165)"/>
<path d="M0 0 C0 0.66 0 1.32 0 2 C0.66 2.33 1.32 2.66 2 3 C2.625 6.0625 2.625 6.0625 3 9 C0 10 0 10 -3 9 C-3 8.34 -3 7.68 -3 7 C-3.66 7 -4.32 7 -5 7 C-5 6.34 -5 5.68 -5 5 C-5.66 5 -6.32 5 -7 5 C-5.53924541 2.07849082 -3.3640735 0 0 0 Z " fill="#3D3F3E" transform="translate(195,305)"/>
<path d="M0 0 C3.465 1.98 3.465 1.98 7 4 C5.02 4.99 5.02 4.99 3 6 C2.34 5.34 1.68 4.68 1 4 C1.33 3.34 1.66 2.68 2 2 C1.34 2 0.68 2 0 2 C0 1.34 0 0.68 0 0 Z M2 6 C1.67 8.31 1.34 10.62 1 13 C0.34 13 -0.32 13 -1 13 C-1 12.34 -1 11.68 -1 11 C-2.98 10.34 -4.96 9.68 -7 9 C-7 8.34 -7 7.68 -7 7 C-3.8035914 5.93453047 -1.34252724 5.92572162 2 6 Z " fill="#646665" transform="translate(234,163)"/>
<path d="M0 0 C0.99 0.66 1.98 1.32 3 2 C3.66 1.67 4.32 1.34 5 1 C5 2.98 5 4.96 5 7 C4.01 6.67 3.02 6.34 2 6 C1.34 7.32 0.68 8.64 0 10 C-0.99 9.67 -1.98 9.34 -3 9 C-4 6 -4 6 -3.1875 3.375 C-2 1 -2 1 0 0 Z " fill="#282928" transform="translate(284,377)"/>
<path d="M0 0 C0.99 0.66 1.98 1.32 3 2 C2.38530856 5.41153748 1.10488946 7.51769156 -1 10.25 C-1.53625 10.95640625 -2.0725 11.6628125 -2.625 12.390625 C-3.07875 12.92171875 -3.5325 13.4528125 -4 14 C-4.33 14 -4.66 14 -5 14 C-5.46733615 9.42010577 -5.17261016 6.75145487 -2.5 3.0625 C-1.675 2.051875 -0.85 1.04125 0 0 Z " fill="#5C5E5D" transform="translate(335,168)"/>
<path d="M0 0 C1.8125 2.375 1.8125 2.375 3 5 C2.67 5.66 2.34 6.32 2 7 C1.01 6.01 0.02 5.02 -1 4 C-1.598125 4.61875 -2.19625 5.2375 -2.8125 5.875 C-5 8 -5 8 -8 10 C-8.8125 7.8125 -8.8125 7.8125 -9 5 C-5.9742869 1.10979744 -5.04048781 0 0 0 Z " fill="#3F4140" transform="translate(303,138)"/>
<path d="M0 0 C1 2 1 2 0.5 4.9375 C-0.24846895 8.02952435 -0.24846895 8.02952435 1 11 C-0.65 11.66 -2.3 12.32 -4 13 C-5.1875 10.3125 -5.1875 10.3125 -6 7 C-4.46079825 3.43553279 -3.25728341 2.17152227 0 0 Z " fill="#242626" transform="translate(390,294)"/>
<path d="M0 0 C0.33 0.99 0.66 1.98 1 3 C0.67 3.33 0.34 3.66 0 4 C-0.23075082 5.34747084 -0.41153063 6.70377565 -0.5625 8.0625 C-0.706875 9.361875 -0.85125 10.66125 -1 12 C-1.66 11.34 -2.32 10.68 -3 10 C-5.60280568 10.32041397 -5.60280568 10.32041397 -8 11 C-8 10.34 -8 9.68 -8 9 C-8.99 9.99 -9.98 10.98 -11 12 C-11.66 11.67 -12.32 11.34 -13 11 C-12.34 10.01 -11.68 9.02 -11 8 C-10.34 8 -9.68 8 -9 8 C-8.67 7.34 -8.34 6.68 -8 6 C-6.68 6.66 -5.36 7.32 -4 8 C-3.71125 7.236875 -3.4225 6.47375 -3.125 5.6875 C-2 3 -2 3 0 0 Z " fill="#2F3030" transform="translate(331,171)"/>
<path d="M0 0 C1.65 1.65 3.3 3.3 5 5 C3.8125 6.5 3.8125 6.5 2 8 C-0.6875 8.1875 -0.6875 8.1875 -3 8 C-3 7.34 -3 6.68 -3 6 C-3.99 5.67 -4.98 5.34 -6 5 C-5.01 4.67 -4.02 4.34 -3 4 C-1.31461399 2.00334686 -1.31461399 2.00334686 0 0 Z " fill="#272928" transform="translate(293,128)"/>
<path d="M0 0 C0.99 0.33 1.98 0.66 3 1 C2.979375 1.94875 2.95875 2.8975 2.9375 3.875 C2.77448174 6.90666283 2.77448174 6.90666283 4 9 C1.125 9.1875 1.125 9.1875 -2 9 C-2.66 8.01 -3.32 7.02 -4 6 C-3.25 3.375 -3.25 3.375 -2 1 C-1.34 0.67 -0.68 0.34 0 0 Z " fill="#262827" transform="translate(332,297)"/>
<path d="M0 0 C1.65 1.65 3.3 3.3 5 5 C2.375 9.875 2.375 9.875 -1 11 C-1.12375 10.195625 -1.2475 9.39125 -1.375 8.5625 C-1.684375 7.2940625 -1.684375 7.2940625 -2 6 C-2.66 5.67 -3.32 5.34 -4 5 C-3.34 4.54625 -2.68 4.0925 -2 3.625 C-1.34 3.08875 -0.68 2.5525 0 2 C0 1.34 0 0.68 0 0 Z " fill="#252726" transform="translate(187,293)"/>
<path d="M0 0 C0.33 0 0.66 0 1 0 C0.54996653 5.62541841 -0.68441485 8.61487125 -4 13 C-5.9375 12.6875 -5.9375 12.6875 -8 12 C-8.33 11.01 -8.66 10.02 -9 9 C-8.030625 8.38125 -7.06125 7.7625 -6.0625 7.125 C-2.97164638 5.34321154 -2.97164638 5.34321154 -2 3 C-1.34 3 -0.68 3 0 3 C0 2.01 0 1.02 0 0 Z " fill="#6F706F" transform="translate(219,231)"/>
<path d="M0 0 C0.804375 0.350625 1.60875 0.70125 2.4375 1.0625 C3.283125 1.371875 4.12875 1.68125 5 2 C5.99 1.34 6.98 0.68 8 0 C8.33 0.99 8.66 1.98 9 3 C6.60490662 5.89932357 4.68754757 6.50168276 1 7 C0.01 5.02 -0.98 3.04 -2 1 C-1.34 0.67 -0.68 0.34 0 0 Z " fill="#252827" transform="translate(389,177)"/>
<path d="M0 0 C3.04311974 0.49347888 6.01697727 1.22662374 9 2 C9 2.99 9 3.98 9 5 C6.29120665 6.35439668 3.99066732 6.06501451 1 6 C0.34 4.35 -0.32 2.7 -1 1 C-0.67 0.67 -0.34 0.34 0 0 Z " fill="#585958" transform="translate(268,194)"/>
<path d="M0 0 C0 0.66 0 1.32 0 2 C-1.3303125 2.309375 -1.3303125 2.309375 -2.6875 2.625 C-6.77161519 4.3202931 -8.27406823 6.57511137 -11 10 C-13.625 11.9375 -13.625 11.9375 -16 13 C-16.99 12.67 -17.98 12.34 -19 12 C-15.25 9 -15.25 9 -13 9 C-13 8.34 -13 7.68 -13 7 C-11.171875 5.2734375 -11.171875 5.2734375 -8.75 3.375 C-7.96109375 2.74335938 -7.1721875 2.11171875 -6.359375 1.4609375 C-4 0 -4 0 0 0 Z " fill="#969797" transform="translate(316,224)"/>
<path d="M0 0 C0.99 0.495 0.99 0.495 2 1 C1.67 1.66 1.34 2.32 1 3 C0.67 2.01 0.34 1.02 0 0 Z M-7 1 C-4.69 1.33 -2.38 1.66 0 2 C0 4 0 6 0 8 C-1.32 8.33 -2.64 8.66 -4 9 C-7 4.375 -7 4.375 -7 1 Z " fill="#353635" transform="translate(166,163)"/>
<path d="M0 0 C1.65 0.33 3.3 0.66 5 1 C5 1.66 5 2.32 5 3 C5.99 2.67 6.98 2.34 8 2 C8 2.66 8 3.32 8 4 C7.34 4 6.68 4 6 4 C6 4.66 6 5.32 6 6 C5.34 6 4.68 6 4 6 C4.33 6.598125 4.66 7.19625 5 7.8125 C6 10 6 10 6 13 C3.69 13 1.38 13 -1 13 C-1 12.67 -1 12.34 -1 12 C0.65 11.67 2.3 11.34 4 11 C3.71125 10.37351563 3.4225 9.74703125 3.125 9.1015625 C2.75375 8.28429687 2.3825 7.46703125 2 6.625 C1.443125 5.40683594 1.443125 5.40683594 0.875 4.1640625 C0 2 0 2 0 0 Z " fill="#7F8180" transform="translate(296,148)"/>
<path d="M0 0 C0.99 0.33 1.98 0.66 3 1 C4.1875 3.5625 4.1875 3.5625 5 6 C3.02 6.99 1.04 7.98 -1 9 C-1.33 8.01 -1.66 7.02 -2 6 C-1.34 6 -0.68 6 0 6 C0 5.34 0 4.68 0 4 C-0.99 4.33 -1.98 4.66 -3 5 C-3.33 4.34 -3.66 3.68 -4 3 C-3.34 3 -2.68 3 -2 3 C-1.67 2.34 -1.34 1.68 -1 1 C-0.67 0.67 -0.34 0.34 0 0 Z " fill="#242625" transform="translate(233,248)"/>
<path d="M0 0 C1.32 0.66 2.64 1.32 4 2 C5.28317892 5.84953676 5.06643637 8.94738135 5 13 C4.525625 12.360625 4.05125 11.72125 3.5625 11.0625 C2.16261274 9.11706694 2.16261274 9.11706694 1 8 C0.34 8.66 -0.32 9.32 -1 10 C-0.67 6.7 -0.34 3.4 0 0 Z " fill="#353535" transform="translate(256,344)"/>
<path d="M0 0 C1.32 0.99 2.64 1.98 4 3 C2.35 3.33 0.7 3.66 -1 4 C-1 4.66 -1 5.32 -1 6 C-0.01 6.66 0.98 7.32 2 8 C1.34 8.66 0.68 9.32 0 10 C0 9.34 0 8.68 0 8 C-1.65 7.67 -3.3 7.34 -5 7 C-5.33 5.68 -5.66 4.36 -6 3 C-4.35 3 -2.7 3 -1 3 C-0.67 2.01 -0.34 1.02 0 0 Z " fill="#262827" transform="translate(245,255)"/>
<path d="M0 0 C1.62106548 2.94924939 2.48443268 5.63806994 3.125 8.9375 C3.29257812 9.77152344 3.46015625 10.60554687 3.6328125 11.46484375 C4.00211177 14.01458019 4.06442528 16.42759067 4 19 C3.34 19 2.68 19 2 19 C1.46989799 16.39740876 0.95062205 13.793443 0.4375 11.1875 C0.21030273 10.08051758 0.21030273 10.08051758 -0.02148438 8.95117188 C-1.11328125 3.33984375 -1.11328125 3.33984375 0 0 Z " fill="#D9D9D9" transform="translate(330,229)"/>
<path d="M0 0 C1.54910374 2.44595328 1.40147969 4.0219374 1.1875 6.875 C1.1875 7.865 1.1875 8.855 1.1875 9.875 C-0.3125 8.5 -0.3125 8.5 -1.8125 6.875 C-1.8125 6.215 -1.8125 5.555 -1.8125 4.875 C-2.4725 4.875 -3.1325 4.875 -3.8125 4.875 C-5.4375 2.375 -5.4375 2.375 -6.8125 -0.125 C-2.34244924 -1.45393401 -2.34244924 -1.45393401 0 0 Z " fill="#6E6F6E" transform="translate(189.8125,235.125)"/>
<path d="M0 0 C1.98995595 0.24438056 3.97972646 0.49033062 5.96875 0.7421875 C12.29193037 1.27998377 18.65911444 1.07002205 25 1 C25 1.33 25 1.66 25 2 C17.29065524 3.71318772 8.70934476 3.71318772 1 2 C0.67 2.99 0.34 3.98 0 5 C-0.5625 3.0625 -0.5625 3.0625 -1 1 C-0.67 0.67 -0.34 0.34 0 0 Z " fill="#C4C6C5" transform="translate(237,214)"/>
<path d="M0 0 C0.66 0.33 1.32 0.66 2 1 C1.1875 4.4375 1.1875 4.4375 0 8 C-0.99 8.33 -1.98 8.66 -3 9 C-3.99 8.34 -4.98 7.68 -6 7 C-4.77065985 3.31197956 -3.06140622 2.27643027 0 0 Z " fill="#262928" transform="translate(302,141)"/>
<path d="M0 0 C0.66 0.33 1.32 0.66 2 1 C1.34 2.32 0.68 3.64 0 5 C0.66 5 1.32 5 2 5 C2.33 4.01 2.66 3.02 3 2 C3.66 2 4.32 2 5 2 C5.33 2.99 5.66 3.98 6 5 C1.56923077 7.09230769 1.56923077 7.09230769 -1.3125 6.625 C-1.869375 6.41875 -2.42625 6.2125 -3 6 C-2.625 3.5625 -2.625 3.5625 -2 1 C-1.34 0.67 -0.68 0.34 0 0 Z " fill="#282A29" transform="translate(282,317)"/>
<path d="M0 0 C0.33 0.66 0.66 1.32 1 2 C1.66 2 2.32 2 3 2 C3.79953138 5.28696233 4.09658936 6.71023192 3 10 C2.34 10 1.68 10 1 10 C1 9.34 1 8.68 1 8 C0.34 8 -0.32 8 -1 8 C-1.625 5.6875 -1.625 5.6875 -2 3 C-1.34 2.01 -0.68 1.02 0 0 Z " fill="#696A6A" transform="translate(323,293)"/>
<path d="M0 0 C-2.52788007 2.79872437 -4.20411134 4.45773019 -8 5 C-8.66 3.35 -9.32 1.7 -10 0 C-5.91847062 -2.09907226 -4.08152938 -2.09907226 0 0 Z " fill="#262827" transform="translate(208,218)"/>
<path d="M0 0 C1.65 0.99 3.3 1.98 5 3 C4.67 4.32 4.34 5.64 4 7 C3.01 7 2.02 7 1 7 C0.67 7.66 0.34 8.32 0 9 C-0.66 6.69 -1.32 4.38 -2 2 C-1.34 1.34 -0.68 0.68 0 0 Z " fill="#3A3C3B" transform="translate(394,184)"/>
<path d="M0 0 C0.763125 0.20625 1.52625 0.4125 2.3125 0.625 C1.6525 2.275 0.9925 3.925 0.3125 5.625 C-0.265 5.41875 -0.8425 5.2125 -1.4375 5 C-4.20717567 4.53838739 -5.33311267 5.19555055 -7.6875 6.625 C-6.22846393 2.36012534 -5.12714281 -0.71541528 0 0 Z " fill="#4E4F4E" transform="translate(326.6875,173.375)"/>
<path d="M0 0 C0.66 0.33 1.32 0.66 2 1 C2.99 1 3.98 1 5 1 C5.99 1.33 6.98 1.66 8 2 C7.34 3.32 6.68 4.64 6 6 C3.69 6 1.38 6 -1 6 C-1.042721 4.33388095 -1.04063832 2.66617115 -1 1 C-0.67 0.67 -0.34 0.34 0 0 Z " fill="#252726" transform="translate(278,370)"/>
<path d="M0 0 C3.54433654 1.41773462 4.33806119 2.67612238 6 6 C8.0335948 7.26804566 8.0335948 7.26804566 10 8 C4.88523181 8.63934602 1.32745622 6.40533547 -3 4 C-2.67 3.34 -2.34 2.68 -2 2 C-1.34 2 -0.68 2 0 2 C0 1.34 0 0.68 0 0 Z " fill="#717271" transform="translate(279,250)"/>
<path d="M0 0 C0.99 0.33 1.98 0.66 3 1 C2.67 2.32 2.34 3.64 2 5 C1.34 5 0.68 5 0 5 C0 5.66 0 6.32 0 7 C-1.98 7.99 -1.98 7.99 -4 9 C-4 6.69 -4 4.38 -4 2 C-3.34 1.67 -2.68 1.34 -2 1 C-2 1.66 -2 2.32 -2 3 C-1.34 2.67 -0.68 2.34 0 2 C0 1.34 0 0.68 0 0 Z " fill="#585A59" transform="translate(299,243)"/>
<path d="M0 0 C0.99 0.99 1.98 1.98 3 3 C1.68 4.65 0.36 6.3 -1 8 C-3.475 7.01 -3.475 7.01 -6 6 C-2.25 1.125 -2.25 1.125 0 0 Z " fill="#252827" transform="translate(340,157)"/>
<path d="M0 0 C0 3.40117798 -0.30381171 5.05010733 -2 8 C-5.5 9.875 -5.5 9.875 -9 11 C-9.66 10.67 -10.32 10.34 -11 10 C-10.113125 9.46375 -9.22625 8.9275 -8.3125 8.375 C-4.81711784 6.06688542 -2.55125342 3.30162207 0 0 Z " fill="#252626" transform="translate(311,226)"/>
<path d="M0 0 C1.98 0 3.96 0 6 0 C5.690625 0.7425 5.38125 1.485 5.0625 2.25 C4.1905075 4.50692176 3.52332993 6.6450153 3 9 C2.67 8.01 2.34 7.02 2 6 C1.01 5.34 0.02 4.68 -1 4 C-0.67 2.68 -0.34 1.36 0 0 Z " fill="#646564" transform="translate(191,173)"/>
<path d="M0 0 C0.598125 0.33 1.19625 0.66 1.8125 1 C4.05386471 2.20787988 4.05386471 2.20787988 7 2 C6.67 3.32 6.34 4.64 6 6 C6.99 6.33 7.98 6.66 9 7 C6.01644824 7.24862931 4.35134151 7.18991433 1.6875 5.75 C0 4 0 4 0 0 Z " fill="#262727" transform="translate(208,257)"/>
<path d="M0 0 C2.31 1.65 4.62 3.3 7 5 C6.01 5.99 5.02 6.98 4 8 C1.8125 7.6875 1.8125 7.6875 0 7 C-0.38133299 5.0085944 -0.71325582 3.00720923 -1 1 C-0.67 0.67 -0.34 0.34 0 0 Z " fill="#252726" transform="translate(198,239)"/>
<path d="M0 0 C1.32 0.99 2.64 1.98 4 3 C3.41789544 7.19115285 2.71843438 8.37542083 0 12 C0 8.04 0 4.08 0 0 Z " fill="#696969" transform="translate(317,192)"/>
<path d="M0 0 C2.31 0.66 4.62 1.32 7 2 C7 3.65 7 5.3 7 7 C3.22454612 5.90931332 0.52956528 5.0916909 -2 2 C-1.34 2 -0.68 2 0 2 C0 1.34 0 0.68 0 0 Z " fill="#6B6C6B" transform="translate(110,303)"/>
<path d="M0 0 C1.32 0.66 2.64 1.32 4 2 C4 2.66 4 3.32 4 4 C3.34 4 2.68 4 2 4 C1.67 4.66 1.34 5.32 1 6 C-0.65 5.67 -2.3 5.34 -4 5 C-2.68 3.35 -1.36 1.7 0 0 Z " fill="#262727" transform="translate(113,165)"/>
<path d="M0 0 C0.66 0 1.32 0 2 0 C2.66 0.99 3.32 1.98 4 3 C4.66 3.33 5.32 3.66 6 4 C3.625 5.5625 3.625 5.5625 1 7 C-1 6 -1 6 -1.75 4.0625 C-1.8325 3.381875 -1.915 2.70125 -2 2 C-1.34 1.34 -0.68 0.68 0 0 Z " fill="#636464" transform="translate(384,303)"/>
<path d="M0 0 C0.66 0 1.32 0 2 0 C2.66 1.32 3.32 2.64 4 4 C3.21625 4.45375 2.4325 4.9075 1.625 5.375 C-1.03698031 6.88428742 -1.03698031 6.88428742 -3 9 C-2.44271087 5.65626525 -1.64826111 2.96687001 0 0 Z " fill="#676968" transform="translate(94,192)"/>
<path d="M0 0 C1.98 0.99 3.96 1.98 6 3 C5.67 4.65 5.34 6.3 5 8 C4.01 8 3.02 8 2 8 C2.33 6.35 2.66 4.7 3 3 C0.03 2.505 0.03 2.505 -3 2 C-2.01 1.34 -1.02 0.68 0 0 Z " fill="#7A7A7A" transform="translate(263,154)"/>
<path d="M0 0 C0.99 0.33 1.98 0.66 3 1 C5.14255793 0.61067144 5.14255793 0.61067144 7 0 C7 2.33333333 7 4.66666667 7 7 C6.34 7 5.68 7 5 7 C5 6.34 5 5.68 5 5 C4.34 5 3.68 5 3 5 C3 4.34 3 3.68 3 3 C2.34 3 1.68 3 1 3 C0.67 2.01 0.34 1.02 0 0 Z " fill="#686969" transform="translate(194,247)"/>
<path d="M0 0 C2 1.75 2 1.75 4 4 C4 5.32 4 6.64 4 8 C2.35 7.67 0.7 7.34 -1 7 C-0.67 4.69 -0.34 2.38 0 0 Z " fill="#7D7F7E" transform="translate(260,203)"/>
<path d="M0 0 C-0.61277612 2.96175123 -1.25372522 4.38058783 -3 7 C-4.32 5.02 -5.64 3.04 -7 1 C-4 0 -4 0 0 0 Z " fill="#555756" transform="translate(390,174)"/>
<path d="M0 0 C0.33 1.32 0.66 2.64 1 4 C2.32 3.67 3.64 3.34 5 3 C4.67 3.66 4.34 4.32 4 5 C1.69 5 -0.62 5 -3 5 C-3.33 3.68 -3.66 2.36 -4 1 C-2 0 -2 0 0 0 Z " fill="#6B6C6C" transform="translate(281,173)"/>
<path d="M0 0 C2.31 0.33 4.62 0.66 7 1 C5.25 3.0625 5.25 3.0625 3 5 C0.75 4.75 0.75 4.75 -1 4 C-0.67 2.68 -0.34 1.36 0 0 Z " fill="#262827" transform="translate(269,165)"/>
<path d="M0 0 C0.66 0.33 1.32 0.66 2 1 C2 1.99 2 2.98 2 4 C2.99 4.33 3.98 4.66 5 5 C3.03533587 6.06775224 1.03144641 7.06553465 -1 8 C-1.66 7.67 -2.32 7.34 -3 7 C-2.01 4.69 -1.02 2.38 0 0 Z " fill="#757575" transform="translate(130,158)"/>
<path d="M0 0 C0 2.92828926 -0.13970066 5.20402714 -1 8 C-3.0625 9.3125 -3.0625 9.3125 -5 10 C-4.49701212 5.59885603 -2.91227269 3.28804981 0 0 Z " fill="#717271" transform="translate(206,126)"/>
<path d="M0 0 C0.66 0.33 1.32 0.66 2 1 C1.375 2.9375 1.375 2.9375 0 5 C-2.75 5.6875 -2.75 5.6875 -6 6 C-7.670625 6.2784375 -7.670625 6.2784375 -9.375 6.5625 C-10.24125 6.706875 -11.1075 6.85125 -12 7 C-9.5129261 5.34195074 -7.02682498 3.80125522 -4.4375 2.3125 C-3.65246094 1.85488281 -2.86742187 1.39726562 -2.05859375 0.92578125 C-1.37925781 0.62027344 -0.69992187 0.31476563 0 0 Z " fill="#B5B6B6" transform="translate(385,296)"/>
<path d="M0 0 C-1.32 0.33 -2.64 0.66 -4 1 C-4 1.99 -4 2.98 -4 4 C-4.99 4.66 -5.98 5.32 -7 6 C-8.19232613 8.05003955 -8.19232613 8.05003955 -9 10 C-9.32523926 6.42236811 -9.42956587 4.60457419 -7.3125 1.625 C-4.61209763 -0.27258004 -3.22939919 -0.35882213 0 0 Z " fill="#939393" transform="translate(230,186)"/>
<path d="M0 0 C0.99 0.99 1.98 1.98 3 3 C2.34 4.65 1.68 6.3 1 8 C-0.32 6.68 -1.64 5.36 -3 4 C-2.34 3.67 -1.68 3.34 -1 3 C-0.67 2.01 -0.34 1.02 0 0 Z " fill="#545554" transform="translate(269,380)"/>
<path d="M0 0 C6.15234375 0.5859375 6.15234375 0.5859375 8 1 C8.33 1.66 8.66 2.32 9 3 C7.3125 4.1875 7.3125 4.1875 5 5 C2.25 3.75 2.25 3.75 0 2 C0 1.34 0 0.68 0 0 Z " fill="#656666" transform="translate(276,368)"/>
<path d="M0 0 C0.99 0 1.98 0 3 0 C3 0.66 3 1.32 3 2 C3.66 2 4.32 2 5 2 C4.34 3.65 3.68 5.3 3 7 C1.68 5.68 0.36 4.36 -1 3 C-0.67 2.01 -0.34 1.02 0 0 Z " fill="#272928" transform="translate(91,281)"/>
<path d="M0 0 C1.67542976 0.28604898 3.34385343 0.61781233 5 1 C5 2.32 5 3.64 5 5 C3.68 5.33 2.36 5.66 1 6 C0.34 4.35 -0.32 2.7 -1 1 C-0.67 0.67 -0.34 0.34 0 0 Z " fill="#262827" transform="translate(281,171)"/>
<path d="M0 0 C0.66 0.33 1.32 0.66 2 1 C2 1.66 2 2.32 2 3 C2.99 3 3.98 3 5 3 C5 2.34 5 1.68 5 1 C5.99 1.33 6.98 1.66 8 2 C3.25 5.875 3.25 5.875 1 7 C1 6.01 1 5.02 1 4 C0.34 3.67 -0.32 3.34 -1 3 C-0.67 2.01 -0.34 1.02 0 0 Z " fill="#696A6A" transform="translate(340,162)"/>
<path d="M0 0 C1.9451 2.91765 2.45276317 4.62537285 3 8 C1.02 9.32 -0.96 10.64 -3 12 C-2.690625 11.236875 -2.38125 10.47375 -2.0625 9.6875 C-0.64967343 6.11387984 0 3.91259088 0 0 Z " fill="#747574" transform="translate(408,198)"/>
<path d="M0 0 C0.598125 0.309375 1.19625 0.61875 1.8125 0.9375 C4.08956772 2.10209704 4.08956772 2.10209704 7 3 C6.34 3.66 5.68 4.32 5 5 C5 5.99 5 6.98 5 8 C2.20127563 5.47211993 0.54226981 3.79588866 0 0 Z " fill="#707070" transform="translate(388,181)"/>
<path d="M0 0 C2.83374881 3.20336822 3.5205537 5.78087253 4 10 C2.68 9.34 1.36 8.68 0 8 C0 5.36 0 2.72 0 0 Z " fill="#959695" transform="translate(302,172)"/>
<path d="M0 0 C0.99 0.33 1.98 0.66 3 1 C5.14255793 0.61067144 5.14255793 0.61067144 7 0 C6 3 6 3 3.9375 4.1875 C3.298125 4.455625 2.65875 4.72375 2 5 C1.01 4.34 0.02 3.68 -1 3 C-0.67 2.01 -0.34 1.02 0 0 Z " fill="#252727" transform="translate(235,172)"/>
<path d="M0 0 C0.66 0.99 1.32 1.98 2 3 C1.67 3.99 1.34 4.98 1 6 C1.39397335 8.63804589 1.39397335 8.63804589 2 11 C-0.52349243 7.87567603 -2.27256146 4.61939504 -4 1 C-2.68 0.67 -1.36 0.34 0 0 Z " fill="#949695" transform="translate(294,172)"/>
<path d="M0 0 C-0.33 0.99 -0.66 1.98 -1 3 C-4.0625 4.1875 -4.0625 4.1875 -7 5 C-7 3.68 -7 2.36 -7 1 C-4.53721199 -0.231394 -2.7204945 -0.07159196 0 0 Z " fill="#606261" transform="translate(271,239)"/>
<path d="M0 0 C0.8971875 0.309375 0.8971875 0.309375 1.8125 0.625 C0.3275 2.11 0.3275 2.11 -1.1875 3.625 C-2.1775 3.295 -3.1675 2.965 -4.1875 2.625 C-4.5175 3.285 -4.8475 3.945 -5.1875 4.625 C-6.5075 3.965 -7.8275 3.305 -9.1875 2.625 C-8.589375 2.50125 -7.99125 2.3775 -7.375 2.25 C-4.41425756 1.40407359 -3.14374593 -0.53892787 0 0 Z " fill="#7D7F7F" transform="translate(205.1875,166.375)"/>
<path d="M0 0 C0.33 0.99 0.66 1.98 1 3 C0.34 3 -0.32 3 -1 3 C-0.67 2.01 -0.34 1.02 0 0 Z M-5 2 C-2.8125 2.3125 -2.8125 2.3125 -1 3 C-2.25 4.5625 -2.25 4.5625 -4 6 C-6.1875 5.6875 -6.1875 5.6875 -8 5 C-6.75 3.4375 -6.75 3.4375 -5 2 Z " fill="#242726" transform="translate(381,160)"/>
<path d="M0 0 C3.37503669 1.1858237 5.64722731 2.27573689 8 5 C6.35 5.33 4.7 5.66 3 6 C2.01 4.02 1.02 2.04 0 0 Z " fill="#7C7D7C" transform="translate(235,248)"/>
<path d="M0 0 C0.66 0.99 1.32 1.98 2 3 C1.01 4.98 0.02 6.96 -1 9 C-1.66 7.68 -2.32 6.36 -3 5 C-2.34 5 -1.68 5 -1 5 C-1.33 3.68 -1.66 2.36 -2 1 C-1.34 0.67 -0.68 0.34 0 0 Z " fill="#252726" transform="translate(188,225)"/>
<path d="M0 0 C1.24546405 2.49092811 0.7767578 3.41080733 0 6 C0.99 6.66 1.98 7.32 3 8 C1.35 8 -0.3 8 -2 8 C-2.6875 6.25 -2.6875 6.25 -3 4 C-1.5625 1.75 -1.5625 1.75 0 0 Z " fill="#9FA09F" transform="translate(239,203)"/>
<path d="M0 0 C3.79588866 0.54226981 5.47211993 2.20127563 8 5 C6.35 5.33 4.7 5.66 3 6 C2.814375 5.071875 2.814375 5.071875 2.625 4.125 C2.12802644 1.80879168 2.12802644 1.80879168 0 0 Z " fill="#272827" transform="translate(220,384)"/>
<path d="M0 0 C-0.33 1.65 -0.66 3.3 -1 5 C-2.32 5.33 -3.64 5.66 -5 6 C-5 4.68 -5 3.36 -5 2 C-2 0 -2 0 0 0 Z " fill="#252726" transform="translate(168,297)"/>
<path d="M0 0 C0.99 0 1.98 0 3 0 C1.52307692 4.67692308 1.52307692 4.67692308 -1.125 6.3125 C-2.053125 6.6528125 -2.053125 6.6528125 -3 7 C-1.125 1.125 -1.125 1.125 0 0 Z " fill="#676767" transform="translate(308,283)"/>
<path d="M0 0 C2 1.8125 2 1.8125 4 4 C4 4.99 4 5.98 4 7 C2.0625 6.25 2.0625 6.25 0 5 C-0.8125 2.9375 -0.8125 2.9375 -1 1 C-0.67 0.67 -0.34 0.34 0 0 Z " fill="#797979" transform="translate(239,217)"/>
<path d="M0 0 C1.98 0.99 3.96 1.98 6 3 C6 6 6 6 5 8 C0 2.25 0 2.25 0 0 Z " fill="#898989" transform="translate(164,173)"/>
<path d="M0 0 C0.99 0.495 0.99 0.495 2 1 C1.67 1.66 1.34 2.32 1 3 C0.67 2.01 0.34 1.02 0 0 Z M-7 1 C-4.69 1.33 -2.38 1.66 0 2 C-0.61875 2.28875 -1.2375 2.5775 -1.875 2.875 C-4.13325765 3.93720042 -4.13325765 3.93720042 -6 6 C-6.33 4.35 -6.66 2.7 -7 1 Z " fill="#262726" transform="translate(166,163)"/>
<path d="M0 0 C1.32 0 2.64 0 4 0 C4 0.99 4 1.98 4 3 C3.34 3 2.68 3 2 3 C2 3.66 2 4.32 2 5 C1.01 4.67 0.02 4.34 -1 4 C-0.67 2.68 -0.34 1.36 0 0 Z " fill="#666867" transform="translate(218,124)"/>
<path d="M0 0 C-5.2734375 3.22265625 -5.2734375 3.22265625 -7 4 C-7.66 3.67 -8.32 3.34 -9 3 C-9 2.34 -9 1.68 -9 1 C-2.25 -1.125 -2.25 -1.125 0 0 Z " fill="#9B9C9C" transform="translate(288,323)"/>
<path d="M0 0 C0.99 0.33 1.98 0.66 3 1 C3 2.32 3 3.64 3 5 C1.35 4.67 -0.3 4.34 -2 4 C-1.34 2.68 -0.68 1.36 0 0 Z " fill="#3A3B3B" transform="translate(201,316)"/>
<path d="M0 0 C3.65316671 1.24976756 4.78065836 1.67098753 7 5 C2.25 4.125 2.25 4.125 0 3 C0 2.01 0 1.02 0 0 Z " fill="#D1D1D1" transform="translate(318,214)"/>
<path d="M0 0 C0.66 0.99 1.32 1.98 2 3 C2.33 2.01 2.66 1.02 3 0 C3.66 0 4.32 0 5 0 C5.33 0.99 5.66 1.98 6 3 C3.69 3.33 1.38 3.66 -1 4 C-0.67 2.68 -0.34 1.36 0 0 Z " fill="#515352" transform="translate(318,180)"/>
<path d="M0 0 C2.97 0.495 2.97 0.495 6 1 C5.01 1.495 5.01 1.495 4 2 C4 2.99 4 3.98 4 5 C2.68 4.34 1.36 3.68 0 3 C0 2.01 0 1.02 0 0 Z " fill="#282C2B" transform="translate(205,129)"/>
<path d="M0 0 C1.98 0 3.96 0 6 0 C5.67 1.32 5.34 2.64 5 4 C3.02 3.34 1.04 2.68 -1 2 C-0.67 1.34 -0.34 0.68 0 0 Z " fill="#707271" transform="translate(267,117)"/>
<path d="M0 0 C1.8871875 0.061875 1.8871875 0.061875 3.8125 0.125 C3.4825 0.785 3.1525 1.445 2.8125 2.125 C1.1625 1.795 -0.4875 1.465 -2.1875 1.125 C-2.1875 1.785 -2.1875 2.445 -2.1875 3.125 C-3.8375 2.795 -5.4875 2.465 -7.1875 2.125 C-4.09861478 0.06574319 -3.47814073 -0.1140374 0 0 Z " fill="#232524" transform="translate(245.1875,104.875)"/>
<path d="M0 0 C0.99 0.495 0.99 0.495 2 1 C2 1.66 2 2.32 2 3 C3.32 3.66 4.64 4.32 6 5 C5.01 5.66 4.02 6.32 3 7 C0.64046906 4.64046906 0.50858587 3.22104383 0 0 Z " fill="#222423" transform="translate(251,256)"/>
<path d="M0 0 C0 0.66 0 1.32 0 2 C-5.625 4 -5.625 4 -9 4 C-4.5 0 -4.5 0 0 0 Z " fill="#8C8E8D" transform="translate(316,224)"/>
<path d="M0 0 C0.33 0.66 0.66 1.32 1 2 C0.401875 2.268125 -0.19625 2.53625 -0.8125 2.8125 C-2.97224808 3.98493467 -4.35790256 5.19369282 -6 7 C-6.33 6.01 -6.66 5.02 -7 4 C-6.34 4 -5.68 4 -5 4 C-5 3.34 -5 2.68 -5 2 C-3.35 1.34 -1.7 0.68 0 0 Z " fill="#262827" transform="translate(307,150)"/>
<path d="M0 0 C1.32 1.65 2.64 3.3 4 5 C3.67 5.66 3.34 6.32 3 7 C2.34 6.01 1.68 5.02 1 4 C-0.32 4 -1.64 4 -3 4 C-2.67 3.01 -2.34 2.02 -2 1 C-1.34 0.67 -0.68 0.34 0 0 Z " fill="#878888" transform="translate(302,138)"/>
</svg>
