<svg xmlns="http://www.w3.org/2000/svg" xmlns:xlink="http://www.w3.org/1999/xlink" width="1920" zoomAndPan="magnify" viewBox="0 0 1440 809.999993" height="1080" preserveAspectRatio="xMidYMid meet" version="1.0"><rect x="-144" width="1728" fill="#ffffff" y="-80.999999" height="971.999992" fill-opacity="1"/><rect x="-144" width="1728" fill="#ffffff" y="-80.999999" height="971.999992" fill-opacity="1"/><path fill="#000000" d="M 703.871094 174.300781 C 674.273438 180.578125 645.710938 207.101562 627.34375 245.359375 C 622.582031 255.273438 616.363281 272.183594 616.363281 275.210938 C 616.363281 278.359375 619.085938 281.925781 624.605469 286.003906 C 627.644531 288.25 630.71875 290.433594 631.441406 290.863281 C 632.664062 291.585938 632.636719 292.074219 631.09375 297.863281 C 628.496094 307.605469 628.144531 324.949219 630.335938 335.550781 C 633.375 350.28125 640.171875 363.785156 649.542969 373.714844 L 654.449219 378.917969 L 643.792969 393.144531 L 638.941406 387.277344 C 630.703125 377.320312 628.152344 373.941406 623.835938 367.289062 C 617.652344 357.753906 616.679688 357.039062 609.453125 356.710938 C 603.929688 356.460938 603.246094 356.601562 601.070312 358.433594 C 596.703125 362.105469 591.617188 378.125 589.921875 393.535156 C 587.402344 416.464844 590.367188 440.671875 598.019531 459.65625 L 600.769531 466.476562 L 595.148438 472.097656 C 581.464844 485.777344 564.746094 492.710938 545.449219 492.710938 C 531.03125 492.710938 519.925781 489.851562 508.632812 483.230469 C 493.257812 474.210938 481.605469 460.476562 475.195312 443.804688 C 459.859375 403.929688 470.957031 338.558594 500.605469 294.097656 C 506.1875 285.726562 519.132812 272.574219 525.421875 268.878906 C 535.191406 263.144531 544.9375 261.347656 554.339844 263.554688 C 575.671875 268.558594 594.214844 290.242188 608.957031 327.421875 C 610.996094 332.554688 612.816406 336.925781 613.011719 337.132812 C 613.203125 337.339844 613.117188 333.65625 612.816406 328.945312 C 612.488281 323.710938 612.644531 316.742188 613.21875 311.027344 L 614.164062 301.671875 L 611.242188 296.65625 C 599.109375 275.820312 584.46875 260.578125 569.179688 252.871094 C 559.207031 247.84375 544.675781 246.175781 534.300781 248.867188 C 504.972656 256.472656 478.117188 290.421875 462.816406 339.246094 C 452.894531 370.898438 450.351562 406.429688 456.113281 432.914062 C 462.332031 461.488281 478.964844 484.417969 502.800781 497.269531 C 535.867188 515.097656 576.652344 510.300781 602.824219 485.507812 L 608.097656 480.507812 L 612.335938 486.414062 C 624.941406 503.984375 642.089844 518.4375 660.847656 527.300781 C 707.464844 549.324219 762.835938 539.710938 799.574219 503.210938 C 819.34375 483.570312 831.613281 460.023438 836.253906 432.828125 C 838.03125 422.402344 837.992188 402.136719 836.171875 391.980469 C 832.398438 370.90625 827.019531 362.082031 819.675781 364.898438 C 818.914062 365.191406 813.566406 369.574219 807.789062 374.640625 L 797.289062 383.847656 L 793.167969 379.773438 C 790.898438 377.53125 789.042969 375.3125 789.042969 374.835938 C 789.042969 374.363281 789.949219 373.125 791.058594 372.085938 C 794.453125 368.914062 801.851562 357.234375 804.507812 350.851562 C 809.5625 338.710938 810.328125 334.410156 810.335938 318.085938 C 810.34375 304.179688 810.21875 302.894531 808.210938 296.308594 C 807.035156 292.457031 804.761719 286.585938 803.15625 283.257812 C 801.550781 279.929688 800.410156 277.035156 800.621094 276.824219 C 800.832031 276.613281 804.03125 276.667969 807.730469 276.945312 C 814.359375 277.449219 814.492188 277.421875 816.960938 275.214844 C 820.800781 271.773438 821.203125 268.429688 818.660156 261.125 C 810.855469 238.726562 798.070312 217.929688 782.429688 202.207031 C 767.222656 186.917969 751.59375 177.957031 733.65625 174.257812 C 726.152344 172.710938 711.273438 172.734375 703.871094 174.304688 M 709.890625 188.664062 C 703.738281 189.6875 696.832031 192.191406 689.601562 196.015625 C 667.089844 207.929688 647.722656 232.945312 635.464844 265.945312 L 632.585938 273.699219 L 635.167969 275.808594 L 637.753906 277.917969 L 640.476562 276.253906 C 641.972656 275.335938 649.148438 270.761719 656.421875 266.082031 C 672.828125 255.53125 673.816406 255.082031 677.378906 256.570312 C 678.851562 257.183594 685.820312 261.566406 692.859375 266.304688 C 699.902344 271.039062 705.890625 274.917969 706.171875 274.917969 C 706.453125 274.917969 713.402344 270.496094 721.613281 265.089844 C 729.820312 259.683594 737.542969 254.972656 738.769531 254.617188 C 742.019531 253.675781 744.414062 254.929688 758.335938 264.84375 L 770.664062 273.621094 L 778.101562 269.664062 C 787.128906 264.867188 794.015625 262.472656 798.792969 262.472656 C 803.160156 262.472656 803.226562 262.898438 796.710938 249.25 C 776.792969 207.535156 742.066406 183.304688 709.890625 188.664062 M 879.257812 249.507812 C 860.957031 254.929688 843.785156 270.460938 829.242188 294.753906 L 824.832031 302.113281 L 825.734375 306.210938 C 826.230469 308.464844 826.667969 314.59375 826.703125 319.835938 C 826.738281 325.074219 826.941406 329.355469 827.15625 329.347656 C 827.371094 329.34375 828.851562 326.984375 830.445312 324.101562 C 846.167969 295.726562 851 288.421875 860.210938 279.132812 C 876.722656 262.476562 893.605469 258.34375 910.566406 266.8125 C 951.527344 287.253906 982.734375 377.53125 968.214844 433.566406 C 961 461.402344 939.886719 483.160156 912.9375 490.527344 C 904.628906 492.796875 885.433594 492.980469 877.328125 490.867188 C 865.367188 487.746094 851.414062 479.601562 844.109375 471.480469 C 842.519531 469.714844 841.097656 468.433594 840.945312 468.628906 C 840.789062 468.824219 839.054688 471.867188 837.089844 475.382812 L 833.515625 481.78125 L 838.164062 486.082031 C 853.515625 500.296875 872.417969 507.488281 894.421875 507.488281 C 918.886719 507.488281 939.003906 499.476562 956.324219 482.835938 C 979.308594 460.75 989.46875 429.898438 986.671875 390.671875 C 985.199219 369.972656 981.488281 351.945312 974.515625 331.597656 C 970.289062 319.257812 959.722656 297.410156 953.503906 288.140625 C 938.984375 266.503906 922.972656 253.234375 906.136719 248.890625 C 899.101562 247.074219 886.5 247.363281 879.257812 249.507812 M 724.914062 280.9375 C 712.777344 288.886719 708.074219 291.5625 706.246094 291.5625 C 704.390625 291.5625 700.484375 289.269531 690.023438 282.046875 C 682.445312 276.8125 675.761719 272.34375 675.175781 272.121094 C 673.714844 271.558594 651.214844 286.226562 650.007812 288.523438 C 647.746094 292.832031 644.386719 304.589844 643.597656 310.980469 C 642.027344 323.660156 644.609375 337.734375 650.75 349.976562 C 654.480469 357.410156 656.714844 360.410156 664.734375 368.746094 C 672.605469 376.933594 672.675781 377.878906 666.136719 387.460938 C 663.5625 391.230469 659.882812 396.480469 657.960938 399.125 L 654.460938 403.933594 L 658.828125 407.679688 C 661.230469 409.742188 663.527344 411.332031 663.929688 411.21875 C 664.335938 411.105469 669.152344 408.042969 674.632812 404.414062 C 681.515625 399.855469 685.3125 397.816406 686.90625 397.816406 C 688.441406 397.816406 692.1875 399.714844 698.097656 403.488281 C 702.738281 406.453125 707.390625 409.402344 712.054688 412.332031 L 717.128906 415.503906 L 721.035156 411.910156 C 725.90625 407.414062 730.769531 402.910156 735.628906 398.398438 C 744.335938 390.316406 746.738281 388.480469 748.621094 388.480469 C 749.894531 388.480469 756.75 391.101562 763.859375 394.300781 C 770.972656 397.503906 777.183594 399.886719 777.664062 399.601562 C 778.148438 399.316406 780.199219 397.699219 782.222656 396.007812 L 785.902344 392.929688 L 779.375 386.074219 C 771.769531 378.082031 770.394531 375.148438 772.335938 371.054688 C 773.042969 369.566406 774.445312 367.808594 775.457031 367.144531 C 778.199219 365.347656 785.386719 356.117188 788.527344 350.367188 C 798.648438 331.8125 799.175781 308.074219 789.863281 289.894531 C 788.167969 286.578125 786.449219 283.378906 786.050781 282.789062 C 785.46875 281.929688 783.859375 282.511719 777.839844 285.765625 C 771.859375 289 769.894531 289.714844 768.085938 289.316406 C 766.160156 288.894531 761.726562 285.785156 743.507812 272.089844 L 741.140625 270.3125 Z M 679.71875 305.640625 C 674.523438 308.296875 672.929688 316.25 676.695312 320.726562 C 682.605469 327.75 693.371094 323.453125 693.371094 314.070312 C 693.371094 307.21875 685.789062 302.539062 679.71875 305.640625 M 751.316406 305.21875 C 746.449219 307.230469 744.078125 314.28125 746.621094 319.191406 C 748.445312 322.726562 753.511719 324.933594 757.351562 323.875 C 762.042969 322.578125 764.777344 318.253906 764.210938 313.03125 C 763.535156 306.832031 756.996094 302.867188 751.316406 305.21875 M 712.613281 324.984375 C 709.316406 326.214844 708.230469 326.957031 704 330.878906 C 700.96875 333.6875 697.558594 339.261719 698.375 340.074219 C 699.351562 341.050781 708.984375 342.613281 716.703125 343.042969 C 724.347656 343.46875 740.136719 341.972656 741.40625 340.703125 C 742.132812 339.980469 739.710938 335.53125 736.703125 332.0625 C 730.921875 325.394531 720.066406 322.203125 712.613281 324.984375 M 698.8125 350.019531 C 698.8125 351.863281 702.777344 357.945312 705.964844 360.996094 C 709.550781 364.421875 714.648438 366.882812 719.046875 367.304688 C 723.867188 367.769531 729.804688 365.128906 734.449219 360.457031 C 738.449219 356.4375 742.085938 350.527344 741.117188 349.625 C 740.738281 349.273438 737.804688 349.457031 734.59375 350.035156 C 725.277344 351.710938 709.285156 351.269531 700.652344 349.105469 C 699.238281 348.75 698.8125 348.960938 698.8125 350.019531 M 831.039062 350.992188 C 841.496094 358.117188 847.695312 372.480469 850.949219 397.121094 C 851.679688 402.652344 852.4375 407.019531 852.628906 406.828125 C 853.214844 406.242188 851.351562 391.074219 849.765625 383.519531 C 846.34375 367.195312 839.617188 354.445312 832.445312 350.691406 C 829.570312 349.183594 828.667969 349.375 831.039062 350.992188 M 609.332031 380.378906 C 605.464844 389.386719 604.355469 396.472656 604.351562 412.203125 C 604.351562 423.210938 604.699219 428.722656 605.71875 433.804688 C 614.992188 480.070312 650.691406 515.367188 695.671875 522.757812 C 705.210938 524.328125 722.019531 524.300781 730.90625 522.703125 C 776.09375 514.585938 811.59375 479.964844 820.933594 434.90625 C 823.023438 424.8125 823.613281 413.660156 822.5625 404.039062 C 821.757812 396.648438 819.296875 385.03125 818.335938 384.070312 C 818.125 383.859375 810.835938 389.933594 802.136719 397.570312 C 780.820312 416.28125 781.570312 415.707031 778.539062 415.707031 C 776.945312 415.707031 771.066406 413.460938 763.367188 409.914062 L 750.796875 404.125 L 736.058594 417.695312 C 722.367188 430.300781 721.113281 431.261719 718.367188 431.261719 C 715.929688 431.261719 712.964844 429.699219 701.421875 422.320312 L 687.429688 413.382812 L 676.371094 420.765625 C 668.949219 425.722656 664.589844 428.152344 663.121094 428.152344 C 661.90625 428.152344 659.414062 427.058594 657.511719 425.691406 C 652.25 421.910156 630.195312 399.382812 620.695312 388.089844 C 617.664062 384.476562 614.628906 380.871094 611.585938 377.269531 C 611.25 376.878906 610.234375 378.277344 609.332031 380.378906 M 712.46875 554.195312 C 708.109375 556.371094 706.183594 558.417969 704.238281 562.933594 C 702.542969 566.875 702.351562 573.414062 703.828125 576.863281 C 704.25 577.855469 702.070312 580.558594 694.902344 587.921875 L 685.417969 597.667969 L 683.253906 596.550781 C 676.773438 593.195312 669.175781 593.753906 663.644531 597.984375 C 651.09375 607.578125 656.664062 627.136719 672.566406 629.316406 C 679.539062 630.269531 687.195312 626.214844 690.222656 619.957031 L 691.953125 616.386719 L 747.648438 616.386719 L 748.132812 618.316406 C 748.398438 619.378906 749.71875 621.5 751.0625 623.03125 C 759.535156 632.683594 774.664062 630.789062 780.558594 619.332031 C 782.582031 615.402344 782.558594 608.003906 780.511719 603.992188 C 778.304688 599.664062 773.289062 595.679688 768.652344 594.566406 C 760.582031 592.632812 751.671875 597.035156 748.234375 604.65625 L 746.804688 607.828125 L 719.695312 607.828125 C 704.789062 607.828125 692.589844 607.617188 692.589844 607.355469 C 692.589844 607.089844 697.03125 602.167969 702.460938 596.410156 C 710.546875 587.835938 712.617188 586.035156 713.933594 586.4375 C 720.585938 588.472656 727.160156 587.398438 731.890625 583.5 C 735.300781 580.6875 738.464844 574.394531 738.476562 570.398438 C 738.492188 563.714844 734.132812 556.933594 727.984375 554.082031 C 723.769531 552.125 716.511719 552.179688 712.46875 554.195312 M 716.703125 565.828125 C 713.335938 569.191406 715.824219 575.160156 720.59375 575.160156 C 721.890625 575.160156 723.617188 574.46875 724.484375 573.605469 C 725.347656 572.742188 726.039062 571.011719 726.039062 569.714844 C 726.039062 568.417969 725.347656 566.691406 724.484375 565.828125 C 723.617188 564.960938 721.890625 564.269531 720.59375 564.269531 C 719.296875 564.269531 717.570312 564.960938 716.703125 565.828125 M 670.8125 607.828125 C 667.515625 611.128906 669.917969 617.164062 674.527344 617.164062 C 677.949219 617.164062 680.144531 615.167969 680.144531 612.0625 C 680.144531 608.714844 677.851562 606.273438 674.703125 606.273438 C 673.40625 606.273438 671.675781 606.964844 670.8125 607.828125 M 761.351562 606.867188 C 760.183594 607.648438 758.707031 610.566406 758.707031 612.09375 C 758.707031 614.039062 762.300781 617.164062 764.539062 617.164062 C 767.058594 617.164062 770.375 613.949219 770.375 611.511719 C 770.375 607.679688 764.59375 604.703125 761.351562 606.871094 " fill-opacity="1" fill-rule="evenodd"/></svg>