<?xml version="1.0" encoding="UTF-8"?>
<svg version="1.1" xmlns="http://www.w3.org/2000/svg" width="1024" height="1024">
<path d="M0 0 C337.92 0 675.84 0 1024 0 C1024 337.92 1024 675.84 1024 1024 C686.08 1024 348.16 1024 0 1024 C0 686.08 0 348.16 0 0 Z " fill="#FEFEFE" transform="translate(0,0)"/>
<path d="M0 0 C10.16940286 7.58017299 19.83954775 15.78511325 27.82421875 25.6875 C28.55898438 26.5846875 29.29375 27.481875 30.05078125 28.40625 C45.20268146 47.45435312 66.03682906 76.23785743 67.32421875 101.25 C66.64615712 105.9116737 65.4424821 108.36799296 61.79296875 111.34375 C57.58056842 113.25041541 54.04221163 112.77906132 49.51171875 112.375 C48.67576172 112.31376953 47.83980469 112.25253906 46.97851562 112.18945312 C44.92592699 112.03697511 42.87486052 111.86424275 40.82421875 111.6875 C41.0759082 112.17927734 41.32759766 112.67105469 41.58691406 113.17773438 C47.15565554 124.17229822 51.49377827 134.54978918 53.82421875 146.6875 C54.11039063 148.04294922 54.11039063 148.04294922 54.40234375 149.42578125 C57.82376144 175.8784088 52.35154816 204.95920502 36.34033203 226.70263672 C33.32577222 230.51065232 30.13177315 234.13265181 26.82421875 237.6875 C27.76012379 238.7930189 28.69801733 239.89685453 29.63671875 241 C30.15878906 241.61488281 30.68085937 242.22976563 31.21875 242.86328125 C32.7872312 244.7018273 32.7872312 244.7018273 34.5234375 246.29296875 C35.82421875 247.6875 35.82421875 247.6875 35.82421875 249.6875 C39.9365909 247.43208566 43.24906363 244.64084131 46.63671875 241.4375 C47.69738283 240.45124849 48.7585815 239.4655716 49.8203125 238.48046875 C50.33319824 238.00270996 50.84608398 237.52495117 51.37451172 237.03271484 C64.63731833 224.72586667 64.63731833 224.72586667 70.38671875 224.625 C75.47268382 226.19702557 77.6050385 228.39454631 80.1015625 233.08984375 C86.07198999 246.31914965 88.93374231 261.17103699 89.02734375 275.640625 C89.03453934 276.37408646 89.04173492 277.10754791 89.04914856 277.86323547 C89.38089435 321.66495943 78.56572466 362.58860068 47.91015625 395.44921875 C45.95977492 397.54204366 44.10790508 399.69048541 42.26171875 401.875 C19.02790829 428.32255748 -20.31193098 446.34589812 -55.17578125 448.6875 C-72.16075953 449.41841095 -89.60742126 449.96903812 -106.17578125 445.6875 C-107.35406494 445.38948486 -107.35406494 445.38948486 -108.55615234 445.08544922 C-146.15299394 435.3071941 -176.50993654 413.46035629 -199.84375 382.73828125 C-201.91869109 380.02382733 -204.03009541 377.3461774 -206.17578125 374.6875 C-206.66304687 375.22117187 -207.1503125 375.75484375 -207.65234375 376.3046875 C-224.90713262 394.43790198 -250.38228813 407.5733918 -275.63818359 408.86450195 C-308.30922286 409.41701717 -308.30922286 409.41701717 -321.17578125 404.6875 C-321.93600586 404.41373535 -322.69623047 404.1399707 -323.47949219 403.85791016 C-353.34011623 392.82610172 -377.90186408 371.62018021 -391.45703125 342.6328125 C-393.64185248 337.74354995 -395.46184876 332.75238305 -397.16796875 327.67578125 C-398.1028691 324.77557142 -398.1028691 324.77557142 -399.15820312 322.38476562 C-401.15648974 317.08796367 -401.87268171 311.44199545 -402.80078125 305.875 C-402.91350372 305.19909821 -403.0262262 304.52319641 -403.1423645 303.82681274 C-406.50678057 283.09075761 -406.69316025 261.53148699 -403.4921875 240.75048828 C-403.15214364 238.53338131 -402.85092734 236.31268496 -402.55078125 234.08984375 C-397.04190012 194.81737325 -382.55611927 153.97035134 -359.17578125 121.6875 C-358.46421875 120.67945313 -357.75265625 119.67140625 -357.01953125 118.6328125 C-341.82982266 97.92417646 -321.38936875 78.99746408 -295.17578125 74.6875 C-272.71331117 72.32495728 -255.05681259 79.17295127 -237.55078125 93 C-226.45420775 102.44252565 -217.3671924 112.68478907 -209.17578125 124.6875 C-208.64259277 125.46786621 -208.1094043 126.24823242 -207.56005859 127.05224609 C-205.94706431 129.46615539 -204.39728655 131.91027221 -202.86328125 134.375 C-202.37666016 135.10976563 -201.89003906 135.84453125 -201.38867188 136.6015625 C-197.97583604 142.32145525 -197.9937565 146.50717067 -198.78393555 153.03198242 C-199.22047347 157.10443251 -199.28927791 161.08483153 -199.2734375 165.17578125 C-199.27228439 165.89759079 -199.27113129 166.61940033 -199.26994324 167.36308289 C-199.26362941 169.57542813 -199.25110276 171.78768391 -199.23828125 174 C-199.23325013 175.53059747 -199.22869011 177.06119657 -199.22460938 178.59179688 C-199.21374549 182.29039911 -199.19657226 185.98893864 -199.17578125 189.6875 C-200.88545905 187.1229833 -201.93789641 185.01203693 -203.05859375 182.1796875 C-203.41687256 181.2839502 -203.77515137 180.38821289 -204.14428711 179.46533203 C-204.52593018 178.50739746 -204.90757324 177.54946289 -205.30078125 176.5625 C-217.66910434 146.05114874 -234.07109183 112.12163874 -265.87890625 97.9453125 C-278.88294942 93.04804518 -291.90589825 92.74935956 -304.83203125 98.01171875 C-310.77727925 100.99128813 -315.95895758 104.60594366 -321.17578125 108.6875 C-322.0265625 109.34234375 -322.87734375 109.9971875 -323.75390625 110.671875 C-361.47937695 142.06920223 -379.66418344 203.19603271 -384.42578125 250.0625 C-385.44700829 261.26012786 -385.4599513 272.45495173 -385.17578125 283.6875 C-385.14613281 284.89921875 -385.11648438 286.1109375 -385.0859375 287.359375 C-383.67979474 314.38475284 -373.62604411 339.199114 -356.17578125 359.6875 C-355.29986328 360.72003906 -355.29986328 360.72003906 -354.40625 361.7734375 C-339.91456571 377.40244385 -316.43378581 388.48136685 -295.18383789 389.81225586 C-270.10185024 390.71074018 -245.42381744 384.42390913 -226.61328125 367 C-224.78383719 365.24667705 -222.97024135 363.47661148 -221.17578125 361.6875 C-220.21800781 360.85605469 -219.26023437 360.02460937 -218.2734375 359.16796875 C-215.91702823 356.92715299 -215.91702823 356.92715299 -216.19140625 354.31640625 C-217.63700761 350.43465267 -217.63700761 350.43465267 -219.14355469 346.57641602 C-230.87121829 317.31948243 -233.99531634 283.68068119 -228.17578125 252.6875 C-228.05219238 251.98302734 -227.92860352 251.27855469 -227.80126953 250.55273438 C-226.27204783 241.98909285 -224.16882146 233.84761545 -220.80078125 225.8125 C-220.53305908 225.1525 -220.26533691 224.4925 -219.98950195 223.8125 C-217.93073195 219.22064436 -215.653526 216.9374834 -211.17578125 214.6875 C-205.89420667 213.81411462 -200.81829957 214.14994855 -195.73828125 215.8125 C-190.61578697 219.56066655 -187.43420958 224.70391279 -184.17578125 230.0625 C-177.2848114 241.10151945 -168.64531329 250.84658946 -160.17578125 260.6875 C-156.85639566 257.55083288 -154.12116004 254.10742943 -151.42578125 250.4375 C-151.01457031 249.88320313 -150.60335937 249.32890625 -150.1796875 248.7578125 C-149.17542767 247.40322948 -148.17518772 246.04566776 -147.17578125 244.6875 C-148.72979549 240.99031228 -151.02228863 238.610213 -153.80078125 235.75 C-167.4187768 221.16580459 -174.43125487 202.97382403 -178.17578125 183.6875 C-178.36914062 182.78 -178.5625 181.8725 -178.76171875 180.9375 C-180.6448615 166.15660594 -179.57112174 151.13089141 -176.17578125 136.6875 C-175.82731478 134.69008111 -175.48888662 132.69076637 -175.17578125 130.6875 C-175.72105469 130.3471875 -176.26632812 130.006875 -176.828125 129.65625 C-193.35169182 119.03597458 -193.35169182 119.03597458 -195.17578125 111.6875 C-194.89297581 105.19677032 -192.98958623 99.55674712 -190.73828125 93.5 C-190.38411133 92.54311279 -190.02994141 91.58622559 -189.66503906 90.6003418 C-181.30869636 68.5190867 -170.01633353 48.08878882 -155.17578125 29.6875 C-154.73298828 29.13787598 -154.29019531 28.58825195 -153.83398438 28.02197266 C-114.72967986 -20.10743369 -53.27749252 -38.7949269 0 0 Z " fill="#252727" transform="translate(574.17578125,235.3125)"/>
<path d="M0 0 C3.83945182 1.51852477 5.67491055 3.77802738 8.1875 7 C11.86776092 11.62298785 15.67775983 16.05747292 19.6640625 20.41796875 C21.56561637 22.51985354 23.43378038 24.64220072 25.29296875 26.78125 C35.21400073 38.1402474 45.55525189 49.16093297 57 59 C57.76054687 59.66 58.52109375 60.32 59.3046875 61 C63.4321467 64.36426863 65.50132638 65.51365738 71 65 C74.20297143 63.35515397 74.20297143 63.35515397 77.3515625 61.02734375 C77.93287933 60.62544327 78.51419617 60.22354279 79.11312866 59.8094635 C80.95991829 58.53182015 82.79349603 57.23694292 84.625 55.9375 C87.0448146 54.22357012 89.47566908 52.52719775 91.9140625 50.83984375 C92.9860791 50.08050537 94.0580957 49.32116699 95.16259766 48.53881836 C98 47 98 47 100.12695312 47.10961914 C102.20371142 48.09683727 104.11815635 49.16344918 106.0546875 50.40625 C107.21436035 51.14536621 107.21436035 51.14536621 108.39746094 51.89941406 C109.21504883 52.42760742 110.03263672 52.95580078 110.875 53.5 C112.14005371 54.3038916 112.14005371 54.3038916 113.43066406 55.12402344 C117.36343872 57.62913681 121.26811603 60.16480337 125.1171875 62.796875 C125.73609863 63.21388672 126.35500977 63.63089844 126.99267578 64.06054688 C128.64449219 65.17858654 130.28365882 66.31525071 131.921875 67.453125 C135.62638271 69.31478116 137.90244945 69.51101092 142 69 C144.35969401 67.87754684 144.35969401 67.87754684 146.375 66 C147.64150391 64.91332031 147.64150391 64.91332031 148.93359375 63.8046875 C154.30978377 58.93314154 159.57993638 53.94576869 164.8359375 48.9453125 C169.81505822 44.21207428 174.88998907 39.59128412 180 35 C188.50910924 37.60247287 196.31090579 41.33387688 204.29296875 45.23632812 C211.80173086 48.92532982 211.80173086 48.92532982 220 49 C222.76328987 47.47458753 222.76328987 47.47458753 225.1875 45.1875 C226.12980469 44.36636719 227.07210937 43.54523437 228.04296875 42.69921875 C229.03117201 41.80225445 230.0168158 40.902463 231 40 C231.49193848 39.55092285 231.98387695 39.1018457 232.49072266 38.63916016 C234.50628331 36.79577977 236.51775204 34.94828356 238.51831055 33.08862305 C242.59216935 29.31584982 246.85189518 25.82184244 251.18359375 22.34765625 C254.96549643 19.19519646 258.55670632 15.85257939 262.1171875 12.453125 C265.787988 9 265.787988 9 268 9 C276.09949879 30.82146518 276.48183972 55.41682286 271 78 C270.81195801 78.77972168 270.62391602 79.55944336 270.43017578 80.36279297 C265.88950825 98.4568293 258.28427169 116.06625156 247 131 C246.3503125 131.87011719 245.700625 132.74023438 245.03125 133.63671875 C220.28185659 165.26607413 185.74700679 184.69922805 145.87304688 189.70703125 C110.50056444 193.3140145 75.01755375 182.82721301 47 161 C42.83565869 157.50365883 38.91193474 153.77380145 35 150 C34.23171875 149.29488281 33.4634375 148.58976563 32.671875 147.86328125 C8.76345161 125.28788146 -6.78157482 90.39450744 -8.14257812 57.56030273 C-8.24360337 53.41440173 -8.29842778 49.2719808 -8.3125 45.125 C-8.31511841 44.38933807 -8.31773682 43.65367615 -8.32043457 42.89572144 C-8.32623759 27.68537786 -6.57344755 13.91612832 0 0 Z " fill="#FDFDFD" transform="translate(371,476)"/>
<path d="M0 0 C2.40969932 0.88960023 4.0157089 2.04274203 6.02124023 3.64672852 C7.13607788 4.52917236 7.13607788 4.52917236 8.2734375 5.42944336 C9.44604126 6.37037842 9.44604126 6.37037842 10.64233398 7.33032227 C12.26684208 8.60568866 13.89184055 9.8804307 15.51733398 11.15454102 C18.1608778 13.23975014 20.78713519 15.34205311 23.39233398 17.47485352 C29.75379122 22.53871543 29.75379122 22.53871543 37.54858398 23.58422852 C41.76292907 22.22497215 45.50821664 19.92745243 49.20800781 17.52758789 C53.60144083 14.72350569 53.60144083 14.72350569 56.14868164 14.95947266 C59.58461442 16.39769939 60.64221154 20.05461036 62.14233398 23.26782227 C62.49376465 24.00033203 62.84519531 24.7328418 63.20727539 25.48754883 C72.76904744 45.72386601 73.8116393 67.90166315 66.97827148 89.20141602 C61.95636156 102.95496931 54.96405627 114.47130145 44.07983398 124.33032227 C41.25203735 127.14333947 39.39926408 129.10711022 38.95483398 133.14282227 C39.97604117 142.58075314 50.56839356 150.57574404 57.07983398 156.76782227 C51.14763059 164.22544938 51.14763059 164.22544938 47.07983398 166.76782227 C43.16630489 166.34108106 39.87119523 164.93346663 36.29858398 163.33422852 C34.66469727 162.60816406 34.66469727 162.60816406 32.99780273 161.86743164 C31.86987305 161.36018555 30.74194336 160.85293945 29.57983398 160.33032227 C27.34054684 159.3309604 25.1009739 158.33223864 22.86108398 157.33422852 C21.87172852 156.89022705 20.88237305 156.44622559 19.86303711 155.98876953 C12.72041537 152.72370448 12.72041537 152.72370448 5.07983398 153.76782227 C1.47079286 156.49349101 -1.72019029 159.57820245 -4.92016602 162.76782227 C-5.55180664 163.39688477 -6.18344727 164.02594727 -6.83422852 164.67407227 C-7.96772051 165.81274002 -9.09797995 166.9546355 -10.22485352 168.09985352 C-12.60652094 170.44310695 -15.12485838 172.61015544 -17.65454102 174.79125977 C-22.14369879 178.70766293 -26.52211118 182.74974643 -30.92016602 186.76782227 C-38.63967214 182.69413478 -46.0342294 178.2627256 -53.35766602 173.51782227 C-55.27189293 172.28168374 -57.18721365 171.04723697 -59.10375977 169.81469727 C-59.93447998 169.27683594 -60.7652002 168.73897461 -61.62109375 168.18481445 C-62.3797876 167.71720703 -63.13848145 167.24959961 -63.92016602 166.76782227 C-64.53512939 166.35435547 -65.15009277 165.94088867 -65.78369141 165.51489258 C-69.10861842 164.35225098 -71.5303897 164.96565621 -74.92016602 165.76782227 C-77.89937426 167.33871467 -77.89937426 167.33871467 -80.67797852 169.43579102 C-81.71567383 170.1634668 -82.75336914 170.89114258 -83.82250977 171.64086914 C-85.44157004 172.80364879 -87.06058699 173.96651923 -88.67358398 175.13769531 C-90.24739379 176.27328008 -91.83751304 177.38615358 -93.42797852 178.49829102 C-94.36270996 179.1727124 -95.29744141 179.84713379 -96.26049805 180.54199219 C-98.92016602 181.76782227 -98.92016602 181.76782227 -101.62353516 181.09375 C-104.26715748 179.56749159 -106.13016736 177.85222764 -108.23266602 175.64282227 C-109.27874023 174.55614258 -109.27874023 174.55614258 -110.34594727 173.44750977 C-110.86543945 172.89321289 -111.38493164 172.33891602 -111.92016602 171.76782227 C-108.71247736 165.79571851 -104.87098961 160.48814181 -100.79516602 155.08032227 C-99.53969585 153.41190214 -98.28697999 151.74140498 -97.03735352 150.06860352 C-96.21146729 148.97286011 -96.21146729 148.97286011 -95.36889648 147.85498047 C-92.25231695 143.36498411 -91.43183174 140.4955397 -92.19360352 135.07788086 C-93.52877497 130.83278936 -96.64782038 128.43449558 -99.92016602 125.58032227 C-116.14953111 110.39819894 -126.27659252 89.11419577 -127.12329102 66.67407227 C-127.4132537 50.33827664 -125.49807617 31.96849832 -114.92016602 18.76782227 C-112.18286911 16.70661562 -109.27078936 15.02278059 -106.29516602 13.33032227 C-104.67911212 12.37969278 -103.06451869 11.42657604 -101.45141602 10.47094727 C-100.67411133 10.01268555 -99.89680664 9.55442383 -99.09594727 9.08227539 C-94.8800203 6.53531053 -90.88580315 3.6872486 -86.92016602 0.76782227 C-84.06734679 2.12513176 -81.4969364 3.65776429 -78.90063477 5.45532227 C-77.74869629 6.24966675 -77.74869629 6.24966675 -76.57348633 7.06005859 C-75.75976562 7.62362061 -74.94604492 8.18718262 -74.10766602 8.76782227 C-72.39814966 9.93856905 -70.68851271 11.10913976 -68.97875977 12.27954102 C-65.82703954 14.44414796 -62.69508994 16.63247527 -59.58032227 18.84985352 C-58.27704722 19.76016779 -56.97366824 20.67033331 -55.67016602 21.58032227 C-55.08775146 22.00635742 -54.50533691 22.43239258 -53.90527344 22.87133789 C-49.74495381 25.74475605 -46.91765984 26.56397844 -41.92016602 25.76782227 C-38.79123484 24.35998707 -35.97563279 22.58034439 -33.10766602 20.70532227 C-32.31086426 20.200896 -31.5140625 19.69646973 -30.69311523 19.17675781 C-24.98459169 15.53776325 -19.41684539 11.71856057 -13.92016602 7.76782227 C-11.80554532 6.25322519 -9.68014581 4.75358344 -7.54516602 3.26782227 C-6.56805664 2.57688477 -5.59094727 1.88594727 -4.58422852 1.17407227 C-1.92016602 -0.23217773 -1.92016602 -0.23217773 0 0 Z " fill="#FDFDFD" transform="translate(539.920166015625,339.232177734375)"/>
<path d="M0 0 C22.38905082 18.68177292 42.35941364 44.32198016 51.1875 72.5 C51.1875 73.49 51.1875 74.48 51.1875 75.5 C50.19234375 75.60054688 49.1971875 75.70109375 48.171875 75.8046875 C36.23097735 77.31086398 26.70063452 81.63789029 16.20776367 87.40258789 C14.22189474 88.48131669 12.21430381 89.50067905 10.1875 90.5 C9.72601562 90.16379639 9.26453125 89.82759277 8.7890625 89.48120117 C4.0981364 86.06788031 -0.60848865 82.67719619 -5.32324219 79.296875 C-7.65856484 77.61111836 -9.97491591 75.90214284 -12.2890625 74.1875 C-13.67125887 73.18664856 -15.05404285 72.18660796 -16.4375 71.1875 C-17.06269531 70.71401123 -17.68789063 70.24052246 -18.33203125 69.75268555 C-22.14910807 67.03688422 -25.12552613 65.77500821 -29.86083984 66.09301758 C-33.28965811 66.80803385 -35.97753331 68.54906334 -38.8125 70.5 C-39.46605469 70.92845215 -40.11960937 71.3569043 -40.79296875 71.79833984 C-42.27910624 72.77725509 -43.75920388 73.765378 -45.234375 74.76074219 C-48.20753998 76.76650235 -51.19698721 78.74676508 -54.1875 80.7265625 C-60.07581687 84.63130031 -65.94850761 88.55884479 -71.8125 92.5 C-77.71309694 88.80332088 -83.5441157 85.02682747 -89.29296875 81.09765625 C-90.96467813 79.96643749 -92.63769721 78.83718633 -94.3112793 77.70874023 C-95.44661001 76.93812035 -96.57775754 76.16130477 -97.70483398 75.37866211 C-104.76473281 70.14582359 -104.76473281 70.14582359 -112.9609375 67.6015625 C-118.51218331 68.89647785 -122.57693285 71.62499016 -127.25 74.8125 C-128.68557251 75.75851074 -128.68557251 75.75851074 -130.15014648 76.72363281 C-132.10469932 78.01290625 -134.05436666 79.30961738 -135.99902344 80.61376953 C-139.37452389 82.87679595 -142.77084689 85.10599818 -146.17797852 87.32104492 C-147.60430529 88.24873585 -149.02691551 89.18217562 -150.44506836 90.12231445 C-153.80992428 92.32916037 -156.98026659 94.17600381 -160.8125 95.5 C-162.7925 93.85 -164.7725 92.2 -166.8125 90.5 C-165.51738348 83.79507385 -163.55278158 77.87003205 -160.8125 71.625 C-160.41659668 70.71661377 -160.02069336 69.80822754 -159.61279297 68.87231445 C-144.7533048 35.30594809 -121.94592887 0.2091129 -86.61865234 -14.40771484 C-55.83889227 -26.2833703 -26.05303061 -19.71345983 0 0 Z " fill="#FDFDFD" transform="translate(566.8125,253.5)"/>
<path d="M0 0 C40.94052314 33.0805742 61.94123985 88.26752857 70.75 138.6875 C70.87634827 139.38821625 71.00269653 140.0889325 71.13287354 140.81088257 C73.30715643 153.05904123 74.22852231 164.97869096 74.14111328 177.41430664 C74.12502307 180.12111917 74.14108589 182.82643495 74.16015625 185.53320312 C74.18263844 202.26807544 72.78209478 219.07553328 67.125 234.9375 C66.77945068 235.93491211 66.43390137 236.93232422 66.07788086 237.95996094 C55.01851815 268.81615284 33.04138552 293.56172008 3.5625 307.9375 C-22.97331886 320.38083287 -55.00871599 321.69217628 -82.5234375 311.87646484 C-97.68779555 306.11900061 -110.80139378 297.13610622 -122.25 285.6875 C-121.93953283 281.2056278 -119.83769919 277.74535854 -117.6875 273.875 C-117.35814453 273.27751953 -117.02878906 272.68003906 -116.68945312 272.06445312 C-115.88226733 270.60216002 -115.06695083 269.1443601 -114.25 267.6875 C-113.321875 268.491875 -112.39375 269.29625 -111.4375 270.125 C-110.79296875 270.67285156 -110.1484375 271.22070312 -109.484375 271.78515625 C-107.92252389 273.1149141 -106.37123258 274.45713017 -104.828125 275.80859375 C-87.75988895 290.37719168 -68.32184886 298.10190182 -45.8125 297.9375 C-44.75740234 297.94523437 -43.70230469 297.95296875 -42.61523438 297.9609375 C-15.90155985 297.89518076 6.15384776 286.37500623 25.17578125 268.39453125 C36.46494584 256.74443422 43.89545957 242.01587766 48.75 226.6875 C49.06453125 225.72585938 49.3790625 224.76421875 49.703125 223.7734375 C53.80017757 210.1567628 54.15916269 196.03892502 54.125 181.9375 C54.12445618 181.08711151 54.12391235 180.23672302 54.12335205 179.36056519 C54.07896125 164.16985444 52.87013337 149.59241299 49.75 134.6875 C49.54101074 133.68299805 49.33202148 132.67849609 49.11669922 131.64355469 C41.48238678 96.19975807 27.54682322 59.53484632 3.75 31.6875 C2.70392578 30.44033203 2.70392578 30.44033203 1.63671875 29.16796875 C-8.68792464 17.22952675 -22.90321726 5.20135403 -39.31152344 3.4699707 C-48.95553491 2.94442626 -57.47167707 3.31205466 -66.25 7.6875 C-67.5803125 8.28884766 -67.5803125 8.28884766 -68.9375 8.90234375 C-76.92442167 12.81638917 -83.03894574 18.46155623 -89.25 24.6875 C-90.1059375 25.53183594 -90.961875 26.37617188 -91.84375 27.24609375 C-104.24313841 40.13596429 -112.42852883 56.30079175 -120.98828125 71.83984375 C-127.37867095 83.3784184 -127.37867095 83.3784184 -130.25 87.6875 C-130.58 87.6875 -130.91 87.6875 -131.25 87.6875 C-131.33302368 86.41688721 -131.33302368 86.41688721 -131.41772461 85.12060547 C-131.62594663 81.95589075 -131.83686157 78.79136986 -132.04956055 75.62695312 C-132.14079769 74.26146416 -132.23098406 72.89590454 -132.32006836 71.53027344 C-132.44884479 69.55905885 -132.58180587 67.58811907 -132.71484375 65.6171875 C-132.83267212 63.84190674 -132.83267212 63.84190674 -132.95288086 62.03076172 C-133.17440049 58.70277284 -133.17440049 58.70277284 -133.95117188 55.56982422 C-134.32638638 51.95072091 -133.53909967 50.65564578 -131.56640625 47.640625 C-130.96763672 46.7125 -130.36886719 45.784375 -129.75195312 44.828125 C-129.11193359 43.87421875 -128.47191406 42.9203125 -127.8125 41.9375 C-127.20728516 40.9990625 -126.60207031 40.060625 -125.97851562 39.09375 C-119.28793879 28.86359662 -111.56029994 19.63138663 -103.25 10.6875 C-102.62609375 9.99785156 -102.0021875 9.30820312 -101.359375 8.59765625 C-73.76882198 -20.67383382 -31.81790868 -24.82790512 0 0 Z " fill="#252727" transform="translate(781.25,326.3125)"/>
<path d="M0 0 C6.66502627 3.76030008 10.21567533 8.52021943 12.625 15.875 C13.50391969 23.65971726 10.99203383 29.20201647 6.8125 35.6875 C2.57357321 39.92642679 -2.47768865 42.6340753 -8.5234375 43.0078125 C-9.62558594 43.00394531 -9.62558594 43.00394531 -10.75 43 C-11.84441406 43.00386719 -11.84441406 43.00386719 -12.9609375 43.0078125 C-15.375 42.875 -15.375 42.875 -18.19921875 41.93359375 C-21.9323146 41.86471744 -22.35060668 42.33707389 -24.99609375 44.77734375 C-26.28702059 46.10437108 -27.55842745 47.45059117 -28.8125 48.8125 C-29.47411133 49.50311523 -30.13572266 50.19373047 -30.81738281 50.90527344 C-34.67590571 54.95834371 -38.48362605 59.06916657 -42.078125 63.359375 C-43.42897638 64.93808083 -44.90579757 66.40579757 -46.375 67.875 C-23.275 67.875 -0.175 67.875 23.625 67.875 C24.945 65.235 26.265 62.595 27.625 59.875 C29.40625 57.8515625 29.40625 57.8515625 31.125 56.5 C31.6921875 56.03851562 32.259375 55.57703125 32.84375 55.1015625 C39.05712076 50.82305719 45.25297768 51.22209668 52.625 51.875 C58.83064354 53.50446929 63.16199241 57.57020174 66.625 62.875 C69.53840348 68.90135513 69.76179475 75.78390033 67.97265625 82.22265625 C65.37025682 88.01941722 60.99997257 92.21329873 55.32421875 95.0078125 C49.17874652 96.98218997 41.84075405 97.22924009 35.8515625 94.70703125 C31.05083212 91.60489817 26.3288164 88.01902193 25.03125 82.22265625 C24.8971875 81.44792969 24.763125 80.67320312 24.625 79.875 C15.32333307 79.82032482 6.0228899 79.80864455 -3.27884197 79.85165405 C-7.59828316 79.87027961 -11.91668468 79.87416814 -16.23608398 79.84423828 C-20.40583401 79.81588988 -24.57384842 79.82643468 -28.74350929 79.86380005 C-30.33308363 79.87123908 -31.92278718 79.86472997 -33.51224327 79.84396362 C-42.03054329 79.36035363 -42.03054329 79.36035363 -49.42584229 82.65151978 C-50.7075089 84.69686222 -51.55237894 86.61482534 -52.375 88.875 C-57.27359334 94.46414394 -62.38338972 96.43148775 -69.75 97.25 C-76.2860674 96.5738551 -82.82678502 93.67589359 -87.375 88.875 C-91.27003485 83.10257994 -93.29664103 77.61955665 -92.91015625 70.61328125 C-91.51666468 63.48307984 -87.68017345 58.33416785 -81.75 54.25 C-76.05622202 51.21847115 -70.69207673 50.93055694 -64.375 51.875 C-61.91121622 52.6977357 -59.72508674 53.74891677 -57.375 54.875 C-53.96020126 54.50662633 -52.42599 53.24985854 -50.16796875 50.7421875 C-49.58080078 50.10023438 -48.99363281 49.45828125 -48.38867188 48.796875 C-47.78603516 48.12140625 -47.18339844 47.4459375 -46.5625 46.75 C-45.36978479 45.43372105 -44.17577603 44.11861305 -42.98046875 42.8046875 C-42.39322021 42.15226074 -41.80597168 41.49983398 -41.20092773 40.82763672 C-38.80055083 38.26068733 -36.244366 35.87461205 -33.64746094 33.5078125 C-31.97239609 31.71048988 -31.97239609 31.71048988 -32.4375 28 C-32.74563556 26.62401536 -33.05830671 25.24904025 -33.375 23.875 C-34.06435699 17.32610862 -33.31025796 12.2681669 -29.375 6.875 C-21.12564483 -1.87379421 -11.41100532 -5.30466765 0 0 Z " fill="#252727" transform="translate(523.375,704.125)"/>
<path d="M0 0 C7.23277765 3.96316584 11.91444795 9.70184701 15.28125 17.25 C14.95125 17.91 14.62125 18.57 14.28125 19.25 C7.71397103 21.35648571 1.14376954 21.8874518 -5.71875 22.25 C-6.60949219 22.30414063 -7.50023437 22.35828125 -8.41796875 22.4140625 C-18.61400249 22.73405215 -28.68046687 20.84122869 -38.71875 19.25 C-40.01012585 14.84862432 -40.01012585 14.84862432 -38.71484375 12.1875 C-28.46002433 -0.5603457 -15.88747133 -7.23986035 0 0 Z " fill="#262928" transform="translate(524.71875,410.75)"/>
<path d="M0 0 C0.68578125 0.144375 1.3715625 0.28875 2.078125 0.4375 C10.76410956 1.97787165 19.25579533 2.19215102 28.0625 2.1875 C29.23264648 2.18814453 30.40279297 2.18878906 31.60839844 2.18945312 C39.44343726 2.14121051 47.19724247 1.7033084 55 1 C51.15613688 10.9705445 44.56518501 18.30764509 35 23 C30.29855411 24.81991454 25.2054171 24.80071482 20.50390625 23.09375 C11.51089926 18.82309828 4.4945096 13.05487282 0 4 C0 2.68 0 1.36 0 0 Z " fill="#262828" transform="translate(485,440)"/>
<path d="M0 0 C3.76456766 2.06682146 7.05213977 4.10427955 9 8 C9.53984503 13.57839862 9.22031416 17.22505142 6 22 C2.35461787 25.21651364 -1.15342411 25.5194935 -5.84765625 25.35546875 C-9.12506791 24.81419024 -10.78820981 23.41286203 -13 21 C-15.50188365 16.7592185 -15.82705336 12.82030087 -15 8 C-13.31914939 4.83250064 -10.98835778 2.7014152 -8.0625 0.625 C-5.15227888 -0.25688519 -3.03383286 -0.36405994 0 0 Z " fill="#252827" transform="translate(469,383)"/>
<path d="M0 0 C3.76115969 2.06495042 7.09650288 4.08725592 9 8 C9.73940087 12.77415625 9.45664981 16.10300929 7.25 20.4375 C3.86468889 24.2929932 2.28994853 24.83082642 -2.8125 25.5 C-7.22361901 25.40913425 -9.4949332 23.51834181 -12.65234375 20.60546875 C-15.57637503 17.12205758 -15.36732748 13.33446432 -15 9 C-11.64420614 2.5369896 -7.49641301 -1.07091614 0 0 Z " fill="#242626" transform="translate(560,383)"/>
<path d="M0 0 C2.5881216 2.25417042 2.94242643 3.60520979 3.4375 7 C3 10 3 10 1.4375 12.375 C-1.95870843 14.63913895 -4.00099302 14.64269755 -8 14 C-10.5 11.9375 -10.5 11.9375 -12 9 C-12 5.19715329 -11.7968187 2.98069994 -9.375 0 C-5.88418213 -1.46981805 -3.60851044 -0.98413921 0 0 Z " fill="#F5F5F5" transform="translate(574,771)"/>
<path d="M0 0 C2 1 2 1 3 3 C3.51981506 6.56444611 3.63102777 9.73794446 2 13 C-1.27787564 14.63893782 -4.48182577 14.74884833 -8 14 C-10.5625 11.875 -10.5625 11.875 -12 9 C-11.93689022 5.84451076 -11.48864121 3.86230802 -9.9375 1.125 C-6.76114098 -0.71933749 -3.57123945 -0.52080575 0 0 Z " fill="#F6F6F6" transform="translate(517,717)"/>
<path d="M0 0 C2 1 2 1 3 3 C3.51981506 6.56444611 3.63102777 9.73794446 2 13 C-1.26205554 14.63102777 -4.43555389 14.51981506 -8 14 C-10 13 -10 13 -11 11 C-11.51981506 7.43555389 -11.63102777 4.26205554 -10 1 C-6.73794446 -0.63102777 -3.56444611 -0.51981506 0 0 Z " fill="#F9F8F8" transform="translate(458,771)"/>
<path d="M0 0 C0.33 0 0.66 0 1 0 C1.33 11.55 1.66 23.1 2 35 C0.09610151 32.14415227 -0.69462177 30.0688238 -1.625 26.8125 C-2.01558594 25.46091797 -2.01558594 25.46091797 -2.4140625 24.08203125 C-2.60742188 23.39496094 -2.80078125 22.70789063 -3 22 C-2.34 22 -1.68 22 -1 22 C-1.01160156 21.24976563 -1.02320313 20.49953125 -1.03515625 19.7265625 C-1.0937829 13.07662583 -0.81769308 6.59995127 0 0 Z " fill="#1A1A19" transform="translate(373,390)"/>
<path d="M0 0 C0.30028643 10.52670777 -0.58806359 20.58696894 -2 31 C-2.33 31 -2.66 31 -3 31 C-3 21.1 -3 11.2 -3 1 C-1 0 -1 0 0 0 Z " fill="#2D2F2E" transform="translate(347,503)"/>
<path d="M0 0 C0.33 0 0.66 0 1 0 C1.42354299 3.24701383 1.80893307 6.49746049 2.1875 9.75 C2.30802734 10.67039062 2.42855469 11.59078125 2.55273438 12.5390625 C2.65263672 13.42851562 2.75253906 14.31796875 2.85546875 15.234375 C3.00471802 16.45979004 3.00471802 16.45979004 3.15698242 17.70996094 C3 20 3 20 0 24 C0 16.08 0 8.16 0 0 Z " fill="#121211" transform="translate(650,390)"/>
<path d="M0 0 C0.66 0.33 1.32 0.66 2 1 C-3.20704182 7.0989888 -8.31851737 12.52140401 -15 17 C-13.67879172 14.06769807 -12.25361803 12.01335101 -9.9609375 9.765625 C-9.38085938 9.19199219 -8.80078125 8.61835938 -8.203125 8.02734375 C-7.59984375 7.44082031 -6.9965625 6.85429687 -6.375 6.25 C-5.76398438 5.64800781 -5.15296875 5.04601562 -4.5234375 4.42578125 C-3.02011376 2.94594695 -1.51065144 1.47235324 0 0 Z " fill="#141514" transform="translate(239,330)"/>
<path d="M0 0 C-1.1858237 3.37503669 -2.27573689 5.64722731 -5 8 C-4.67 6.35 -4.34 4.7 -4 3 C-5.65 3 -7.3 3 -9 3 C-9.33 2.34 -9.66 1.68 -10 1 C-6.52674819 -0.1577506 -3.63932552 -0.06866652 0 0 Z " fill="#212121" transform="translate(540,441)"/>
<path d="M0 0 C6.0546875 -0.1953125 6.0546875 -0.1953125 8 0 C8.66 0.66 9.32 1.32 10 2 C6.52674819 3.1577506 3.63932552 3.06866652 0 3 C0 2.01 0 1.02 0 0 Z " fill="#313231" transform="translate(450,798)"/>
<path d="M0 0 C0.99 0 1.98 0 3 0 C3 3.63 3 7.26 3 11 C2.01 10.34 1.02 9.68 0 9 C-0.29296875 6.8359375 -0.29296875 6.8359375 -0.1875 4.375 C-0.16042969 3.55773437 -0.13335937 2.74046875 -0.10546875 1.8984375 C-0.05326172 0.95871094 -0.05326172 0.95871094 0 0 Z " fill="#303130" transform="translate(490,719)"/>
<path d="M0 0 C2.31 0.33 4.62 0.66 7 1 C7 1.99 7 2.98 7 4 C6.01 4 5.02 4 4 4 C3.67 4.66 3.34 5.32 3 6 C0.8614515 3.8614515 0.57344937 2.86724686 0 0 Z " fill="#343535" transform="translate(485,440)"/>
<path d="M0 0 C0.99 0.33 1.98 0.66 3 1 C3.25 8.625 3.25 8.625 1 12 C-0.3271261 8.0186217 -0.06915913 4.14954773 0 0 Z " fill="#303131" transform="translate(626,387)"/>
<path d="M0 0 C2.25693432 2.25693432 2.87292007 4.04141517 4 7 C4.66 8.32 5.32 9.64 6 11 C3.69 9.02 1.38 7.04 -1 5 C-0.67 3.35 -0.34 1.7 0 0 Z " fill="#2D2E2D" transform="translate(660,607)"/>
<path d="M0 0 C0.33 0 0.66 0 1 0 C1 3.96 1 7.92 1 12 C0.01 11.67 -0.98 11.34 -2 11 C-2 9.02 -2 7.04 -2 5 C-1.67 5 -1.34 5 -1 5 C-0.67 3.35 -0.34 1.7 0 0 Z " fill="#2C2E2D" transform="translate(371,400)"/>
<path d="M0 0 C1.98 0 3.96 0 6 0 C6.33 0.99 6.66 1.98 7 3 C4.69 3 2.38 3 0 3 C0 2.01 0 1.02 0 0 Z " fill="#2D2E2D" transform="translate(554,383)"/>
<path d="M0 0 C0.33 0.99 0.66 1.98 1 3 C-0.62339805 4.70884005 -2.29319053 6.37446717 -4 8 C-4.66 8 -5.32 8 -6 8 C-4.55746343 4.63408134 -2.66735273 2.48952921 0 0 Z " fill="#2F2F2F" transform="translate(481,746)"/>
<path d="M0 0 C1.88343932 3.76687864 2.22057835 5.02958963 2 9 C1.01 9 0.02 9 -1 9 C-0.67 6.03 -0.34 3.06 0 0 Z " fill="#333433" transform="translate(397,376)"/>
<path d="M0 0 C2 3 2 3 1.625 6.1875 C1.41875 7.115625 1.2125 8.04375 1 9 C0.34 9 -0.32 9 -1 9 C-0.67 6.03 -0.34 3.06 0 0 Z " fill="#181A19" transform="translate(834,538)"/>
<path d="M0 0 C1.65 0 3.3 0 5 0 C5 0.99 5 1.98 5 3 C3.35 3 1.7 3 0 3 C0 2.01 0 1.02 0 0 Z " fill="#2D2E2E" transform="translate(467,503)"/>
<path d="M0 0 C0.66 0 1.32 0 2 0 C3.4783226 2.95664519 3.06032783 5.74229737 3 9 C2.67 7.68 2.34 6.36 2 5 C1.34 5 0.68 5 0 5 C0 3.35 0 1.7 0 0 Z " fill="#191A1A" transform="translate(848,458)"/>
<path d="M0 0 C1.65 0 3.3 0 5 0 C5.33 0.99 5.66 1.98 6 3 C4.02 3 2.04 3 0 3 C0 2.01 0 1.02 0 0 Z " fill="#313231" transform="translate(641,460)"/>
</svg>
